G04 DipTrace 4.2.0.0*
G04 Relay.GBL.gbr*
%MOMM*%
G04 #@! TF.FileFunction,Copper,L2,Bot*
G04 #@! TF.Part,Single*
G04 #@! TA.AperFunction,Conductor*
%ADD10C,0.25*%
%ADD15C,0.2*%
G04 #@! TA.AperFunction,CopperBalancing*
%ADD16C,0.3*%
G04 #@! TA.AperFunction,Conductor*
%ADD17C,0.5*%
G04 #@! TA.AperFunction,CopperBalancing*
%ADD19C,0.35*%
%ADD23R,1.0X1.1*%
%ADD24R,1.1X1.0*%
G04 #@! TA.AperFunction,ComponentPad*
%ADD26R,2.0X2.0*%
%ADD27C,2.0*%
%ADD28C,5.0*%
%ADD33C,1.5*%
%ADD37C,1.2192*%
G04 #@! TA.AperFunction,ViaPad*
%ADD38C,0.7*%
%FSLAX35Y35*%
G04*
G71*
G90*
G75*
G01*
G04 Bottom*
%LPD*%
X3714750Y-4635500D2*
D16*
Y-4476750D1*
X3556000Y-4635500D2*
Y-4476750D1*
X3413127Y-4873623D2*
D17*
Y-4476750D1*
X3556000D1*
X3714750D1*
X3905250Y-571500D2*
Y-317500D1*
X6127750D1*
Y-571500D1*
X8350250D2*
Y-317500D1*
X6127750D1*
X1714500Y-571506D2*
Y-317500D1*
X3905250D1*
X6647000Y-5905500D2*
D15*
X9101573D1*
X9144000Y-5863073D1*
Y-5619750D1*
X1714500Y-571506D2*
D17*
Y-1270000D1*
Y-1619250D1*
Y-1968500D1*
Y-2667000D1*
X3905250D2*
Y-1968500D1*
Y-1270000D1*
Y-571500D1*
X6127750D2*
Y-1270000D1*
Y-1968500D1*
Y-2667000D1*
X8350250D2*
Y-1968500D1*
Y-1270000D1*
Y-571500D2*
Y-1270000D1*
Y-2667000D2*
Y-3079750D1*
X8483323Y-3212823D1*
X9658073D1*
X9779000Y-3333750D1*
Y-5365750D1*
X9525000Y-5619750D1*
X9144000D1*
X381000Y-1619252D2*
X1714500Y-1619250D1*
X4095750Y-4683127D2*
D10*
X7350120D1*
X7445370Y-4587877D1*
X4175127Y-4762500D2*
X7445373D1*
X4095747Y-4445000D2*
X7080250D1*
X4175127Y-4524373D2*
X5619747D1*
X3238500Y-4064000D2*
X5016500D1*
X3095623Y-4254500D2*
X7239000D1*
X2873373Y-4349750D2*
X7778750D1*
X8429627Y-3698873D1*
X9461500D1*
X3254377Y-4603750D2*
X2444750D1*
X2381250Y-4540250D1*
Y-4460877D1*
X2698750Y-3873500D2*
X4572000D1*
X2936873Y-5000623D2*
Y-5122217D1*
X2989907Y-5175250D1*
X4762500D1*
X4921250Y-5016500D1*
X6794500D1*
X3238500Y-5461000D2*
X3397257D1*
X3476630Y-5381627D1*
X4714873D1*
X4984750Y-5111750D1*
X7826373D1*
X9017000Y-3921123D1*
X3317873Y-5365750D2*
X2206623D1*
X2063750Y-5222877D1*
Y-4730750D1*
X3938496Y-5095873D2*
X4492623D1*
X4175127Y-4921250D2*
X4889500D1*
X6350000D1*
X4095750Y-4841873D2*
X7651753D1*
X8572500Y-3921127D1*
X2143123Y-4619627D2*
Y-5175250D1*
X2254247Y-5286373D1*
X3397250D1*
X4397373Y-5286377D2*
X3635373D1*
Y-3968750D2*
X5905500D1*
X3397250Y-4159250D2*
X7667627D1*
X8128000Y-3698877D1*
X3254373Y-4762500D2*
Y-4921247D1*
X3429000Y-5095873D1*
X3762377D1*
X3841750Y-5016500D1*
X4635500D1*
X6223000Y-5905500D2*
X6350000D1*
X6477000D1*
X6350000D2*
Y-5651500D1*
D38*
X7445370Y-4587877D3*
X7445373Y-4762500D3*
X7080250Y-4445000D3*
X5619747Y-4524373D3*
X2698750Y-3873500D3*
X3938496Y-5095873D3*
X4492623D3*
X4635500Y-5016500D3*
X4397373Y-5286377D3*
X1778000Y-3556000D3*
X2222500D3*
X2667000D3*
X3111500D3*
X3968750D3*
X4413250D3*
X4857750D3*
X5302250D3*
X6191250D3*
X6635750D3*
X7080250D3*
X3190873Y-5619750D3*
X4333877D3*
X3238500Y-4064000D3*
X3397250Y-4159250D3*
X3556000Y-5000627D3*
Y-4476750D3*
X3635373Y-3968750D3*
X3714750Y-4476750D3*
X7524750Y-3556000D3*
X3095623Y-4254500D3*
X2873373Y-4349750D3*
X3254377Y-4603750D3*
X3254373Y-4762500D3*
X8413750Y-3556000D3*
X8858250D3*
X2936873Y-5000623D3*
X4095747Y-4445000D3*
X4175127Y-4524373D3*
X7747000Y-5810250D3*
X4175127Y-4762500D3*
Y-4921250D3*
X4095750Y-4683127D3*
Y-4841873D3*
X9302750Y-3556000D3*
X3238500Y-5461000D3*
X3317873Y-5365750D3*
X3397250Y-5286373D3*
X2317747Y-5191127D3*
X3556000Y-5619750D3*
X3635373Y-5286377D3*
X2143123Y-4619627D3*
X2063750Y-4730750D3*
X2381250Y-4460877D3*
X7747000Y-6000750D3*
X4572000Y-3873500D3*
X5016500Y-4064000D3*
X5905500Y-3968750D3*
X6350000Y-4921250D3*
X6794500Y-5016500D3*
X7239000Y-4254500D3*
X8128000Y-3698877D3*
X9652000Y-3698873D3*
X8572500Y-3921127D3*
X3413127Y-4873623D3*
X9017000Y-3921123D3*
X1555750Y-5127623D3*
X9461500Y-3698873D3*
X566998Y-115667D2*
D19*
X9720017D1*
X591744Y-150333D2*
X9695237D1*
X610303Y-185000D2*
X9676711D1*
X623770Y-219667D2*
X9663210D1*
X632862Y-254333D2*
X1642468D1*
X8422276D2*
X9654119D1*
X637920Y-289000D2*
X1622268D1*
X8442476D2*
X9649094D1*
X639151Y-323667D2*
X1617791D1*
X8446954D2*
X9647864D1*
X636553Y-358333D2*
X1617791D1*
X8446954D2*
X9650427D1*
X630127Y-393000D2*
X1128337D1*
X1284668D2*
X1617791D1*
X8446954D2*
X9288054D1*
X9444454D2*
X9656887D1*
X619532Y-427667D2*
X1073582D1*
X1339424D2*
X1617791D1*
X1811207D2*
X2597551D1*
X2863462D2*
X3264329D1*
X3530171D2*
X3808538D1*
X4001954D2*
X4788298D1*
X5054175D2*
X5486829D1*
X5752671D2*
X6031038D1*
X6224454D2*
X7010798D1*
X7276675D2*
X7709329D1*
X7975171D2*
X8253538D1*
X8446954D2*
X9233298D1*
X9499175D2*
X9667483D1*
X604322Y-462333D2*
X1043230D1*
X1369742D2*
X1617791D1*
X1811207D2*
X2126316D1*
X2318672D2*
X2567234D1*
X2893780D2*
X3233977D1*
X3560523D2*
X3808538D1*
X4001954D2*
X4317063D1*
X4509419D2*
X4757981D1*
X5084527D2*
X5456477D1*
X5783023D2*
X6031038D1*
X6224454D2*
X6539563D1*
X6731919D2*
X6980481D1*
X7307027D2*
X7678977D1*
X8005523D2*
X8253538D1*
X8446954D2*
X8762063D1*
X8954419D2*
X9202981D1*
X9529527D2*
X9682659D1*
X583746Y-497000D2*
X1024431D1*
X1388575D2*
X1588704D1*
X1840293D2*
X2096716D1*
X2348306D2*
X2548401D1*
X2912579D2*
X3215178D1*
X3579322D2*
X3779451D1*
X4031041D2*
X4287463D1*
X4539053D2*
X4739182D1*
X5103326D2*
X5437678D1*
X5801822D2*
X6001951D1*
X6253541D2*
X6509963D1*
X6761553D2*
X6961682D1*
X7325826D2*
X7660178D1*
X8024322D2*
X8224451D1*
X8476041D2*
X8732463D1*
X8984053D2*
X9184182D1*
X9548326D2*
X9703269D1*
X556333Y-531667D2*
X1013665D1*
X1399341D2*
X1573459D1*
X1855538D2*
X2081438D1*
X2363550D2*
X2537634D1*
X2923345D2*
X3204377D1*
X3590123D2*
X3764207D1*
X4046285D2*
X4272185D1*
X4554297D2*
X4728381D1*
X5114092D2*
X5426877D1*
X5812623D2*
X5986707D1*
X6268785D2*
X6494685D1*
X6776797D2*
X6950881D1*
X7336592D2*
X7649377D1*
X8035123D2*
X8209207D1*
X8491285D2*
X8717185D1*
X8999297D2*
X9173381D1*
X9559092D2*
X9730647D1*
X84517Y-566333D2*
X115662D1*
X519317D2*
X1009563D1*
X1403443D2*
X1567888D1*
X1861109D2*
X2075901D1*
X2369122D2*
X2533567D1*
X2927447D2*
X3200310D1*
X3594190D2*
X3758635D1*
X4051856D2*
X4266648D1*
X4559869D2*
X4724314D1*
X5118194D2*
X5422810D1*
X5816690D2*
X5981135D1*
X6274356D2*
X6489148D1*
X6782369D2*
X6946814D1*
X7340694D2*
X7645310D1*
X8039190D2*
X8203635D1*
X8496856D2*
X8711648D1*
X9004869D2*
X9169314D1*
X9563194D2*
X9767664D1*
X10171319D2*
X10202498D1*
X84517Y-601000D2*
X169495D1*
X465484D2*
X1011750D1*
X1401255D2*
X1570862D1*
X1858135D2*
X2078875D1*
X2366114D2*
X2535754D1*
X2925225D2*
X3202498D1*
X3592002D2*
X3761609D1*
X4048882D2*
X4269622D1*
X4556895D2*
X4726501D1*
X5115972D2*
X5424998D1*
X5814502D2*
X5984109D1*
X6271382D2*
X6492122D1*
X6779395D2*
X6949001D1*
X7338472D2*
X7647498D1*
X8037002D2*
X8206609D1*
X8493882D2*
X8714622D1*
X9001895D2*
X9171501D1*
X9560972D2*
X9821497D1*
X10117486D2*
X10202498D1*
X84517Y-635667D2*
X309392D1*
X325583D2*
X1020432D1*
X1392574D2*
X1582961D1*
X1846036D2*
X2090974D1*
X2354014D2*
X2544470D1*
X2916543D2*
X3211213D1*
X3583287D2*
X3773743D1*
X4036783D2*
X4281721D1*
X4544761D2*
X4735183D1*
X5107291D2*
X5433713D1*
X5805787D2*
X5996243D1*
X6259283D2*
X6504221D1*
X6767261D2*
X6957683D1*
X7329791D2*
X7656213D1*
X8028287D2*
X8218743D1*
X8481783D2*
X8726721D1*
X8989761D2*
X9180183D1*
X9552291D2*
X9961394D1*
X9977589D2*
X10202498D1*
X84517Y-670333D2*
X1036633D1*
X1376373D2*
X1607366D1*
X1821631D2*
X2115378D1*
X2329610D2*
X2560637D1*
X2900342D2*
X3227380D1*
X3567120D2*
X3798113D1*
X4012378D2*
X4306125D1*
X4520391D2*
X4751384D1*
X5091089D2*
X5449880D1*
X5789620D2*
X6020613D1*
X6234878D2*
X6528625D1*
X6742891D2*
X6973884D1*
X7313589D2*
X7672380D1*
X8012120D2*
X8243113D1*
X8457378D2*
X8751125D1*
X8965391D2*
X9196384D1*
X9536089D2*
X10202498D1*
X84517Y-705000D2*
X1062917D1*
X1350088D2*
X1617791D1*
X1811207D2*
X2167195D1*
X2277793D2*
X2586956D1*
X2874058D2*
X3253665D1*
X3540835D2*
X3808538D1*
X4001954D2*
X4357942D1*
X4468541D2*
X4777668D1*
X5064805D2*
X5476165D1*
X5763335D2*
X6031038D1*
X6224454D2*
X6580442D1*
X6691041D2*
X7000168D1*
X7287305D2*
X7698665D1*
X7985835D2*
X8253538D1*
X8446954D2*
X8802942D1*
X8913541D2*
X9222668D1*
X9509805D2*
X10202498D1*
X84517Y-739667D2*
X1107249D1*
X1305757D2*
X1617791D1*
X1811207D2*
X2631321D1*
X2829693D2*
X3298030D1*
X3496470D2*
X3808538D1*
X4001954D2*
X4822034D1*
X5020474D2*
X5520530D1*
X5718970D2*
X6031038D1*
X6224454D2*
X7044534D1*
X7242974D2*
X7743030D1*
X7941470D2*
X8253538D1*
X8446954D2*
X9267034D1*
X9465474D2*
X10202498D1*
X84517Y-774333D2*
X1617791D1*
X1811207D2*
X3808538D1*
X4001954D2*
X6031038D1*
X6224454D2*
X8253538D1*
X8446954D2*
X10202498D1*
X84517Y-809000D2*
X1617791D1*
X1811207D2*
X3808538D1*
X4001954D2*
X6031038D1*
X6224454D2*
X8253538D1*
X8446954D2*
X10202498D1*
X84517Y-843667D2*
X1617791D1*
X1811207D2*
X3808538D1*
X4001954D2*
X6031038D1*
X6224454D2*
X8253538D1*
X8446954D2*
X10202498D1*
X84517Y-878333D2*
X1617791D1*
X1811207D2*
X3808538D1*
X4001954D2*
X6031038D1*
X6224454D2*
X8253538D1*
X8446954D2*
X10202498D1*
X84517Y-913000D2*
X1617791D1*
X1811207D2*
X3808538D1*
X4001954D2*
X6031038D1*
X6224454D2*
X8253538D1*
X8446954D2*
X10202498D1*
X84517Y-947667D2*
X1617791D1*
X1811207D2*
X3808538D1*
X4001954D2*
X6031038D1*
X6224454D2*
X8253538D1*
X8446954D2*
X10202498D1*
X84517Y-982333D2*
X1617791D1*
X1811207D2*
X3808538D1*
X4001954D2*
X6031038D1*
X6224454D2*
X8253538D1*
X8446954D2*
X10202498D1*
X84517Y-1017000D2*
X1617791D1*
X1811207D2*
X3808538D1*
X4001954D2*
X6031038D1*
X6224454D2*
X8253538D1*
X8446954D2*
X10202498D1*
X84517Y-1051667D2*
X1617791D1*
X1811207D2*
X3808538D1*
X4001954D2*
X6031038D1*
X6224454D2*
X8253538D1*
X8446954D2*
X10202498D1*
X84517Y-1086333D2*
X1142112D1*
X1270894D2*
X1617791D1*
X1811207D2*
X2666116D1*
X2794898D2*
X3332859D1*
X3461641D2*
X3808538D1*
X4001954D2*
X4856863D1*
X4985645D2*
X5555359D1*
X5684141D2*
X6031038D1*
X6224454D2*
X7079363D1*
X7208145D2*
X7777859D1*
X7906641D2*
X8253538D1*
X8446954D2*
X9301863D1*
X9430645D2*
X10202498D1*
X84517Y-1121000D2*
X1079529D1*
X1333443D2*
X1617791D1*
X1811207D2*
X2603533D1*
X2857447D2*
X3270310D1*
X3524190D2*
X3808538D1*
X4001954D2*
X4794280D1*
X5048194D2*
X5492810D1*
X5746690D2*
X6031038D1*
X6224454D2*
X7016780D1*
X7270694D2*
X7715310D1*
X7969190D2*
X8253538D1*
X8446954D2*
X9239280D1*
X9493194D2*
X10202498D1*
X84517Y-1155667D2*
X1046887D1*
X1366119D2*
X1617791D1*
X1811207D2*
X2132776D1*
X2312212D2*
X2570891D1*
X2890123D2*
X3237634D1*
X3556866D2*
X3808538D1*
X4001954D2*
X4323523D1*
X4502959D2*
X4761638D1*
X5080870D2*
X5460134D1*
X5779366D2*
X6031038D1*
X6224454D2*
X6546023D1*
X6725459D2*
X6984138D1*
X7303370D2*
X7682634D1*
X8001866D2*
X8253538D1*
X8446954D2*
X8768523D1*
X8947959D2*
X9206638D1*
X9525870D2*
X10202498D1*
X84517Y-1190333D2*
X1026653D1*
X1386353D2*
X1592019D1*
X1836978D2*
X2099998D1*
X2344991D2*
X2550657D1*
X2910323D2*
X3217400D1*
X3577100D2*
X3782766D1*
X4027759D2*
X4290745D1*
X4535738D2*
X4741404D1*
X5101104D2*
X5439900D1*
X5799600D2*
X6005266D1*
X6250259D2*
X6513245D1*
X6758238D2*
X6963904D1*
X7323604D2*
X7662400D1*
X8022100D2*
X8227766D1*
X8472759D2*
X8735745D1*
X8980738D2*
X9186404D1*
X9546104D2*
X10202498D1*
X84517Y-1225000D2*
X1014792D1*
X1398179D2*
X1575066D1*
X1853931D2*
X2083044D1*
X2361944D2*
X2538796D1*
X2922183D2*
X3205540D1*
X3588960D2*
X3765813D1*
X4044712D2*
X4273792D1*
X4552691D2*
X4729543D1*
X5112930D2*
X5428040D1*
X5811460D2*
X5988313D1*
X6267212D2*
X6496292D1*
X6775191D2*
X6952043D1*
X7335430D2*
X7650540D1*
X8033960D2*
X8210813D1*
X8489712D2*
X8718792D1*
X8997691D2*
X9174543D1*
X9557930D2*
X10202498D1*
X84517Y-1259667D2*
X1009768D1*
X1403238D2*
X1568162D1*
X1860835D2*
X2076174D1*
X2368814D2*
X2533772D1*
X2927208D2*
X3200515D1*
X3593985D2*
X3758909D1*
X4051583D2*
X4266921D1*
X4559561D2*
X4724519D1*
X5117989D2*
X5423015D1*
X5816485D2*
X5981409D1*
X6274083D2*
X6489421D1*
X6782061D2*
X6947019D1*
X7340489D2*
X7645515D1*
X8038985D2*
X8203909D1*
X8496583D2*
X8711921D1*
X9004561D2*
X9169519D1*
X9562989D2*
X10202498D1*
X84517Y-1294333D2*
X1011033D1*
X1401973D2*
X1569871D1*
X1859126D2*
X2077883D1*
X2367105D2*
X2535037D1*
X2925977D2*
X3201780D1*
X3592720D2*
X3760618D1*
X4049874D2*
X4268630D1*
X4557852D2*
X4725784D1*
X5116724D2*
X5424280D1*
X5815220D2*
X5983118D1*
X6272374D2*
X6491130D1*
X6780352D2*
X6948284D1*
X7339224D2*
X7646780D1*
X8037720D2*
X8205618D1*
X8494874D2*
X8713630D1*
X9002852D2*
X9170784D1*
X9561724D2*
X10202498D1*
X84517Y-1329000D2*
X1018723D1*
X1394283D2*
X1580535D1*
X1848497D2*
X2088513D1*
X2356475D2*
X2542727D1*
X2918287D2*
X3209470D1*
X3585030D2*
X3771282D1*
X4039244D2*
X4279260D1*
X4547222D2*
X4733474D1*
X5109034D2*
X5431970D1*
X5807530D2*
X5993782D1*
X6261744D2*
X6501760D1*
X6769722D2*
X6955974D1*
X7331534D2*
X7654470D1*
X8030030D2*
X8216282D1*
X8484244D2*
X8724260D1*
X8992222D2*
X9178474D1*
X9554034D2*
X10202498D1*
X84517Y-1363667D2*
X1033694D1*
X1379312D2*
X1602683D1*
X1826314D2*
X2110696D1*
X2334327D2*
X2557698D1*
X2903316D2*
X3224441D1*
X3570059D2*
X3793430D1*
X4017061D2*
X4301443D1*
X4525074D2*
X4748445D1*
X5094063D2*
X5446941D1*
X5792559D2*
X6015930D1*
X6239561D2*
X6523943D1*
X6747574D2*
X6970945D1*
X7316563D2*
X7669441D1*
X8015059D2*
X8238430D1*
X8462061D2*
X8746443D1*
X8970074D2*
X9193445D1*
X9539063D2*
X10202498D1*
X84517Y-1398333D2*
X1058167D1*
X1354805D2*
X1617791D1*
X1811207D2*
X2155471D1*
X2289551D2*
X2582170D1*
X2878809D2*
X3248914D1*
X3545586D2*
X3808538D1*
X4001954D2*
X4346218D1*
X4480298D2*
X4772917D1*
X5069556D2*
X5471414D1*
X5768086D2*
X6031038D1*
X6224454D2*
X6568718D1*
X6702798D2*
X6995417D1*
X7292056D2*
X7693914D1*
X7990586D2*
X8253538D1*
X8446954D2*
X8791218D1*
X8925298D2*
X9217917D1*
X9514556D2*
X10202498D1*
X84517Y-1433000D2*
X1098738D1*
X1314268D2*
X1617791D1*
X1811207D2*
X2622742D1*
X2838272D2*
X3289485D1*
X3505015D2*
X3808538D1*
X4001954D2*
X4813489D1*
X5029019D2*
X5511985D1*
X5727515D2*
X6031038D1*
X6224454D2*
X7035989D1*
X7251519D2*
X7734485D1*
X7950015D2*
X8253538D1*
X8446954D2*
X9258489D1*
X9474019D2*
X10202498D1*
X84517Y-1467667D2*
X209314D1*
X552710D2*
X1617791D1*
X1811207D2*
X3808538D1*
X4001954D2*
X6031038D1*
X6224454D2*
X8253538D1*
X8446954D2*
X10202498D1*
X84517Y-1502333D2*
X209314D1*
X552710D2*
X1617791D1*
X1811207D2*
X3808538D1*
X4001954D2*
X6031038D1*
X6224454D2*
X8253538D1*
X8446954D2*
X10202498D1*
X84517Y-1537000D2*
X209314D1*
X1811207D2*
X3808538D1*
X4001954D2*
X6031038D1*
X6224454D2*
X8253538D1*
X8446954D2*
X10202498D1*
X84517Y-1571667D2*
X209314D1*
X1811207D2*
X3808538D1*
X4001954D2*
X6031038D1*
X6224454D2*
X8253538D1*
X8446954D2*
X10202498D1*
X84517Y-1606333D2*
X209314D1*
X1811207D2*
X3808538D1*
X4001954D2*
X6031038D1*
X6224454D2*
X8253538D1*
X8446954D2*
X10202498D1*
X84517Y-1641000D2*
X209314D1*
X1811207D2*
X3808538D1*
X4001954D2*
X6031038D1*
X6224454D2*
X8253538D1*
X8446954D2*
X10202498D1*
X84517Y-1675667D2*
X209314D1*
X1811207D2*
X3808538D1*
X4001954D2*
X6031038D1*
X6224454D2*
X8253538D1*
X8446954D2*
X10202498D1*
X84517Y-1710333D2*
X209314D1*
X1811207D2*
X3808538D1*
X4001954D2*
X6031038D1*
X6224454D2*
X8253538D1*
X8446954D2*
X10202498D1*
X84517Y-1745000D2*
X209314D1*
X552710D2*
X1617791D1*
X1811207D2*
X3808538D1*
X4001954D2*
X6031038D1*
X6224454D2*
X8253538D1*
X8446954D2*
X10202498D1*
X84517Y-1779667D2*
X209314D1*
X552710D2*
X1160774D1*
X1252232D2*
X1617791D1*
X1811207D2*
X2684744D1*
X2776236D2*
X3351521D1*
X3442979D2*
X3808538D1*
X4001954D2*
X4875525D1*
X4966983D2*
X5574021D1*
X5665479D2*
X6031038D1*
X6224454D2*
X7098025D1*
X7189483D2*
X7796521D1*
X7887979D2*
X8253538D1*
X8446954D2*
X9320525D1*
X9411983D2*
X10202498D1*
X84517Y-1814333D2*
X219978D1*
X542046D2*
X1086057D1*
X1326949D2*
X1617791D1*
X1811207D2*
X2610061D1*
X2850953D2*
X3276804D1*
X3517696D2*
X3808538D1*
X4001954D2*
X4800808D1*
X5041700D2*
X5499304D1*
X5740196D2*
X6031038D1*
X6224454D2*
X7023308D1*
X7264200D2*
X7721804D1*
X7962696D2*
X8253538D1*
X8446954D2*
X9245808D1*
X9486700D2*
X10202498D1*
X84517Y-1849000D2*
X211057D1*
X550933D2*
X1050818D1*
X1362188D2*
X1617791D1*
X1811207D2*
X2140090D1*
X2304898D2*
X2574822D1*
X2886192D2*
X3241565D1*
X3552935D2*
X3808538D1*
X4001954D2*
X4330837D1*
X4495645D2*
X4765569D1*
X5076939D2*
X5464065D1*
X5775435D2*
X6031038D1*
X6224454D2*
X6553337D1*
X6718145D2*
X6988069D1*
X7299439D2*
X7686565D1*
X7997935D2*
X8253538D1*
X8446954D2*
X8775837D1*
X8940645D2*
X9210569D1*
X9521939D2*
X10202498D1*
X84517Y-1883667D2*
X209622D1*
X552369D2*
X1029080D1*
X1383926D2*
X1595642D1*
X1833355D2*
X2103621D1*
X2341368D2*
X2553083D1*
X2907896D2*
X3219827D1*
X3574673D2*
X3786389D1*
X4024102D2*
X4294368D1*
X4532115D2*
X4743831D1*
X5098677D2*
X5442327D1*
X5797173D2*
X6008889D1*
X6246602D2*
X6516868D1*
X6754615D2*
X6966331D1*
X7321177D2*
X7664827D1*
X8019673D2*
X8231389D1*
X8469102D2*
X8739368D1*
X8977115D2*
X9188831D1*
X9543677D2*
X10202498D1*
X84517Y-1918333D2*
X215466D1*
X546558D2*
X1016125D1*
X1396880D2*
X1576877D1*
X1852120D2*
X2084890D1*
X2360132D2*
X2540129D1*
X2920884D2*
X3206873D1*
X3587627D2*
X3767625D1*
X4042867D2*
X4275637D1*
X4550879D2*
X4730876D1*
X5111631D2*
X5429373D1*
X5810127D2*
X5990125D1*
X6265367D2*
X6498137D1*
X6773379D2*
X6953376D1*
X7334131D2*
X7651873D1*
X8032627D2*
X8212625D1*
X8487867D2*
X8720637D1*
X8995879D2*
X9175876D1*
X9556631D2*
X10202498D1*
X84517Y-1953000D2*
X229412D1*
X532613D2*
X1010110D1*
X1402862D2*
X1568640D1*
X1860357D2*
X2076653D1*
X2368370D2*
X2534114D1*
X2926866D2*
X3200857D1*
X3593643D2*
X3759387D1*
X4051104D2*
X4267400D1*
X4559117D2*
X4724861D1*
X5117613D2*
X5423357D1*
X5816143D2*
X5981887D1*
X6273604D2*
X6489900D1*
X6781617D2*
X6947361D1*
X7340113D2*
X7645857D1*
X8038643D2*
X8204387D1*
X8496104D2*
X8712400D1*
X9004117D2*
X9169861D1*
X9562613D2*
X10202498D1*
X84517Y-1987667D2*
X254226D1*
X507798D2*
X1010452D1*
X1402554D2*
X1569084D1*
X1859913D2*
X2077097D1*
X2367925D2*
X2534456D1*
X2926558D2*
X3201199D1*
X3593301D2*
X3759832D1*
X4050660D2*
X4267844D1*
X4558672D2*
X4725203D1*
X5117305D2*
X5423699D1*
X5815801D2*
X5982332D1*
X6273160D2*
X6490344D1*
X6781172D2*
X6947703D1*
X7339805D2*
X7646199D1*
X8038301D2*
X8204832D1*
X8495660D2*
X8712844D1*
X9003672D2*
X9170203D1*
X9562305D2*
X10202498D1*
X84517Y-2022333D2*
X299617D1*
X462374D2*
X1017151D1*
X1395855D2*
X1578313D1*
X1850684D2*
X2086292D1*
X2358697D2*
X2541155D1*
X2919859D2*
X3207898D1*
X3586602D2*
X3769060D1*
X4041431D2*
X4277039D1*
X4549444D2*
X4731902D1*
X5110606D2*
X5430398D1*
X5809102D2*
X5991560D1*
X6263931D2*
X6499539D1*
X6771944D2*
X6954402D1*
X7333106D2*
X7652898D1*
X8031602D2*
X8214060D1*
X8486431D2*
X8722039D1*
X8994444D2*
X9176902D1*
X9555606D2*
X10202498D1*
X84517Y-2057000D2*
X1030925D1*
X1382081D2*
X1598411D1*
X1830586D2*
X2106423D1*
X2338565D2*
X2554929D1*
X2906084D2*
X3221672D1*
X3572828D2*
X3789158D1*
X4021333D2*
X4297170D1*
X4529312D2*
X4745676D1*
X5096832D2*
X5444172D1*
X5795328D2*
X6011658D1*
X6243833D2*
X6519670D1*
X6751812D2*
X6968176D1*
X7319332D2*
X7666672D1*
X8017828D2*
X8234158D1*
X8466333D2*
X8742170D1*
X8974312D2*
X9190676D1*
X9541832D2*
X10202498D1*
X84517Y-2091667D2*
X1053757D1*
X1359249D2*
X1617791D1*
X1811207D2*
X2145935D1*
X2299053D2*
X2577761D1*
X2883252D2*
X3244504D1*
X3549996D2*
X3808538D1*
X4001954D2*
X4336716D1*
X4489800D2*
X4768508D1*
X5074000D2*
X5467004D1*
X5772496D2*
X6031038D1*
X6224454D2*
X6559216D1*
X6712300D2*
X6991008D1*
X7296500D2*
X7689504D1*
X7994996D2*
X8253538D1*
X8446954D2*
X8781716D1*
X8934800D2*
X9213508D1*
X9519000D2*
X10202498D1*
X84517Y-2126333D2*
X1091047D1*
X1321958D2*
X1617791D1*
X1811207D2*
X2615051D1*
X2845928D2*
X3281794D1*
X3512706D2*
X3808538D1*
X4001954D2*
X4805798D1*
X5036675D2*
X5504294D1*
X5735206D2*
X6031038D1*
X6224454D2*
X7028298D1*
X7259175D2*
X7726794D1*
X7957706D2*
X8253538D1*
X8446954D2*
X9250798D1*
X9481675D2*
X10202498D1*
X84517Y-2161000D2*
X1183367D1*
X1229639D2*
X1617791D1*
X1811207D2*
X2707336D1*
X2753643D2*
X3374114D1*
X3420386D2*
X3808538D1*
X4001954D2*
X4898118D1*
X4944390D2*
X5596614D1*
X5642886D2*
X6031038D1*
X6224454D2*
X7120618D1*
X7166890D2*
X7819114D1*
X7865386D2*
X8253538D1*
X8446954D2*
X9343118D1*
X9389390D2*
X10202498D1*
X84517Y-2195667D2*
X1617791D1*
X1811207D2*
X3808538D1*
X4001954D2*
X6031038D1*
X6224454D2*
X8253538D1*
X8446954D2*
X10202498D1*
X84517Y-2230333D2*
X1617791D1*
X1811207D2*
X3808538D1*
X4001954D2*
X6031038D1*
X6224454D2*
X8253538D1*
X8446954D2*
X10202498D1*
X84517Y-2265000D2*
X1617791D1*
X1811207D2*
X3808538D1*
X4001954D2*
X6031038D1*
X6224454D2*
X8253538D1*
X8446954D2*
X10202498D1*
X84517Y-2299667D2*
X1617791D1*
X1811207D2*
X3808538D1*
X4001954D2*
X6031038D1*
X6224454D2*
X8253538D1*
X8446954D2*
X10202498D1*
X84517Y-2334333D2*
X1617791D1*
X1811207D2*
X3808538D1*
X4001954D2*
X6031038D1*
X6224454D2*
X8253538D1*
X8446954D2*
X10202498D1*
X84517Y-2369000D2*
X1617791D1*
X1811207D2*
X3808538D1*
X4001954D2*
X6031038D1*
X6224454D2*
X8253538D1*
X8446954D2*
X10202498D1*
X84517Y-2403667D2*
X1617791D1*
X1811207D2*
X3808538D1*
X4001954D2*
X6031038D1*
X6224454D2*
X8253538D1*
X8446954D2*
X10202498D1*
X84517Y-2438333D2*
X1617791D1*
X1811207D2*
X3808538D1*
X4001954D2*
X6031038D1*
X6224454D2*
X8253538D1*
X8446954D2*
X10202498D1*
X84517Y-2473000D2*
X1617791D1*
X1811207D2*
X3808538D1*
X4001954D2*
X6031038D1*
X6224454D2*
X8253538D1*
X8446954D2*
X10202498D1*
X84517Y-2507667D2*
X1093201D1*
X1319805D2*
X1617791D1*
X1811207D2*
X2617205D1*
X2843809D2*
X3283948D1*
X3510552D2*
X3808538D1*
X4001954D2*
X4807952D1*
X5034556D2*
X5506448D1*
X5733052D2*
X6031038D1*
X6224454D2*
X7030452D1*
X7257056D2*
X7728948D1*
X7955552D2*
X8253538D1*
X8446954D2*
X9252952D1*
X9479556D2*
X10202498D1*
X84517Y-2542333D2*
X1055022D1*
X1357984D2*
X1617791D1*
X1811207D2*
X2148533D1*
X2296456D2*
X2579026D1*
X2881988D2*
X3245769D1*
X3548731D2*
X3808538D1*
X4001954D2*
X4339280D1*
X4487203D2*
X4769773D1*
X5072735D2*
X5468269D1*
X5771231D2*
X6031038D1*
X6224454D2*
X6561780D1*
X6709703D2*
X6992273D1*
X7295235D2*
X7690769D1*
X7993731D2*
X8253538D1*
X8446954D2*
X8784280D1*
X8932203D2*
X9214773D1*
X9517735D2*
X10202498D1*
X84517Y-2577000D2*
X1031711D1*
X1381294D2*
X1599607D1*
X1829390D2*
X2107620D1*
X2337369D2*
X2555715D1*
X2905298D2*
X3222458D1*
X3572042D2*
X3790354D1*
X4020137D2*
X4298367D1*
X4528150D2*
X4746462D1*
X5096045D2*
X5444958D1*
X5794542D2*
X6012854D1*
X6242637D2*
X6520867D1*
X6750650D2*
X6968962D1*
X7318545D2*
X7667458D1*
X8017042D2*
X8235354D1*
X8465137D2*
X8743367D1*
X8973150D2*
X9191462D1*
X9541045D2*
X10202498D1*
X84517Y-2611667D2*
X1017595D1*
X1395411D2*
X1578928D1*
X1850069D2*
X2086907D1*
X2358082D2*
X2541565D1*
X2919415D2*
X3208342D1*
X3586158D2*
X3769675D1*
X4040816D2*
X4277688D1*
X4548829D2*
X4732346D1*
X5110162D2*
X5430842D1*
X5808658D2*
X5992175D1*
X6263316D2*
X6500188D1*
X6771329D2*
X6954846D1*
X7332662D2*
X7653342D1*
X8031158D2*
X8214675D1*
X8485816D2*
X8722688D1*
X8993829D2*
X9177346D1*
X9555162D2*
X10202498D1*
X84517Y-2646333D2*
X1010623D1*
X1402383D2*
X1569290D1*
X1859708D2*
X2077302D1*
X2367686D2*
X2534592D1*
X2926387D2*
X3201370D1*
X3593130D2*
X3760037D1*
X4050455D2*
X4268049D1*
X4558467D2*
X4725374D1*
X5117134D2*
X5423870D1*
X5815630D2*
X5982537D1*
X6272955D2*
X6490549D1*
X6780967D2*
X6947874D1*
X7339634D2*
X7646370D1*
X8038130D2*
X8205037D1*
X8495455D2*
X8713049D1*
X9003467D2*
X9170374D1*
X9562134D2*
X10202498D1*
X84517Y-2681000D2*
X1010007D1*
X1402999D2*
X1568469D1*
X1860528D2*
X2076482D1*
X2368506D2*
X2534011D1*
X2927002D2*
X3200754D1*
X3593746D2*
X3759250D1*
X4051275D2*
X4267229D1*
X4559253D2*
X4724758D1*
X5117750D2*
X5423254D1*
X5816246D2*
X5981750D1*
X6273775D2*
X6489729D1*
X6781753D2*
X6947258D1*
X7340250D2*
X7645754D1*
X8038746D2*
X8204250D1*
X8496275D2*
X8712229D1*
X9004253D2*
X9169758D1*
X9562750D2*
X10202498D1*
X84517Y-2715667D2*
X1015715D1*
X1397291D2*
X1576331D1*
X1852667D2*
X2084309D1*
X2360679D2*
X2539719D1*
X2921294D2*
X3206462D1*
X3588038D2*
X3767078D1*
X4043414D2*
X4275090D1*
X4551426D2*
X4730466D1*
X5112042D2*
X5428962D1*
X5810538D2*
X5989578D1*
X6265914D2*
X6497590D1*
X6773926D2*
X6952966D1*
X7334542D2*
X7651462D1*
X8033038D2*
X8212078D1*
X8488414D2*
X8720090D1*
X8996426D2*
X9175466D1*
X9557042D2*
X10202498D1*
X84517Y-2750333D2*
X1028362D1*
X1384644D2*
X1594548D1*
X1834449D2*
X2102561D1*
X2342461D2*
X2552366D1*
X2908648D2*
X3219109D1*
X3575391D2*
X3785295D1*
X4025196D2*
X4293308D1*
X4533208D2*
X4743113D1*
X5099395D2*
X5441609D1*
X5797891D2*
X6007795D1*
X6247696D2*
X6515808D1*
X6755708D2*
X6965613D1*
X7321895D2*
X7664109D1*
X8020391D2*
X8230295D1*
X8470196D2*
X8738308D1*
X8978208D2*
X9188113D1*
X9544395D2*
X10202498D1*
X84517Y-2785000D2*
X1049656D1*
X1363350D2*
X1629856D1*
X1799141D2*
X2137869D1*
X2307120D2*
X2573660D1*
X2887354D2*
X3240403D1*
X3554097D2*
X3820603D1*
X3989888D2*
X4328616D1*
X4497867D2*
X4764407D1*
X5078101D2*
X5462903D1*
X5776597D2*
X6043103D1*
X6212388D2*
X6551116D1*
X6720367D2*
X6986907D1*
X7300601D2*
X7685403D1*
X7999097D2*
X8253538D1*
X8446954D2*
X8773616D1*
X8942867D2*
X9209407D1*
X9523101D2*
X10202498D1*
X84517Y-2819667D2*
X1084109D1*
X1328897D2*
X2608113D1*
X2852901D2*
X3274856D1*
X3519644D2*
X4798860D1*
X5043648D2*
X5497356D1*
X5742144D2*
X7021360D1*
X7266148D2*
X7719856D1*
X7964644D2*
X8253538D1*
X8446954D2*
X9243860D1*
X9488648D2*
X10202498D1*
X84517Y-2854333D2*
X1154553D1*
X1258453D2*
X2678523D1*
X2782457D2*
X3345300D1*
X3449200D2*
X4869304D1*
X4973204D2*
X5567800D1*
X5671700D2*
X7091804D1*
X7195704D2*
X7790300D1*
X7894200D2*
X8253538D1*
X8446954D2*
X9314304D1*
X9418204D2*
X10202498D1*
X84517Y-2889000D2*
X8253538D1*
X8446954D2*
X10202498D1*
X84517Y-2923667D2*
X8253538D1*
X8446954D2*
X10202498D1*
X84517Y-2958333D2*
X8253538D1*
X8446954D2*
X10202498D1*
X84517Y-2993000D2*
X8253538D1*
X8446954D2*
X10202498D1*
X84517Y-3027667D2*
X8253538D1*
X8446954D2*
X10202498D1*
X84517Y-3062333D2*
X8253538D1*
X8468145D2*
X10202498D1*
X84517Y-3097000D2*
X8255144D1*
X8502803D2*
X10202498D1*
X84517Y-3131667D2*
X8269363D1*
X9707398D2*
X10202498D1*
X84517Y-3166333D2*
X8301526D1*
X9746875D2*
X10202498D1*
X84517Y-3201000D2*
X8336184D1*
X9781568D2*
X10202498D1*
X84517Y-3235667D2*
X8370876D1*
X9816226D2*
X10202498D1*
X84517Y-3270333D2*
X8405535D1*
X9850782D2*
X10202498D1*
X84517Y-3305000D2*
X8466033D1*
X9871153D2*
X10202498D1*
X84517Y-3339667D2*
X9649607D1*
X9875699D2*
X10202498D1*
X84517Y-3374333D2*
X9682317D1*
X9875699D2*
X10202498D1*
X84517Y-3409000D2*
X9682317D1*
X9875699D2*
X10202498D1*
X84517Y-3443667D2*
X9682317D1*
X9875699D2*
X10202498D1*
X84517Y-3478333D2*
X9682317D1*
X9875699D2*
X10202498D1*
X84517Y-3513000D2*
X9682317D1*
X9875699D2*
X10202498D1*
X84517Y-3547667D2*
X9682317D1*
X9875699D2*
X10202498D1*
X84517Y-3582333D2*
X9682317D1*
X9875699D2*
X10202498D1*
X84517Y-3617000D2*
X8061687D1*
X8194332D2*
X9395173D1*
X9527818D2*
X9682317D1*
X9875699D2*
X10202498D1*
X84517Y-3651667D2*
X8032737D1*
X8223282D2*
X8359221D1*
X9556768D2*
X9682317D1*
X9875699D2*
X10202498D1*
X84517Y-3686333D2*
X8022073D1*
X8233946D2*
X8324529D1*
X9567432D2*
X9682317D1*
X9875699D2*
X10202498D1*
X84517Y-3721000D2*
X7988235D1*
X8232305D2*
X8289871D1*
X9565792D2*
X9682317D1*
X9875699D2*
X10202498D1*
X84517Y-3755667D2*
X7953577D1*
X8217676D2*
X8255212D1*
X9551163D2*
X9682317D1*
X9875699D2*
X10202498D1*
X84517Y-3790333D2*
X2634158D1*
X2763350D2*
X4507410D1*
X4636602D2*
X7918918D1*
X8179327D2*
X8220554D1*
X8455806D2*
X9410178D1*
X9512813D2*
X9682317D1*
X9875699D2*
X10202498D1*
X84517Y-3825000D2*
X2604148D1*
X4666578D2*
X7884260D1*
X8119512D2*
X8185862D1*
X8421114D2*
X8531453D1*
X8613545D2*
X8975959D1*
X9058052D2*
X9682317D1*
X9875699D2*
X10202498D1*
X84517Y-3859667D2*
X2592971D1*
X4677754D2*
X7849568D1*
X8084854D2*
X8151204D1*
X8386456D2*
X8486096D1*
X8658902D2*
X8930603D1*
X9103409D2*
X9682317D1*
X9875699D2*
X10202498D1*
X84517Y-3894333D2*
X2594167D1*
X5980513D2*
X7814910D1*
X8050162D2*
X8116545D1*
X8351797D2*
X8469348D1*
X8675650D2*
X8913855D1*
X9120157D2*
X9682317D1*
X9875699D2*
X10202498D1*
X84517Y-3929000D2*
X668245D1*
X823960D2*
X922234D1*
X1077984D2*
X2608250D1*
X6004234D2*
X7780251D1*
X8015503D2*
X8081887D1*
X8317139D2*
X8446995D1*
X8678897D2*
X8891501D1*
X9123404D2*
X9682317D1*
X9875699D2*
X10202498D1*
X84517Y-3963667D2*
X621008D1*
X1125220D2*
X2645061D1*
X2752447D2*
X3210837D1*
X3266167D2*
X3528811D1*
X6012061D2*
X7745593D1*
X7980845D2*
X8047195D1*
X8282447D2*
X8412336D1*
X8670010D2*
X8856843D1*
X9114517D2*
X9682317D1*
X9875699D2*
X10202498D1*
X84517Y-3998333D2*
X595510D1*
X1150718D2*
X3155398D1*
X6007857D2*
X7710901D1*
X7946187D2*
X8012537D1*
X8247789D2*
X8377678D1*
X8644478D2*
X8822151D1*
X9088985D2*
X9682317D1*
X9875699D2*
X10202498D1*
X84517Y-4033000D2*
X581086D1*
X1165142D2*
X3136565D1*
X5989776D2*
X7676243D1*
X7911495D2*
X7977878D1*
X8213130D2*
X8342986D1*
X8578238D2*
X8787493D1*
X9022745D2*
X9682317D1*
X9875699D2*
X10202498D1*
X84517Y-4067667D2*
X574866D1*
X1171363D2*
X3131848D1*
X5123150D2*
X5872581D1*
X5938438D2*
X7641584D1*
X7876836D2*
X7943220D1*
X8178472D2*
X8308328D1*
X8543580D2*
X8752834D1*
X8988086D2*
X9682317D1*
X9875699D2*
X10202498D1*
X84517Y-4102333D2*
X575925D1*
X1170303D2*
X3139197D1*
X7842178D2*
X7908528D1*
X8143780D2*
X8273669D1*
X8508921D2*
X8718176D1*
X8953428D2*
X9682317D1*
X9875699D2*
X10202498D1*
X84517Y-4137000D2*
X584402D1*
X1161792D2*
X3162063D1*
X7807520D2*
X7873870D1*
X8109122D2*
X8239011D1*
X8474263D2*
X8683484D1*
X8918736D2*
X9682317D1*
X9875699D2*
X10202498D1*
X84517Y-4171667D2*
X601663D1*
X1144532D2*
X3030574D1*
X3160689D2*
X3291296D1*
X7772828D2*
X7839211D1*
X8074463D2*
X8204319D1*
X8439571D2*
X8648826D1*
X8884078D2*
X9682317D1*
X9875699D2*
X10202498D1*
X84517Y-4206333D2*
X631707D1*
X1114488D2*
X3000837D1*
X7738169D2*
X7804553D1*
X8039805D2*
X8169661D1*
X8404913D2*
X8614167D1*
X8849419D2*
X9682317D1*
X9875699D2*
X10202498D1*
X84517Y-4241000D2*
X602380D1*
X1143848D2*
X2989797D1*
X7344830D2*
X7769861D1*
X8005113D2*
X8135002D1*
X8370254D2*
X8579509D1*
X8814761D2*
X9682317D1*
X9875699D2*
X10202498D1*
X84517Y-4275667D2*
X584812D1*
X1161417D2*
X2798015D1*
X7970455D2*
X8100344D1*
X8335596D2*
X8544817D1*
X8780069D2*
X9682317D1*
X9875699D2*
X10202498D1*
X84517Y-4310333D2*
X576062D1*
X1170167D2*
X2774500D1*
X7935796D2*
X8065652D1*
X8300904D2*
X8510159D1*
X8745411D2*
X9682317D1*
X9875699D2*
X10202498D1*
X84517Y-4345000D2*
X574797D1*
X1171431D2*
X2766775D1*
X7901138D2*
X8030994D1*
X8266246D2*
X8475500D1*
X8710752D2*
X9682317D1*
X9875699D2*
X10202498D1*
X84517Y-4379667D2*
X580779D1*
X1165450D2*
X2314065D1*
X2448418D2*
X2771116D1*
X7866446D2*
X7996335D1*
X8231587D2*
X8440842D1*
X8676094D2*
X9682317D1*
X9875699D2*
X10202498D1*
X84517Y-4414333D2*
X594895D1*
X1151333D2*
X2285627D1*
X2476856D2*
X2789368D1*
X7830625D2*
X7961677D1*
X8196929D2*
X8406150D1*
X8641402D2*
X9682317D1*
X9875699D2*
X10202498D1*
X84517Y-4449000D2*
X619983D1*
X1126246D2*
X2275237D1*
X2487281D2*
X2841594D1*
X2905162D2*
X3320657D1*
X3817657D2*
X3989109D1*
X7186885D2*
X7926985D1*
X8162271D2*
X8371492D1*
X8606744D2*
X9682317D1*
X9875699D2*
X10202498D1*
X84517Y-4483667D2*
X610583D1*
X1135645D2*
X2277083D1*
X2485401D2*
X3316418D1*
X3821211D2*
X3996560D1*
X7179434D2*
X7892327D1*
X8127579D2*
X8336833D1*
X8572085D2*
X9682317D1*
X9875699D2*
X10202498D1*
X84517Y-4518333D2*
X589460D1*
X1156768D2*
X2119890D1*
X2166368D2*
X2292019D1*
X2476958D2*
X3192961D1*
X3836456D2*
X4019631D1*
X7156363D2*
X7365618D1*
X7525127D2*
X7857668D1*
X8092920D2*
X8302175D1*
X8537427D2*
X9682317D1*
X9875699D2*
X10202498D1*
X84517Y-4553000D2*
X578079D1*
X1168184D2*
X2060828D1*
X2225430D2*
X2298069D1*
X3836456D2*
X4072473D1*
X5722388D2*
X7344734D1*
X7546011D2*
X7823010D1*
X8058262D2*
X8267483D1*
X8502735D2*
X9682317D1*
X9875699D2*
X10202498D1*
X84517Y-4587667D2*
X574421D1*
X1171807D2*
X2041482D1*
X2244742D2*
X2312458D1*
X3836456D2*
X4053025D1*
X5704751D2*
X7327952D1*
X7552061D2*
X7788318D1*
X8023604D2*
X8232825D1*
X8468077D2*
X9682317D1*
X9875699D2*
X10202498D1*
X84517Y-4622333D2*
X577976D1*
X1168252D2*
X2036458D1*
X2249800D2*
X2345715D1*
X3836456D2*
X4008865D1*
X7546148D2*
X7753660D1*
X7988912D2*
X8198167D1*
X8433418D2*
X9682317D1*
X9875699D2*
X10202498D1*
X84517Y-4657000D2*
X589290D1*
X1156973D2*
X1988059D1*
X2242828D2*
X2380374D1*
X3836456D2*
X3992424D1*
X7525503D2*
X7719001D1*
X7954253D2*
X8163508D1*
X8398760D2*
X9682317D1*
X9875699D2*
X10202498D1*
X84517Y-4691667D2*
X610276D1*
X1135987D2*
X1964749D1*
X2227310D2*
X3175837D1*
X3836456D2*
X3989417D1*
X7523931D2*
X7684343D1*
X7919595D2*
X8128816D1*
X8364068D2*
X9682317D1*
X9875699D2*
X10202498D1*
X84517Y-4726333D2*
X620393D1*
X1125870D2*
X1957161D1*
X2227310D2*
X3154202D1*
X3836456D2*
X3998542D1*
X7545533D2*
X7649651D1*
X7884937D2*
X8094158D1*
X8329410D2*
X9682317D1*
X9875699D2*
X10202498D1*
X84517Y-4761000D2*
X595168D1*
X1151128D2*
X1961570D1*
X2227310D2*
X3147673D1*
X3836456D2*
X4024519D1*
X7552061D2*
X7614993D1*
X7850245D2*
X8059500D1*
X8294751D2*
X9682317D1*
X9875699D2*
X10202498D1*
X84517Y-4795667D2*
X580916D1*
X1165347D2*
X1979548D1*
X2227310D2*
X3153142D1*
X3836456D2*
X3999978D1*
X7815586D2*
X8024841D1*
X8260093D2*
X9682317D1*
X9875699D2*
X10202498D1*
X84517Y-4830333D2*
X574832D1*
X1171431D2*
X1979548D1*
X2227310D2*
X3170164D1*
X3836456D2*
X3989690D1*
X7780928D2*
X7990149D1*
X8225401D2*
X9682317D1*
X9875699D2*
X10202498D1*
X84517Y-4865000D2*
X576028D1*
X1170235D2*
X1979548D1*
X2227310D2*
X3170164D1*
X3836456D2*
X3991672D1*
X7746270D2*
X7955491D1*
X8190743D2*
X9682317D1*
X9875699D2*
X10202498D1*
X84517Y-4899667D2*
X584675D1*
X1161587D2*
X1979548D1*
X2227310D2*
X2911970D1*
X2961763D2*
X3170164D1*
X3836456D2*
X4006746D1*
X7711578D2*
X7920833D1*
X8156084D2*
X9682317D1*
X9875699D2*
X10202498D1*
X84517Y-4934333D2*
X602107D1*
X1171841D2*
X1979548D1*
X2227310D2*
X2854275D1*
X3019458D2*
X3171257D1*
X3500093D2*
X4046394D1*
X6860435D2*
X7886174D1*
X8121426D2*
X9682317D1*
X9875699D2*
X10202498D1*
X84517Y-4969000D2*
X632219D1*
X1171841D2*
X1979548D1*
X2227310D2*
X2835134D1*
X3038599D2*
X3185818D1*
X3456036D2*
X3771624D1*
X6889625D2*
X7851482D1*
X8086734D2*
X9682317D1*
X9875699D2*
X10202498D1*
X84517Y-5003667D2*
X601970D1*
X1171841D2*
X1979548D1*
X2227310D2*
X2830212D1*
X3043521D2*
X3219177D1*
X3454429D2*
X3736965D1*
X6900391D2*
X7816824D1*
X8052076D2*
X9682317D1*
X9875699D2*
X10202498D1*
X84517Y-5038333D2*
X584573D1*
X1171841D2*
X1979548D1*
X2227310D2*
X2837322D1*
X3036446D2*
X3253835D1*
X8017417D2*
X9682317D1*
X9875699D2*
X10202498D1*
X84517Y-5073000D2*
X575994D1*
X1171841D2*
X1979548D1*
X2227310D2*
X2852668D1*
X3021065D2*
X3288494D1*
X7982759D2*
X9682317D1*
X9875699D2*
X10202498D1*
X84517Y-5107667D2*
X574866D1*
X1171841D2*
X1979548D1*
X2227310D2*
X2852668D1*
X7948067D2*
X9682317D1*
X9875699D2*
X10202498D1*
X84517Y-5142333D2*
X580984D1*
X1171841D2*
X1979548D1*
X2227823D2*
X2855232D1*
X7913409D2*
X9682317D1*
X9875699D2*
X10202498D1*
X84517Y-5177000D2*
X595305D1*
X1171841D2*
X1979548D1*
X2262515D2*
X2874133D1*
X7877349D2*
X9682317D1*
X9875699D2*
X10202498D1*
X84517Y-5211667D2*
X620632D1*
X1171841D2*
X1979548D1*
X5002461D2*
X9682317D1*
X9875699D2*
X10202498D1*
X84517Y-5246333D2*
X667458D1*
X1171841D2*
X1983035D1*
X4967803D2*
X5764744D1*
X5919263D2*
X6018733D1*
X6173252D2*
X6272756D1*
X6427242D2*
X6526746D1*
X6681265D2*
X6780735D1*
X6935254D2*
X9682317D1*
X9875699D2*
X10202498D1*
X84517Y-5281000D2*
X2004260D1*
X4933111D2*
X5717166D1*
X6982833D2*
X9682317D1*
X9875699D2*
X10202498D1*
X84517Y-5315667D2*
X2038918D1*
X4898453D2*
X5691565D1*
X7008467D2*
X9682317D1*
X9875699D2*
X10202498D1*
X84517Y-5350333D2*
X2073577D1*
X4863794D2*
X5677039D1*
X7022959D2*
X9659109D1*
X9875699D2*
X10202498D1*
X84517Y-5385000D2*
X2108235D1*
X4829136D2*
X5670750D1*
X7029249D2*
X9624451D1*
X9873682D2*
X10202498D1*
X84517Y-5419667D2*
X2142927D1*
X4794444D2*
X5671775D1*
X7028223D2*
X9589792D1*
X9858506D2*
X10202498D1*
X84517Y-5454333D2*
X3132019D1*
X4753394D2*
X5680183D1*
X7019815D2*
X8348044D1*
X8415987D2*
X8602034D1*
X8669976D2*
X8856023D1*
X8923965D2*
X8972302D1*
X9315699D2*
X9555100D1*
X9825728D2*
X10202498D1*
X84517Y-5489000D2*
X3135676D1*
X3486900D2*
X5670305D1*
X7002623D2*
X8272678D1*
X8491319D2*
X8526702D1*
X8745308D2*
X8780691D1*
X9315699D2*
X9520442D1*
X9791070D2*
X10202498D1*
X84517Y-5523667D2*
X3153005D1*
X3451592D2*
X5670305D1*
X6972750D2*
X8240447D1*
X9315699D2*
X9485784D1*
X9756377D2*
X10202498D1*
X84517Y-5558333D2*
X3200686D1*
X3276285D2*
X5670305D1*
X7001529D2*
X8221921D1*
X9721719D2*
X10202498D1*
X84517Y-5593000D2*
X1624900D1*
X1645264D2*
X5670305D1*
X7019200D2*
X8212454D1*
X9687061D2*
X10202498D1*
X84517Y-5627667D2*
X1502024D1*
X1723946D2*
X5670305D1*
X7028018D2*
X8210471D1*
X9652403D2*
X10202498D1*
X84517Y-5662333D2*
X229104D1*
X405909D2*
X1471365D1*
X1777369D2*
X5670305D1*
X7029351D2*
X8215769D1*
X9617710D2*
X9881106D1*
X10057876D2*
X10202498D1*
X84517Y-5697000D2*
X148884D1*
X486128D2*
X1456565D1*
X1803550D2*
X3429553D1*
X3606255D2*
X3912136D1*
X4088838D2*
X5670305D1*
X7023438D2*
X8229099D1*
X9580625D2*
X9800886D1*
X10138130D2*
X10202498D1*
X84517Y-5731667D2*
X102058D1*
X532955D2*
X1443064D1*
X1826485D2*
X3401492D1*
X3634317D2*
X3884075D1*
X4116900D2*
X5670305D1*
X7009356D2*
X8252922D1*
X9315699D2*
X9754060D1*
X10184957D2*
X10202498D1*
X566314Y-5766333D2*
X1438860D1*
X1835542D2*
X3388333D1*
X3647476D2*
X3870916D1*
X4130093D2*
X5670305D1*
X6984405D2*
X8296023D1*
X8467974D2*
X8550012D1*
X8721998D2*
X8804001D1*
X9315699D2*
X9720701D1*
X591231Y-5801000D2*
X1445525D1*
X1834073D2*
X3385393D1*
X3650381D2*
X3868010D1*
X4132999D2*
X5670305D1*
X6938570D2*
X9062297D1*
X9225704D2*
X9695750D1*
X609927Y-5835667D2*
X1465452D1*
X1821460D2*
X3392024D1*
X3643785D2*
X3874607D1*
X4126368D2*
X5926311D1*
X9225704D2*
X9677087D1*
X623531Y-5870333D2*
X1487292D1*
X1792442D2*
X3409934D1*
X3625875D2*
X3892551D1*
X4108458D2*
X5926311D1*
X9225362D2*
X9663484D1*
X632691Y-5905000D2*
X1514294D1*
X1767491D2*
X3447737D1*
X3588072D2*
X3930320D1*
X4070655D2*
X5926311D1*
X9213501D2*
X9654290D1*
X637852Y-5939667D2*
X1554729D1*
X1732491D2*
X5926311D1*
X9181509D2*
X9649163D1*
X639151Y-5974333D2*
X1620149D1*
X1650220D2*
X5926311D1*
X9142168D2*
X9647830D1*
X636690Y-6009000D2*
X5926311D1*
X6773687D2*
X9650325D1*
X630333Y-6043667D2*
X9656682D1*
X619839Y-6078333D2*
X9667175D1*
X604766Y-6113000D2*
X9682249D1*
X584292Y-6147667D2*
X9702688D1*
X557085Y-6182333D2*
X9729895D1*
X6730922Y-5761677D2*
X6729073Y-5763963D1*
X6716632Y-5776421D1*
X6703211Y-5787304D1*
X6758769Y-5787300D1*
X6745537Y-5776573D1*
X6733079Y-5764132D1*
X6731098Y-5761689D1*
X1144804Y-4927670D2*
X1168341D1*
Y-5264070D1*
X831941D1*
Y-5240537D1*
X830339Y-5241486D1*
X814657Y-5249490D1*
X798225Y-5255810D1*
X781222Y-5260378D1*
X763835Y-5263144D1*
X746254Y-5264077D1*
X728672Y-5263168D1*
X711281Y-5260426D1*
X694272Y-5255880D1*
X677831Y-5249582D1*
X662139Y-5241600D1*
X647367Y-5232021D1*
X633677Y-5220951D1*
X621219Y-5208510D1*
X610130Y-5194835D1*
X600532Y-5180076D1*
X592528Y-5164395D1*
X586208Y-5147962D1*
X581639Y-5130960D1*
X578873Y-5113572D1*
X577940Y-5095991D1*
X578850Y-5078409D1*
X581592Y-5061018D1*
X586137Y-5044009D1*
X592436Y-5027568D1*
X600418Y-5011876D1*
X609997Y-4997104D1*
X621067Y-4983414D1*
X633508Y-4970957D1*
X635952Y-4968975D1*
X633669Y-4966951D1*
X621211Y-4954510D1*
X610122Y-4940835D1*
X600523Y-4926076D1*
X592520Y-4910395D1*
X586199Y-4893962D1*
X581631Y-4876960D1*
X578865Y-4859572D1*
X577932Y-4841991D1*
X578841Y-4824409D1*
X581584Y-4807018D1*
X586129Y-4790009D1*
X592427Y-4773568D1*
X600409Y-4757876D1*
X609988Y-4743104D1*
X621059Y-4729414D1*
X633499Y-4716957D1*
X635943Y-4714975D1*
X633660Y-4712951D1*
X621203Y-4700510D1*
X610114Y-4686835D1*
X600515Y-4672076D1*
X592511Y-4656395D1*
X586191Y-4639962D1*
X581623Y-4622960D1*
X578857Y-4605572D1*
X577923Y-4587991D1*
X578833Y-4570409D1*
X581575Y-4553018D1*
X586120Y-4536009D1*
X592419Y-4519568D1*
X600401Y-4503876D1*
X609980Y-4489104D1*
X621050Y-4475414D1*
X633491Y-4462957D1*
X635935Y-4460975D1*
X633652Y-4458951D1*
X621194Y-4446510D1*
X610105Y-4432835D1*
X600506Y-4418076D1*
X592503Y-4402395D1*
X586182Y-4385962D1*
X581614Y-4368960D1*
X578848Y-4351572D1*
X577915Y-4333991D1*
X578824Y-4316409D1*
X581567Y-4299018D1*
X586112Y-4282009D1*
X592410Y-4265568D1*
X600393Y-4249876D1*
X609971Y-4235104D1*
X621042Y-4221414D1*
X633483Y-4208957D1*
X635926Y-4206975D1*
X633643Y-4204951D1*
X621186Y-4192510D1*
X610097Y-4178835D1*
X600498Y-4164076D1*
X592495Y-4148395D1*
X586174Y-4131962D1*
X581606Y-4114960D1*
X578840Y-4097572D1*
X577907Y-4079991D1*
X578816Y-4062409D1*
X581558Y-4045018D1*
X586104Y-4028009D1*
X592402Y-4011568D1*
X600384Y-3995876D1*
X609963Y-3981104D1*
X621033Y-3967414D1*
X633474Y-3954957D1*
X647149Y-3943868D1*
X661908Y-3934269D1*
X677589Y-3926266D1*
X694022Y-3919945D1*
X711024Y-3915377D1*
X728412Y-3912611D1*
X745993Y-3911678D1*
X763575Y-3912587D1*
X780966Y-3915329D1*
X797975Y-3919875D1*
X814416Y-3926173D1*
X830108Y-3934155D1*
X844880Y-3943734D1*
X858570Y-3954804D1*
X871027Y-3967245D1*
X873009Y-3969689D1*
X876615Y-3965672D1*
X880652Y-3961455D1*
X884834Y-3957380D1*
X889155Y-3953453D1*
X893609Y-3949679D1*
X898192Y-3946061D1*
X902897Y-3942605D1*
X907720Y-3939313D1*
X912654Y-3936192D1*
X917693Y-3933243D1*
X922831Y-3930471D1*
X928063Y-3927879D1*
X933382Y-3925470D1*
X938780Y-3923247D1*
X944253Y-3921213D1*
X949793Y-3919370D1*
X955394Y-3917721D1*
X961049Y-3916267D1*
X966750Y-3915010D1*
X972492Y-3913951D1*
X978267Y-3913093D1*
X984069Y-3912435D1*
X989889Y-3911980D1*
X995722Y-3911726D1*
X1001561Y-3911675D1*
X1007397Y-3911827D1*
X1013225Y-3912181D1*
X1019037Y-3912738D1*
X1024826Y-3913496D1*
X1030586Y-3914454D1*
X1036308Y-3915611D1*
X1041987Y-3916967D1*
X1047616Y-3918518D1*
X1053187Y-3920264D1*
X1058695Y-3922203D1*
X1064131Y-3924331D1*
X1069491Y-3926647D1*
X1074767Y-3929147D1*
X1079953Y-3931829D1*
X1085043Y-3934690D1*
X1090031Y-3937725D1*
X1094910Y-3940932D1*
X1099675Y-3944306D1*
X1104320Y-3947843D1*
X1108839Y-3951540D1*
X1113228Y-3955391D1*
X1117480Y-3959392D1*
X1121590Y-3963538D1*
X1125555Y-3967824D1*
X1129368Y-3972246D1*
X1133025Y-3976797D1*
X1136522Y-3981472D1*
X1139855Y-3986266D1*
X1143020Y-3991173D1*
X1146012Y-3996186D1*
X1148828Y-4001300D1*
X1151466Y-4006509D1*
X1153921Y-4011807D1*
X1156190Y-4017186D1*
X1158272Y-4022641D1*
X1160163Y-4028165D1*
X1161861Y-4033751D1*
X1163364Y-4039393D1*
X1164670Y-4045083D1*
X1165778Y-4050816D1*
X1166687Y-4056583D1*
X1167395Y-4062379D1*
X1167901Y-4068195D1*
X1168205Y-4074026D1*
X1168307Y-4079869D1*
X1168205Y-4085701D1*
X1167902Y-4091532D1*
X1167396Y-4097349D1*
X1166688Y-4103144D1*
X1165780Y-4108912D1*
X1164672Y-4114644D1*
X1163366Y-4120335D1*
X1161864Y-4125977D1*
X1160166Y-4131563D1*
X1158275Y-4137087D1*
X1156194Y-4142542D1*
X1153925Y-4147921D1*
X1151470Y-4153219D1*
X1148834Y-4158428D1*
X1146017Y-4163543D1*
X1143025Y-4168556D1*
X1139861Y-4173463D1*
X1136529Y-4178257D1*
X1133032Y-4182933D1*
X1129375Y-4187484D1*
X1125562Y-4191906D1*
X1121598Y-4196192D1*
X1117488Y-4200339D1*
X1113236Y-4204340D1*
X1110377Y-4206849D1*
X1112578Y-4208796D1*
X1125036Y-4221237D1*
X1136125Y-4234912D1*
X1145723Y-4249671D1*
X1153727Y-4265352D1*
X1160047Y-4281784D1*
X1164616Y-4298787D1*
X1167382Y-4316174D1*
X1168315Y-4333869D1*
X1167405Y-4351338D1*
X1164663Y-4368728D1*
X1160118Y-4385737D1*
X1153820Y-4402178D1*
X1145837Y-4417871D1*
X1136258Y-4432642D1*
X1125188Y-4446332D1*
X1112747Y-4458790D1*
X1110303Y-4460772D1*
X1112586Y-4462796D1*
X1125044Y-4475237D1*
X1136133Y-4488912D1*
X1145732Y-4503671D1*
X1153735Y-4519352D1*
X1160056Y-4535784D1*
X1164624Y-4552787D1*
X1167390Y-4570174D1*
X1168323Y-4587869D1*
X1167414Y-4605338D1*
X1164671Y-4622728D1*
X1160126Y-4639737D1*
X1153828Y-4656178D1*
X1145846Y-4671871D1*
X1136267Y-4686642D1*
X1125196Y-4700332D1*
X1112756Y-4712790D1*
X1110312Y-4714772D1*
X1112595Y-4716796D1*
X1125052Y-4729237D1*
X1136141Y-4742912D1*
X1145740Y-4757671D1*
X1153744Y-4773352D1*
X1160064Y-4789784D1*
X1164632Y-4806787D1*
X1167398Y-4824174D1*
X1168332Y-4841869D1*
X1167422Y-4859338D1*
X1164680Y-4876728D1*
X1160135Y-4893737D1*
X1153836Y-4910178D1*
X1145854Y-4925871D1*
X1144685Y-4927674D1*
X10205996Y-530386D2*
X10202092Y-534645D1*
X10198076Y-538869D1*
X10193982Y-543019D1*
X10189814Y-547093D1*
X10185571Y-551090D1*
X10181256Y-555009D1*
X10176870Y-558848D1*
X10172415Y-562606D1*
X10167891Y-566282D1*
X10163301Y-569874D1*
X10158645Y-573381D1*
X10153927Y-576803D1*
X10149146Y-580138D1*
X10144305Y-583384D1*
X10139405Y-586542D1*
X10134449Y-589609D1*
X10129437Y-592584D1*
X10124371Y-595468D1*
X10119253Y-598258D1*
X10114086Y-600954D1*
X10108869Y-603555D1*
X10103606Y-606060D1*
X10098298Y-608468D1*
X10092947Y-610778D1*
X10087554Y-612990D1*
X10082121Y-615103D1*
X10076651Y-617116D1*
X10071145Y-619029D1*
X10065605Y-620840D1*
X10060032Y-622549D1*
X10054430Y-624157D1*
X10048798Y-625661D1*
X10043140Y-627062D1*
X10037458Y-628359D1*
X10031752Y-629551D1*
X10026026Y-630639D1*
X10020280Y-631622D1*
X10014518Y-632499D1*
X10008740Y-633271D1*
X10002950Y-633937D1*
X9997148Y-634497D1*
X9991337Y-634950D1*
X9985518Y-635297D1*
X9979694Y-635537D1*
X9973867Y-635670D1*
X9968038Y-635697D1*
X9962210Y-635616D1*
X9956384Y-635430D1*
X9950563Y-635136D1*
X9944748Y-634736D1*
X9938941Y-634229D1*
X9933145Y-633616D1*
X9927360Y-632897D1*
X9921590Y-632073D1*
X9915836Y-631142D1*
X9910100Y-630107D1*
X9904384Y-628966D1*
X9898690Y-627721D1*
X9893019Y-626372D1*
X9887374Y-624919D1*
X9881757Y-623363D1*
X9876169Y-621705D1*
X9870612Y-619944D1*
X9865089Y-618082D1*
X9859601Y-616119D1*
X9854149Y-614056D1*
X9848736Y-611893D1*
X9843364Y-609632D1*
X9838034Y-607272D1*
X9832749Y-604816D1*
X9827509Y-602263D1*
X9822316Y-599614D1*
X9817174Y-596871D1*
X9812082Y-594033D1*
X9807043Y-591104D1*
X9802058Y-588082D1*
X9797130Y-584969D1*
X9792260Y-581767D1*
X9787449Y-578476D1*
X9782699Y-575098D1*
X9778012Y-571633D1*
X9773389Y-568083D1*
X9768832Y-564448D1*
X9764342Y-560731D1*
X9759921Y-556933D1*
X9755571Y-553053D1*
X9751292Y-549095D1*
X9747086Y-545060D1*
X9742955Y-540947D1*
X9738900Y-536760D1*
X9734923Y-532499D1*
X9731024Y-528166D1*
X9727205Y-523763D1*
X9723467Y-519290D1*
X9719813Y-514750D1*
X9716241Y-510143D1*
X9712755Y-505472D1*
X9709355Y-500737D1*
X9706042Y-495941D1*
X9702818Y-491085D1*
X9699683Y-486171D1*
X9696639Y-481201D1*
X9693686Y-476175D1*
X9690826Y-471097D1*
X9688059Y-465966D1*
X9685387Y-460786D1*
X9682810Y-455558D1*
X9680329Y-450283D1*
X9677945Y-444964D1*
X9675659Y-439602D1*
X9673472Y-434199D1*
X9671384Y-428757D1*
X9669396Y-423278D1*
X9667509Y-417763D1*
X9665723Y-412215D1*
X9664039Y-406634D1*
X9662458Y-401024D1*
X9660979Y-395386D1*
X9659604Y-389722D1*
X9658334Y-384033D1*
X9657167Y-378322D1*
X9656105Y-372591D1*
X9655149Y-366841D1*
X9654298Y-361075D1*
X9653552Y-355294D1*
X9652913Y-349500D1*
X9652380Y-343696D1*
X9651953Y-337883D1*
X9651633Y-332063D1*
X9651420Y-326238D1*
X9651313Y-320410D1*
Y-314581D1*
X9651420Y-308753D1*
X9651634Y-302928D1*
X9651954Y-297108D1*
X9652381Y-291295D1*
X9652914Y-285491D1*
X9653553Y-279697D1*
X9654299Y-273916D1*
X9655150Y-268150D1*
X9656107Y-262400D1*
X9657169Y-256669D1*
X9658335Y-250958D1*
X9659606Y-245270D1*
X9660982Y-239605D1*
X9662460Y-233967D1*
X9664042Y-228357D1*
X9665726Y-222777D1*
X9667512Y-217228D1*
X9669399Y-211714D1*
X9671387Y-206234D1*
X9673475Y-200792D1*
X9675663Y-195390D1*
X9677949Y-190028D1*
X9680333Y-184709D1*
X9682814Y-179434D1*
X9685391Y-174206D1*
X9688063Y-169026D1*
X9690830Y-163896D1*
X9693690Y-158817D1*
X9696643Y-153792D1*
X9699688Y-148821D1*
X9702823Y-143907D1*
X9706047Y-139051D1*
X9709360Y-134256D1*
X9712760Y-129521D1*
X9716247Y-124850D1*
X9719818Y-120243D1*
X9723473Y-115703D1*
X9727211Y-111230D1*
X9731030Y-106827D1*
X9734929Y-102494D1*
X9738906Y-98233D1*
X9742961Y-94046D1*
X9747093Y-89934D1*
X9751298Y-85899D1*
X9756635Y-80997D1*
X530372Y-81000D1*
X533578Y-83916D1*
X537820Y-87913D1*
X541989Y-91987D1*
X546082Y-96137D1*
X550098Y-100361D1*
X554037Y-104658D1*
X557896Y-109027D1*
X561674Y-113465D1*
X565370Y-117972D1*
X568984Y-122546D1*
X572512Y-127185D1*
X575956Y-131888D1*
X579312Y-136653D1*
X582581Y-141479D1*
X585761Y-146364D1*
X588850Y-151307D1*
X591849Y-156305D1*
X594756Y-161358D1*
X597569Y-166462D1*
X600289Y-171618D1*
X602914Y-176822D1*
X605443Y-182074D1*
X607875Y-187371D1*
X610210Y-192712D1*
X612447Y-198094D1*
X614584Y-203517D1*
X616622Y-208978D1*
X618560Y-214475D1*
X620397Y-220007D1*
X622132Y-225572D1*
X623764Y-231167D1*
X625294Y-236791D1*
X626721Y-242443D1*
X628044Y-248120D1*
X629263Y-253820D1*
X630377Y-259541D1*
X631386Y-265282D1*
X632290Y-271040D1*
X633088Y-276814D1*
X633780Y-282601D1*
X634367Y-288401D1*
X634847Y-294210D1*
X635220Y-300027D1*
X635487Y-305849D1*
X635647Y-311676D1*
X635700Y-317500D1*
X635647Y-323333D1*
X635486Y-329160D1*
X635219Y-334982D1*
X634846Y-340799D1*
X634366Y-346608D1*
X633779Y-352407D1*
X633087Y-358195D1*
X632289Y-363969D1*
X631385Y-369727D1*
X630375Y-375468D1*
X629261Y-381189D1*
X628042Y-386889D1*
X626719Y-392566D1*
X625292Y-398217D1*
X623762Y-403842D1*
X622129Y-409437D1*
X620394Y-415002D1*
X618557Y-420533D1*
X616619Y-426031D1*
X614581Y-431491D1*
X612443Y-436914D1*
X610206Y-442297D1*
X607871Y-447637D1*
X605439Y-452934D1*
X602910Y-458186D1*
X600285Y-463390D1*
X597565Y-468545D1*
X594751Y-473650D1*
X591845Y-478702D1*
X588846Y-483701D1*
X585756Y-488643D1*
X582576Y-493528D1*
X579307Y-498354D1*
X575951Y-503119D1*
X572507Y-507822D1*
X568978Y-512461D1*
X565365Y-517035D1*
X561668Y-521542D1*
X557890Y-525980D1*
X554031Y-530348D1*
X550092Y-534645D1*
X546076Y-538869D1*
X541982Y-543019D1*
X537814Y-547093D1*
X533571Y-551090D1*
X529256Y-555009D1*
X524870Y-558848D1*
X520415Y-562606D1*
X515891Y-566282D1*
X511301Y-569874D1*
X506645Y-573381D1*
X501927Y-576803D1*
X497146Y-580138D1*
X492305Y-583384D1*
X487405Y-586542D1*
X482449Y-589609D1*
X477437Y-592584D1*
X472371Y-595468D1*
X467253Y-598258D1*
X462086Y-600954D1*
X456869Y-603555D1*
X451606Y-606060D1*
X446298Y-608468D1*
X440947Y-610778D1*
X435554Y-612990D1*
X430121Y-615103D1*
X424651Y-617116D1*
X419145Y-619029D1*
X413605Y-620840D1*
X408032Y-622549D1*
X402430Y-624157D1*
X396798Y-625661D1*
X391140Y-627062D1*
X385458Y-628359D1*
X379752Y-629551D1*
X374026Y-630639D1*
X368280Y-631622D1*
X362518Y-632499D1*
X356740Y-633271D1*
X350950Y-633937D1*
X345148Y-634497D1*
X339337Y-634950D1*
X333518Y-635297D1*
X327694Y-635537D1*
X321867Y-635670D1*
X316038Y-635697D1*
X310210Y-635616D1*
X304384Y-635430D1*
X298563Y-635136D1*
X292748Y-634736D1*
X286941Y-634229D1*
X281145Y-633616D1*
X275360Y-632897D1*
X269590Y-632073D1*
X263836Y-631142D1*
X258100Y-630107D1*
X252384Y-628966D1*
X246690Y-627721D1*
X241019Y-626372D1*
X235374Y-624919D1*
X229757Y-623363D1*
X224169Y-621705D1*
X218612Y-619944D1*
X213089Y-618082D1*
X207601Y-616119D1*
X202149Y-614056D1*
X196736Y-611893D1*
X191364Y-609632D1*
X186034Y-607272D1*
X180749Y-604816D1*
X175509Y-602263D1*
X170316Y-599614D1*
X165174Y-596871D1*
X160082Y-594033D1*
X155043Y-591104D1*
X150058Y-588082D1*
X145130Y-584969D1*
X140260Y-581767D1*
X135449Y-578476D1*
X130699Y-575098D1*
X126012Y-571633D1*
X121389Y-568083D1*
X116832Y-564448D1*
X112342Y-560731D1*
X107921Y-556933D1*
X103571Y-553053D1*
X99292Y-549095D1*
X95086Y-545060D1*
X90955Y-540947D1*
X86900Y-536760D1*
X82923Y-532499D1*
X81000Y-530363D1*
Y-5756108D1*
X86906Y-5749733D1*
X90961Y-5745546D1*
X95093Y-5741434D1*
X99298Y-5737399D1*
X103577Y-5733441D1*
X107928Y-5729562D1*
X112349Y-5725763D1*
X116839Y-5722046D1*
X121396Y-5718412D1*
X126019Y-5714862D1*
X130706Y-5711397D1*
X135456Y-5708019D1*
X140267Y-5704728D1*
X145138Y-5701526D1*
X150066Y-5698413D1*
X155050Y-5695392D1*
X160089Y-5692462D1*
X165181Y-5689625D1*
X170324Y-5686882D1*
X175517Y-5684234D1*
X180757Y-5681681D1*
X186042Y-5679224D1*
X191372Y-5676865D1*
X196745Y-5674603D1*
X202157Y-5672441D1*
X207609Y-5670378D1*
X213097Y-5668415D1*
X218621Y-5666553D1*
X224177Y-5664793D1*
X229765Y-5663134D1*
X235383Y-5661578D1*
X241028Y-5660126D1*
X246698Y-5658777D1*
X252392Y-5657532D1*
X258109Y-5656392D1*
X263845Y-5655356D1*
X269599Y-5654426D1*
X275369Y-5653601D1*
X281153Y-5652883D1*
X286950Y-5652270D1*
X292757Y-5651763D1*
X298572Y-5651363D1*
X304393Y-5651070D1*
X310219Y-5650883D1*
X316047Y-5650803D1*
X321876Y-5650830D1*
X327703Y-5650964D1*
X333527Y-5651204D1*
X339346Y-5651551D1*
X345157Y-5652004D1*
X350959Y-5652564D1*
X356749Y-5653230D1*
X362527Y-5654002D1*
X368289Y-5654879D1*
X374034Y-5655862D1*
X379761Y-5656951D1*
X385466Y-5658143D1*
X391149Y-5659440D1*
X396807Y-5660841D1*
X402438Y-5662346D1*
X408041Y-5663953D1*
X413613Y-5665663D1*
X419154Y-5667474D1*
X424660Y-5669387D1*
X430130Y-5671400D1*
X435562Y-5673513D1*
X440955Y-5675725D1*
X446306Y-5678036D1*
X451614Y-5680444D1*
X456877Y-5682949D1*
X462094Y-5685550D1*
X467261Y-5688246D1*
X472379Y-5691036D1*
X477444Y-5693920D1*
X482456Y-5696896D1*
X487413Y-5699963D1*
X492312Y-5703121D1*
X497153Y-5706367D1*
X501934Y-5709702D1*
X506653Y-5713124D1*
X511308Y-5716632D1*
X515898Y-5720224D1*
X520422Y-5723900D1*
X524877Y-5727658D1*
X529263Y-5731497D1*
X533578Y-5735416D1*
X537820Y-5739413D1*
X541989Y-5743487D1*
X546082Y-5747637D1*
X550098Y-5751861D1*
X554037Y-5756158D1*
X557896Y-5760527D1*
X561674Y-5764965D1*
X565370Y-5769472D1*
X568984Y-5774046D1*
X572512Y-5778685D1*
X575956Y-5783388D1*
X579312Y-5788153D1*
X582581Y-5792979D1*
X585761Y-5797864D1*
X588850Y-5802807D1*
X591849Y-5807805D1*
X594756Y-5812858D1*
X597569Y-5817962D1*
X600289Y-5823118D1*
X602914Y-5828322D1*
X605443Y-5833574D1*
X607875Y-5838871D1*
X610210Y-5844212D1*
X612447Y-5849594D1*
X614584Y-5855017D1*
X616622Y-5860478D1*
X618560Y-5865975D1*
X620397Y-5871507D1*
X622132Y-5877072D1*
X623764Y-5882667D1*
X625294Y-5888291D1*
X626721Y-5893943D1*
X628044Y-5899620D1*
X629263Y-5905320D1*
X630377Y-5911041D1*
X631386Y-5916782D1*
X632290Y-5922540D1*
X633088Y-5928314D1*
X633780Y-5934101D1*
X634367Y-5939901D1*
X634847Y-5945710D1*
X635220Y-5951527D1*
X635487Y-5957349D1*
X635647Y-5963176D1*
X635700Y-5969000D1*
X635647Y-5974833D1*
X635486Y-5980660D1*
X635219Y-5986482D1*
X634846Y-5992299D1*
X634366Y-5998108D1*
X633779Y-6003907D1*
X633087Y-6009695D1*
X632289Y-6015469D1*
X631385Y-6021227D1*
X630375Y-6026968D1*
X629261Y-6032689D1*
X628042Y-6038389D1*
X626719Y-6044066D1*
X625292Y-6049717D1*
X623762Y-6055342D1*
X622129Y-6060937D1*
X620394Y-6066502D1*
X618557Y-6072033D1*
X616619Y-6077531D1*
X614581Y-6082991D1*
X612443Y-6088414D1*
X610206Y-6093797D1*
X607871Y-6099137D1*
X605439Y-6104434D1*
X602910Y-6109686D1*
X600285Y-6114890D1*
X597565Y-6120045D1*
X594751Y-6125150D1*
X591845Y-6130202D1*
X588846Y-6135201D1*
X585756Y-6140143D1*
X582576Y-6145028D1*
X579307Y-6149854D1*
X575951Y-6154619D1*
X572507Y-6159322D1*
X568978Y-6163961D1*
X565365Y-6168535D1*
X561668Y-6173042D1*
X557890Y-6177480D1*
X554031Y-6181848D1*
X550092Y-6186145D1*
X546076Y-6190369D1*
X541982Y-6194519D1*
X537814Y-6198593D1*
X533571Y-6202590D1*
X530365Y-6205502D1*
X9756628Y-6205500D1*
X9751292Y-6200595D1*
X9747086Y-6196560D1*
X9742955Y-6192447D1*
X9738900Y-6188260D1*
X9734923Y-6183999D1*
X9731024Y-6179666D1*
X9727205Y-6175263D1*
X9723467Y-6170790D1*
X9719813Y-6166250D1*
X9716241Y-6161643D1*
X9712755Y-6156972D1*
X9709355Y-6152237D1*
X9706042Y-6147441D1*
X9702818Y-6142585D1*
X9699683Y-6137671D1*
X9696639Y-6132701D1*
X9693686Y-6127675D1*
X9690826Y-6122597D1*
X9688059Y-6117466D1*
X9685387Y-6112286D1*
X9682810Y-6107058D1*
X9680329Y-6101783D1*
X9677945Y-6096464D1*
X9675659Y-6091102D1*
X9673472Y-6085699D1*
X9671384Y-6080257D1*
X9669396Y-6074778D1*
X9667509Y-6069263D1*
X9665723Y-6063715D1*
X9664039Y-6058134D1*
X9662458Y-6052524D1*
X9660979Y-6046886D1*
X9659604Y-6041222D1*
X9658334Y-6035533D1*
X9657167Y-6029822D1*
X9656105Y-6024091D1*
X9655149Y-6018341D1*
X9654298Y-6012575D1*
X9653552Y-6006794D1*
X9652913Y-6001000D1*
X9652380Y-5995196D1*
X9651953Y-5989383D1*
X9651633Y-5983563D1*
X9651420Y-5977738D1*
X9651313Y-5971910D1*
Y-5966081D1*
X9651420Y-5960253D1*
X9651634Y-5954428D1*
X9651954Y-5948608D1*
X9652381Y-5942795D1*
X9652914Y-5936991D1*
X9653553Y-5931197D1*
X9654299Y-5925416D1*
X9655150Y-5919650D1*
X9656107Y-5913900D1*
X9657169Y-5908169D1*
X9658335Y-5902458D1*
X9659606Y-5896770D1*
X9660982Y-5891105D1*
X9662460Y-5885467D1*
X9664042Y-5879857D1*
X9665726Y-5874277D1*
X9667512Y-5868728D1*
X9669399Y-5863214D1*
X9671387Y-5857734D1*
X9673475Y-5852292D1*
X9675663Y-5846890D1*
X9677949Y-5841528D1*
X9680333Y-5836209D1*
X9682814Y-5830934D1*
X9685391Y-5825706D1*
X9688063Y-5820526D1*
X9690830Y-5815396D1*
X9693690Y-5810317D1*
X9696643Y-5805292D1*
X9699688Y-5800321D1*
X9702823Y-5795407D1*
X9706047Y-5790551D1*
X9709360Y-5785756D1*
X9712760Y-5781021D1*
X9716247Y-5776350D1*
X9719818Y-5771743D1*
X9723473Y-5767203D1*
X9727211Y-5762730D1*
X9731030Y-5758327D1*
X9734929Y-5753994D1*
X9738906Y-5749733D1*
X9742961Y-5745546D1*
X9747093Y-5741434D1*
X9751298Y-5737399D1*
X9755577Y-5733441D1*
X9759928Y-5729562D1*
X9764349Y-5725763D1*
X9768839Y-5722046D1*
X9773396Y-5718412D1*
X9778019Y-5714862D1*
X9782706Y-5711397D1*
X9787456Y-5708019D1*
X9792267Y-5704728D1*
X9797138Y-5701526D1*
X9802066Y-5698413D1*
X9807050Y-5695392D1*
X9812089Y-5692462D1*
X9817181Y-5689625D1*
X9822324Y-5686882D1*
X9827517Y-5684234D1*
X9832757Y-5681681D1*
X9838042Y-5679224D1*
X9843372Y-5676865D1*
X9848745Y-5674603D1*
X9854157Y-5672441D1*
X9859609Y-5670378D1*
X9865097Y-5668415D1*
X9870621Y-5666553D1*
X9876177Y-5664793D1*
X9881765Y-5663134D1*
X9887383Y-5661578D1*
X9893028Y-5660126D1*
X9898698Y-5658777D1*
X9904392Y-5657532D1*
X9910109Y-5656392D1*
X9915845Y-5655356D1*
X9921599Y-5654426D1*
X9927369Y-5653601D1*
X9933153Y-5652883D1*
X9938950Y-5652270D1*
X9944757Y-5651763D1*
X9950572Y-5651363D1*
X9956393Y-5651070D1*
X9962219Y-5650883D1*
X9968047Y-5650803D1*
X9973876Y-5650830D1*
X9979703Y-5650964D1*
X9985527Y-5651204D1*
X9991346Y-5651551D1*
X9997157Y-5652004D1*
X10002959Y-5652564D1*
X10008749Y-5653230D1*
X10014527Y-5654002D1*
X10020289Y-5654879D1*
X10026034Y-5655862D1*
X10031761Y-5656951D1*
X10037466Y-5658143D1*
X10043149Y-5659440D1*
X10048807Y-5660841D1*
X10054438Y-5662346D1*
X10060041Y-5663953D1*
X10065613Y-5665663D1*
X10071154Y-5667474D1*
X10076660Y-5669387D1*
X10082130Y-5671400D1*
X10087562Y-5673513D1*
X10092955Y-5675725D1*
X10098306Y-5678036D1*
X10103614Y-5680444D1*
X10108877Y-5682949D1*
X10114094Y-5685550D1*
X10119261Y-5688246D1*
X10124379Y-5691036D1*
X10129444Y-5693920D1*
X10134456Y-5696896D1*
X10139413Y-5699963D1*
X10144312Y-5703121D1*
X10149153Y-5706367D1*
X10153934Y-5709702D1*
X10158653Y-5713124D1*
X10163308Y-5716632D1*
X10167898Y-5720224D1*
X10172422Y-5723900D1*
X10176877Y-5727658D1*
X10181263Y-5731497D1*
X10185578Y-5735416D1*
X10189820Y-5739413D1*
X10193989Y-5743487D1*
X10198082Y-5747637D1*
X10202098Y-5751861D1*
X10206002Y-5756120D1*
X10206000Y-530392D1*
X2364632Y-588951D2*
X2361410Y-606285D1*
X2356081Y-623092D1*
X2348728Y-639116D1*
X2339461Y-654116D1*
X2328422Y-667862D1*
X2315776Y-680149D1*
X2301717Y-690788D1*
X2286457Y-699618D1*
X2270227Y-706507D1*
X2253274Y-711349D1*
X2235854Y-714070D1*
X2218232Y-714631D1*
X2200675Y-713021D1*
X2183448Y-709267D1*
X2166814Y-703423D1*
X2151023Y-695580D1*
X2136316Y-685856D1*
X2122916Y-674398D1*
X2111025Y-661381D1*
X2100824Y-647000D1*
X2092467Y-631475D1*
X2086082Y-615041D1*
X2081764Y-597947D1*
X2079580Y-580452D1*
X2079563Y-562821D1*
X2081712Y-545321D1*
X2085996Y-528218D1*
X2092348Y-511772D1*
X2100674Y-496230D1*
X2110847Y-481830D1*
X2122712Y-468788D1*
X2136089Y-457304D1*
X2150777Y-447551D1*
X2166552Y-439676D1*
X2183175Y-433800D1*
X2200394Y-430011D1*
X2217948Y-428367D1*
X2235571Y-428892D1*
X2252996Y-431579D1*
X2269959Y-436387D1*
X2286202Y-443244D1*
X2301480Y-452044D1*
X2315561Y-462655D1*
X2328230Y-474916D1*
X2339297Y-488641D1*
X2348594Y-503622D1*
X2355979Y-519632D1*
X2361340Y-536428D1*
X2364597Y-553756D1*
X2365700Y-571494D1*
X2364632Y-588951D1*
X1399209Y-588993D2*
X1396822Y-606445D1*
X1392857Y-623607D1*
X1387348Y-640337D1*
X1380341Y-656497D1*
X1371893Y-671954D1*
X1362074Y-686577D1*
X1350967Y-700248D1*
X1338662Y-712851D1*
X1325262Y-724284D1*
X1310878Y-734451D1*
X1295629Y-743267D1*
X1279642Y-750661D1*
X1263048Y-756570D1*
X1245986Y-760945D1*
X1228597Y-763751D1*
X1211025Y-764964D1*
X1193415Y-764574D1*
X1175914Y-762584D1*
X1158666Y-759011D1*
X1141814Y-753885D1*
X1125499Y-747247D1*
X1109854Y-739153D1*
X1095011Y-729670D1*
X1081091Y-718876D1*
X1068210Y-706862D1*
X1056476Y-693726D1*
X1045984Y-679577D1*
X1036823Y-664533D1*
X1029068Y-648718D1*
X1022782Y-632263D1*
X1018020Y-615305D1*
X1014819Y-597984D1*
X1013206Y-580444D1*
X1013195Y-562830D1*
X1014786Y-545288D1*
X1017965Y-527963D1*
X1022707Y-510999D1*
X1028972Y-494536D1*
X1036707Y-478712D1*
X1045850Y-463656D1*
X1056324Y-449495D1*
X1068042Y-436344D1*
X1080908Y-424313D1*
X1094814Y-413502D1*
X1109646Y-404001D1*
X1125280Y-395888D1*
X1141588Y-389230D1*
X1158433Y-384082D1*
X1175676Y-380488D1*
X1193175Y-378476D1*
X1210784Y-378064D1*
X1228358Y-379255D1*
X1245751Y-382040D1*
X1262818Y-386394D1*
X1279419Y-392282D1*
X1295416Y-399656D1*
X1310676Y-408453D1*
X1325072Y-418602D1*
X1338486Y-430018D1*
X1350806Y-442606D1*
X1361931Y-456263D1*
X1371768Y-470875D1*
X1380235Y-486320D1*
X1387262Y-502472D1*
X1392792Y-519195D1*
X1396778Y-536353D1*
X1399187Y-553801D1*
X1400000Y-571517D1*
X1399209Y-588993D1*
X4555382Y-588956D2*
X4552160Y-606291D1*
X4546831Y-623097D1*
X4539478Y-639122D1*
X4530211Y-654121D1*
X4519172Y-667868D1*
X4506526Y-680154D1*
X4492467Y-690793D1*
X4477207Y-699624D1*
X4460977Y-706512D1*
X4444024Y-711354D1*
X4426604Y-714076D1*
X4408982Y-714636D1*
X4391425Y-713027D1*
X4374198Y-709272D1*
X4357564Y-703429D1*
X4341773Y-695586D1*
X4327066Y-685862D1*
X4313666Y-674404D1*
X4301775Y-661386D1*
X4291574Y-647006D1*
X4283217Y-631481D1*
X4276832Y-615047D1*
X4272514Y-597953D1*
X4270330Y-580457D1*
X4270313Y-562826D1*
X4272462Y-545327D1*
X4276746Y-528224D1*
X4283098Y-511777D1*
X4291424Y-496236D1*
X4301597Y-481835D1*
X4313462Y-468794D1*
X4326839Y-457310D1*
X4341527Y-447556D1*
X4357302Y-439682D1*
X4373925Y-433806D1*
X4391144Y-430017D1*
X4408698Y-428372D1*
X4426321Y-428898D1*
X4443746Y-431585D1*
X4460709Y-436393D1*
X4476952Y-443249D1*
X4492230Y-452050D1*
X4506311Y-462661D1*
X4518980Y-474922D1*
X4530047Y-488647D1*
X4539344Y-503628D1*
X4546729Y-519638D1*
X4552090Y-536434D1*
X4555347Y-553761D1*
X4556450Y-571500D1*
X4555382Y-588956D1*
X6777882D2*
X6774660Y-606291D1*
X6769331Y-623097D1*
X6761978Y-639122D1*
X6752711Y-654121D1*
X6741672Y-667868D1*
X6729026Y-680154D1*
X6714967Y-690793D1*
X6699707Y-699624D1*
X6683477Y-706512D1*
X6666524Y-711354D1*
X6649104Y-714076D1*
X6631482Y-714636D1*
X6613925Y-713027D1*
X6596698Y-709272D1*
X6580064Y-703429D1*
X6564273Y-695586D1*
X6549566Y-685862D1*
X6536166Y-674404D1*
X6524275Y-661386D1*
X6514074Y-647006D1*
X6505717Y-631481D1*
X6499332Y-615047D1*
X6495014Y-597953D1*
X6492830Y-580457D1*
X6492813Y-562826D1*
X6494962Y-545327D1*
X6499246Y-528224D1*
X6505598Y-511777D1*
X6513924Y-496236D1*
X6524097Y-481835D1*
X6535962Y-468794D1*
X6549339Y-457310D1*
X6564027Y-447556D1*
X6579802Y-439682D1*
X6596425Y-433806D1*
X6613644Y-430017D1*
X6631198Y-428372D1*
X6648821Y-428898D1*
X6666246Y-431585D1*
X6683209Y-436393D1*
X6699452Y-443249D1*
X6714730Y-452050D1*
X6728811Y-462661D1*
X6741480Y-474922D1*
X6752547Y-488647D1*
X6761844Y-503628D1*
X6769229Y-519638D1*
X6774590Y-536434D1*
X6777847Y-553761D1*
X6778950Y-571500D1*
X6777882Y-588956D1*
X9000382D2*
X8997160Y-606291D1*
X8991831Y-623097D1*
X8984478Y-639122D1*
X8975211Y-654121D1*
X8964172Y-667868D1*
X8951526Y-680154D1*
X8937467Y-690793D1*
X8922207Y-699624D1*
X8905977Y-706512D1*
X8889024Y-711354D1*
X8871604Y-714076D1*
X8853982Y-714636D1*
X8836425Y-713027D1*
X8819198Y-709272D1*
X8802564Y-703429D1*
X8786773Y-695586D1*
X8772066Y-685862D1*
X8758666Y-674404D1*
X8746775Y-661386D1*
X8736574Y-647006D1*
X8728217Y-631481D1*
X8721832Y-615047D1*
X8717514Y-597953D1*
X8715330Y-580457D1*
X8715313Y-562826D1*
X8717462Y-545327D1*
X8721746Y-528224D1*
X8728098Y-511777D1*
X8736424Y-496236D1*
X8746597Y-481835D1*
X8758462Y-468794D1*
X8771839Y-457310D1*
X8786527Y-447556D1*
X8802302Y-439682D1*
X8818925Y-433806D1*
X8836144Y-430017D1*
X8853698Y-428372D1*
X8871321Y-428898D1*
X8888746Y-431585D1*
X8905709Y-436393D1*
X8921952Y-443249D1*
X8937230Y-452050D1*
X8951311Y-462661D1*
X8963980Y-474922D1*
X8975047Y-488647D1*
X8984344Y-503628D1*
X8991729Y-519638D1*
X8997090Y-536434D1*
X9000347Y-553761D1*
X9001450Y-571500D1*
X9000382Y-588956D1*
X9558959Y-588976D2*
X9556572Y-606428D1*
X9552607Y-623590D1*
X9547098Y-640320D1*
X9540091Y-656481D1*
X9531643Y-671937D1*
X9521824Y-686561D1*
X9510717Y-700231D1*
X9498412Y-712835D1*
X9485012Y-724267D1*
X9470628Y-734434D1*
X9455379Y-743250D1*
X9439392Y-750644D1*
X9422798Y-756553D1*
X9405736Y-760928D1*
X9388347Y-763734D1*
X9370775Y-764947D1*
X9353165Y-764557D1*
X9335664Y-762567D1*
X9318416Y-758994D1*
X9301564Y-753868D1*
X9285249Y-747230D1*
X9269604Y-739136D1*
X9254761Y-729653D1*
X9240841Y-718859D1*
X9227960Y-706845D1*
X9216226Y-693709D1*
X9205734Y-679560D1*
X9196573Y-664516D1*
X9188818Y-648701D1*
X9182532Y-632246D1*
X9177770Y-615288D1*
X9174569Y-597967D1*
X9172956Y-580427D1*
X9172945Y-562813D1*
X9174536Y-545271D1*
X9177715Y-527946D1*
X9182457Y-510982D1*
X9188722Y-494520D1*
X9196457Y-478695D1*
X9205600Y-463640D1*
X9216074Y-449478D1*
X9227792Y-436327D1*
X9240658Y-424297D1*
X9254564Y-413486D1*
X9269396Y-403984D1*
X9285030Y-395871D1*
X9301338Y-389213D1*
X9318183Y-384065D1*
X9335426Y-380471D1*
X9352925Y-378459D1*
X9370534Y-378047D1*
X9388108Y-379239D1*
X9405501Y-382023D1*
X9422568Y-386377D1*
X9439169Y-392265D1*
X9455166Y-399639D1*
X9470426Y-408437D1*
X9484822Y-418585D1*
X9498236Y-430001D1*
X9510556Y-442590D1*
X9521681Y-456246D1*
X9531518Y-470858D1*
X9539985Y-486303D1*
X9547012Y-502455D1*
X9552542Y-519179D1*
X9556528Y-536336D1*
X9558937Y-553784D1*
X9559750Y-571500D1*
X9558959Y-588976D1*
X2364632Y-1287456D2*
X2361410Y-1304791D1*
X2356081Y-1321597D1*
X2348728Y-1337622D1*
X2339461Y-1352621D1*
X2328422Y-1366368D1*
X2315776Y-1378654D1*
X2301717Y-1389293D1*
X2286457Y-1398124D1*
X2270227Y-1405012D1*
X2253274Y-1409854D1*
X2235854Y-1412576D1*
X2218232Y-1413136D1*
X2200675Y-1411527D1*
X2183448Y-1407772D1*
X2166814Y-1401929D1*
X2151023Y-1394086D1*
X2136316Y-1384362D1*
X2122916Y-1372904D1*
X2111025Y-1359886D1*
X2100824Y-1345506D1*
X2092467Y-1329981D1*
X2086082Y-1313547D1*
X2081764Y-1296453D1*
X2079580Y-1278957D1*
X2079563Y-1261326D1*
X2081712Y-1243827D1*
X2085996Y-1226724D1*
X2092348Y-1210277D1*
X2100674Y-1194736D1*
X2110847Y-1180335D1*
X2122712Y-1167294D1*
X2136089Y-1155810D1*
X2150777Y-1146056D1*
X2166552Y-1138182D1*
X2183175Y-1132306D1*
X2200394Y-1128517D1*
X2217948Y-1126872D1*
X2235571Y-1127398D1*
X2252996Y-1130085D1*
X2269959Y-1134893D1*
X2286202Y-1141749D1*
X2301480Y-1150550D1*
X2315561Y-1161161D1*
X2328230Y-1173422D1*
X2339297Y-1187147D1*
X2348594Y-1202128D1*
X2355979Y-1218138D1*
X2361340Y-1234934D1*
X2364597Y-1252261D1*
X2365700Y-1270000D1*
X2364632Y-1287456D1*
X1399209Y-1287476D2*
X1396822Y-1304928D1*
X1392857Y-1322090D1*
X1387348Y-1338820D1*
X1380341Y-1354981D1*
X1371893Y-1370437D1*
X1362074Y-1385061D1*
X1350967Y-1398731D1*
X1338662Y-1411335D1*
X1325262Y-1422767D1*
X1310878Y-1432934D1*
X1295629Y-1441750D1*
X1279642Y-1449144D1*
X1263048Y-1455053D1*
X1245986Y-1459428D1*
X1228597Y-1462234D1*
X1211025Y-1463447D1*
X1193415Y-1463057D1*
X1175914Y-1461067D1*
X1158666Y-1457494D1*
X1141814Y-1452368D1*
X1125499Y-1445730D1*
X1109854Y-1437636D1*
X1095011Y-1428153D1*
X1081091Y-1417359D1*
X1068210Y-1405345D1*
X1056476Y-1392209D1*
X1045984Y-1378060D1*
X1036823Y-1363016D1*
X1029068Y-1347201D1*
X1022782Y-1330746D1*
X1018020Y-1313788D1*
X1014819Y-1296467D1*
X1013206Y-1278927D1*
X1013195Y-1261313D1*
X1014786Y-1243771D1*
X1017965Y-1226446D1*
X1022707Y-1209482D1*
X1028972Y-1193020D1*
X1036707Y-1177195D1*
X1045850Y-1162140D1*
X1056324Y-1147978D1*
X1068042Y-1134827D1*
X1080908Y-1122797D1*
X1094814Y-1111986D1*
X1109646Y-1102484D1*
X1125280Y-1094371D1*
X1141588Y-1087713D1*
X1158433Y-1082565D1*
X1175676Y-1078971D1*
X1193175Y-1076959D1*
X1210784Y-1076547D1*
X1228358Y-1077739D1*
X1245751Y-1080523D1*
X1262818Y-1084877D1*
X1279419Y-1090765D1*
X1295416Y-1098139D1*
X1310676Y-1106937D1*
X1325072Y-1117085D1*
X1338486Y-1128501D1*
X1350806Y-1141090D1*
X1361931Y-1154746D1*
X1371768Y-1169358D1*
X1380235Y-1184803D1*
X1387262Y-1200955D1*
X1392792Y-1217679D1*
X1396778Y-1234836D1*
X1399187Y-1252284D1*
X1400000Y-1270000D1*
X1399209Y-1287476D1*
X2923209D2*
X2920822Y-1304928D1*
X2916857Y-1322090D1*
X2911348Y-1338820D1*
X2904341Y-1354981D1*
X2895893Y-1370437D1*
X2886074Y-1385061D1*
X2874967Y-1398731D1*
X2862662Y-1411335D1*
X2849262Y-1422767D1*
X2834878Y-1432934D1*
X2819629Y-1441750D1*
X2803642Y-1449144D1*
X2787048Y-1455053D1*
X2769986Y-1459428D1*
X2752597Y-1462234D1*
X2735025Y-1463447D1*
X2717415Y-1463057D1*
X2699914Y-1461067D1*
X2682666Y-1457494D1*
X2665814Y-1452368D1*
X2649499Y-1445730D1*
X2633854Y-1437636D1*
X2619011Y-1428153D1*
X2605091Y-1417359D1*
X2592210Y-1405345D1*
X2580476Y-1392209D1*
X2569984Y-1378060D1*
X2560823Y-1363016D1*
X2553068Y-1347201D1*
X2546782Y-1330746D1*
X2542020Y-1313788D1*
X2538819Y-1296467D1*
X2537206Y-1278927D1*
X2537195Y-1261313D1*
X2538786Y-1243771D1*
X2541965Y-1226446D1*
X2546707Y-1209482D1*
X2552972Y-1193020D1*
X2560707Y-1177195D1*
X2569850Y-1162140D1*
X2580324Y-1147978D1*
X2592042Y-1134827D1*
X2604908Y-1122797D1*
X2618814Y-1111986D1*
X2633646Y-1102484D1*
X2649280Y-1094371D1*
X2665588Y-1087713D1*
X2682433Y-1082565D1*
X2699676Y-1078971D1*
X2717175Y-1076959D1*
X2734784Y-1076547D1*
X2752358Y-1077739D1*
X2769751Y-1080523D1*
X2786818Y-1084877D1*
X2803419Y-1090765D1*
X2819416Y-1098139D1*
X2834676Y-1106937D1*
X2849072Y-1117085D1*
X2862486Y-1128501D1*
X2874806Y-1141090D1*
X2885931Y-1154746D1*
X2895768Y-1169358D1*
X2904235Y-1184803D1*
X2911262Y-1200955D1*
X2916792Y-1217679D1*
X2920778Y-1234836D1*
X2923187Y-1252284D1*
X2924000Y-1270000D1*
X2923209Y-1287476D1*
X4555382Y-1287456D2*
X4552160Y-1304791D1*
X4546831Y-1321597D1*
X4539478Y-1337622D1*
X4530211Y-1352621D1*
X4519172Y-1366368D1*
X4506526Y-1378654D1*
X4492467Y-1389293D1*
X4477207Y-1398124D1*
X4460977Y-1405012D1*
X4444024Y-1409854D1*
X4426604Y-1412576D1*
X4408982Y-1413136D1*
X4391425Y-1411527D1*
X4374198Y-1407772D1*
X4357564Y-1401929D1*
X4341773Y-1394086D1*
X4327066Y-1384362D1*
X4313666Y-1372904D1*
X4301775Y-1359886D1*
X4291574Y-1345506D1*
X4283217Y-1329981D1*
X4276832Y-1313547D1*
X4272514Y-1296453D1*
X4270330Y-1278957D1*
X4270313Y-1261326D1*
X4272462Y-1243827D1*
X4276746Y-1226724D1*
X4283098Y-1210277D1*
X4291424Y-1194736D1*
X4301597Y-1180335D1*
X4313462Y-1167294D1*
X4326839Y-1155810D1*
X4341527Y-1146056D1*
X4357302Y-1138182D1*
X4373925Y-1132306D1*
X4391144Y-1128517D1*
X4408698Y-1126872D1*
X4426321Y-1127398D1*
X4443746Y-1130085D1*
X4460709Y-1134893D1*
X4476952Y-1141749D1*
X4492230Y-1150550D1*
X4506311Y-1161161D1*
X4518980Y-1173422D1*
X4530047Y-1187147D1*
X4539344Y-1202128D1*
X4546729Y-1218138D1*
X4552090Y-1234934D1*
X4555347Y-1252261D1*
X4556450Y-1270000D1*
X4555382Y-1287456D1*
X3589959Y-1287476D2*
X3587572Y-1304928D1*
X3583607Y-1322090D1*
X3578098Y-1338820D1*
X3571091Y-1354981D1*
X3562643Y-1370437D1*
X3552824Y-1385061D1*
X3541717Y-1398731D1*
X3529412Y-1411335D1*
X3516012Y-1422767D1*
X3501628Y-1432934D1*
X3486379Y-1441750D1*
X3470392Y-1449144D1*
X3453798Y-1455053D1*
X3436736Y-1459428D1*
X3419347Y-1462234D1*
X3401775Y-1463447D1*
X3384165Y-1463057D1*
X3366664Y-1461067D1*
X3349416Y-1457494D1*
X3332564Y-1452368D1*
X3316249Y-1445730D1*
X3300604Y-1437636D1*
X3285761Y-1428153D1*
X3271841Y-1417359D1*
X3258960Y-1405345D1*
X3247226Y-1392209D1*
X3236734Y-1378060D1*
X3227573Y-1363016D1*
X3219818Y-1347201D1*
X3213532Y-1330746D1*
X3208770Y-1313788D1*
X3205569Y-1296467D1*
X3203956Y-1278927D1*
X3203945Y-1261313D1*
X3205536Y-1243771D1*
X3208715Y-1226446D1*
X3213457Y-1209482D1*
X3219722Y-1193020D1*
X3227457Y-1177195D1*
X3236600Y-1162140D1*
X3247074Y-1147978D1*
X3258792Y-1134827D1*
X3271658Y-1122797D1*
X3285564Y-1111986D1*
X3300396Y-1102484D1*
X3316030Y-1094371D1*
X3332338Y-1087713D1*
X3349183Y-1082565D1*
X3366426Y-1078971D1*
X3383925Y-1076959D1*
X3401534Y-1076547D1*
X3419108Y-1077739D1*
X3436501Y-1080523D1*
X3453568Y-1084877D1*
X3470169Y-1090765D1*
X3486166Y-1098139D1*
X3501426Y-1106937D1*
X3515822Y-1117085D1*
X3529236Y-1128501D1*
X3541556Y-1141090D1*
X3552681Y-1154746D1*
X3562518Y-1169358D1*
X3570985Y-1184803D1*
X3578012Y-1200955D1*
X3583542Y-1217679D1*
X3587528Y-1234836D1*
X3589937Y-1252284D1*
X3590750Y-1270000D1*
X3589959Y-1287476D1*
X5113959D2*
X5111572Y-1304928D1*
X5107607Y-1322090D1*
X5102098Y-1338820D1*
X5095091Y-1354981D1*
X5086643Y-1370437D1*
X5076824Y-1385061D1*
X5065717Y-1398731D1*
X5053412Y-1411335D1*
X5040012Y-1422767D1*
X5025628Y-1432934D1*
X5010379Y-1441750D1*
X4994392Y-1449144D1*
X4977798Y-1455053D1*
X4960736Y-1459428D1*
X4943347Y-1462234D1*
X4925775Y-1463447D1*
X4908165Y-1463057D1*
X4890664Y-1461067D1*
X4873416Y-1457494D1*
X4856564Y-1452368D1*
X4840249Y-1445730D1*
X4824604Y-1437636D1*
X4809761Y-1428153D1*
X4795841Y-1417359D1*
X4782960Y-1405345D1*
X4771226Y-1392209D1*
X4760734Y-1378060D1*
X4751573Y-1363016D1*
X4743818Y-1347201D1*
X4737532Y-1330746D1*
X4732770Y-1313788D1*
X4729569Y-1296467D1*
X4727956Y-1278927D1*
X4727945Y-1261313D1*
X4729536Y-1243771D1*
X4732715Y-1226446D1*
X4737457Y-1209482D1*
X4743722Y-1193020D1*
X4751457Y-1177195D1*
X4760600Y-1162140D1*
X4771074Y-1147978D1*
X4782792Y-1134827D1*
X4795658Y-1122797D1*
X4809564Y-1111986D1*
X4824396Y-1102484D1*
X4840030Y-1094371D1*
X4856338Y-1087713D1*
X4873183Y-1082565D1*
X4890426Y-1078971D1*
X4907925Y-1076959D1*
X4925534Y-1076547D1*
X4943108Y-1077739D1*
X4960501Y-1080523D1*
X4977568Y-1084877D1*
X4994169Y-1090765D1*
X5010166Y-1098139D1*
X5025426Y-1106937D1*
X5039822Y-1117085D1*
X5053236Y-1128501D1*
X5065556Y-1141090D1*
X5076681Y-1154746D1*
X5086518Y-1169358D1*
X5094985Y-1184803D1*
X5102012Y-1200955D1*
X5107542Y-1217679D1*
X5111528Y-1234836D1*
X5113937Y-1252284D1*
X5114750Y-1270000D1*
X5113959Y-1287476D1*
X6777882Y-1287456D2*
X6774660Y-1304791D1*
X6769331Y-1321597D1*
X6761978Y-1337622D1*
X6752711Y-1352621D1*
X6741672Y-1366368D1*
X6729026Y-1378654D1*
X6714967Y-1389293D1*
X6699707Y-1398124D1*
X6683477Y-1405012D1*
X6666524Y-1409854D1*
X6649104Y-1412576D1*
X6631482Y-1413136D1*
X6613925Y-1411527D1*
X6596698Y-1407772D1*
X6580064Y-1401929D1*
X6564273Y-1394086D1*
X6549566Y-1384362D1*
X6536166Y-1372904D1*
X6524275Y-1359886D1*
X6514074Y-1345506D1*
X6505717Y-1329981D1*
X6499332Y-1313547D1*
X6495014Y-1296453D1*
X6492830Y-1278957D1*
X6492813Y-1261326D1*
X6494962Y-1243827D1*
X6499246Y-1226724D1*
X6505598Y-1210277D1*
X6513924Y-1194736D1*
X6524097Y-1180335D1*
X6535962Y-1167294D1*
X6549339Y-1155810D1*
X6564027Y-1146056D1*
X6579802Y-1138182D1*
X6596425Y-1132306D1*
X6613644Y-1128517D1*
X6631198Y-1126872D1*
X6648821Y-1127398D1*
X6666246Y-1130085D1*
X6683209Y-1134893D1*
X6699452Y-1141749D1*
X6714730Y-1150550D1*
X6728811Y-1161161D1*
X6741480Y-1173422D1*
X6752547Y-1187147D1*
X6761844Y-1202128D1*
X6769229Y-1218138D1*
X6774590Y-1234934D1*
X6777847Y-1252261D1*
X6778950Y-1270000D1*
X6777882Y-1287456D1*
X5812459Y-1287476D2*
X5810072Y-1304928D1*
X5806107Y-1322090D1*
X5800598Y-1338820D1*
X5793591Y-1354981D1*
X5785143Y-1370437D1*
X5775324Y-1385061D1*
X5764217Y-1398731D1*
X5751912Y-1411335D1*
X5738512Y-1422767D1*
X5724128Y-1432934D1*
X5708879Y-1441750D1*
X5692892Y-1449144D1*
X5676298Y-1455053D1*
X5659236Y-1459428D1*
X5641847Y-1462234D1*
X5624275Y-1463447D1*
X5606665Y-1463057D1*
X5589164Y-1461067D1*
X5571916Y-1457494D1*
X5555064Y-1452368D1*
X5538749Y-1445730D1*
X5523104Y-1437636D1*
X5508261Y-1428153D1*
X5494341Y-1417359D1*
X5481460Y-1405345D1*
X5469726Y-1392209D1*
X5459234Y-1378060D1*
X5450073Y-1363016D1*
X5442318Y-1347201D1*
X5436032Y-1330746D1*
X5431270Y-1313788D1*
X5428069Y-1296467D1*
X5426456Y-1278927D1*
X5426445Y-1261313D1*
X5428036Y-1243771D1*
X5431215Y-1226446D1*
X5435957Y-1209482D1*
X5442222Y-1193020D1*
X5449957Y-1177195D1*
X5459100Y-1162140D1*
X5469574Y-1147978D1*
X5481292Y-1134827D1*
X5494158Y-1122797D1*
X5508064Y-1111986D1*
X5522896Y-1102484D1*
X5538530Y-1094371D1*
X5554838Y-1087713D1*
X5571683Y-1082565D1*
X5588926Y-1078971D1*
X5606425Y-1076959D1*
X5624034Y-1076547D1*
X5641608Y-1077739D1*
X5659001Y-1080523D1*
X5676068Y-1084877D1*
X5692669Y-1090765D1*
X5708666Y-1098139D1*
X5723926Y-1106937D1*
X5738322Y-1117085D1*
X5751736Y-1128501D1*
X5764056Y-1141090D1*
X5775181Y-1154746D1*
X5785018Y-1169358D1*
X5793485Y-1184803D1*
X5800512Y-1200955D1*
X5806042Y-1217679D1*
X5810028Y-1234836D1*
X5812437Y-1252284D1*
X5813250Y-1270000D1*
X5812459Y-1287476D1*
X7336459D2*
X7334072Y-1304928D1*
X7330107Y-1322090D1*
X7324598Y-1338820D1*
X7317591Y-1354981D1*
X7309143Y-1370437D1*
X7299324Y-1385061D1*
X7288217Y-1398731D1*
X7275912Y-1411335D1*
X7262512Y-1422767D1*
X7248128Y-1432934D1*
X7232879Y-1441750D1*
X7216892Y-1449144D1*
X7200298Y-1455053D1*
X7183236Y-1459428D1*
X7165847Y-1462234D1*
X7148275Y-1463447D1*
X7130665Y-1463057D1*
X7113164Y-1461067D1*
X7095916Y-1457494D1*
X7079064Y-1452368D1*
X7062749Y-1445730D1*
X7047104Y-1437636D1*
X7032261Y-1428153D1*
X7018341Y-1417359D1*
X7005460Y-1405345D1*
X6993726Y-1392209D1*
X6983234Y-1378060D1*
X6974073Y-1363016D1*
X6966318Y-1347201D1*
X6960032Y-1330746D1*
X6955270Y-1313788D1*
X6952069Y-1296467D1*
X6950456Y-1278927D1*
X6950445Y-1261313D1*
X6952036Y-1243771D1*
X6955215Y-1226446D1*
X6959957Y-1209482D1*
X6966222Y-1193020D1*
X6973957Y-1177195D1*
X6983100Y-1162140D1*
X6993574Y-1147978D1*
X7005292Y-1134827D1*
X7018158Y-1122797D1*
X7032064Y-1111986D1*
X7046896Y-1102484D1*
X7062530Y-1094371D1*
X7078838Y-1087713D1*
X7095683Y-1082565D1*
X7112926Y-1078971D1*
X7130425Y-1076959D1*
X7148034Y-1076547D1*
X7165608Y-1077739D1*
X7183001Y-1080523D1*
X7200068Y-1084877D1*
X7216669Y-1090765D1*
X7232666Y-1098139D1*
X7247926Y-1106937D1*
X7262322Y-1117085D1*
X7275736Y-1128501D1*
X7288056Y-1141090D1*
X7299181Y-1154746D1*
X7309018Y-1169358D1*
X7317485Y-1184803D1*
X7324512Y-1200955D1*
X7330042Y-1217679D1*
X7334028Y-1234836D1*
X7336437Y-1252284D1*
X7337250Y-1270000D1*
X7336459Y-1287476D1*
X9000382Y-1287456D2*
X8997160Y-1304791D1*
X8991831Y-1321597D1*
X8984478Y-1337622D1*
X8975211Y-1352621D1*
X8964172Y-1366368D1*
X8951526Y-1378654D1*
X8937467Y-1389293D1*
X8922207Y-1398124D1*
X8905977Y-1405012D1*
X8889024Y-1409854D1*
X8871604Y-1412576D1*
X8853982Y-1413136D1*
X8836425Y-1411527D1*
X8819198Y-1407772D1*
X8802564Y-1401929D1*
X8786773Y-1394086D1*
X8772066Y-1384362D1*
X8758666Y-1372904D1*
X8746775Y-1359886D1*
X8736574Y-1345506D1*
X8728217Y-1329981D1*
X8721832Y-1313547D1*
X8717514Y-1296453D1*
X8715330Y-1278957D1*
X8715313Y-1261326D1*
X8717462Y-1243827D1*
X8721746Y-1226724D1*
X8728098Y-1210277D1*
X8736424Y-1194736D1*
X8746597Y-1180335D1*
X8758462Y-1167294D1*
X8771839Y-1155810D1*
X8786527Y-1146056D1*
X8802302Y-1138182D1*
X8818925Y-1132306D1*
X8836144Y-1128517D1*
X8853698Y-1126872D1*
X8871321Y-1127398D1*
X8888746Y-1130085D1*
X8905709Y-1134893D1*
X8921952Y-1141749D1*
X8937230Y-1150550D1*
X8951311Y-1161161D1*
X8963980Y-1173422D1*
X8975047Y-1187147D1*
X8984344Y-1202128D1*
X8991729Y-1218138D1*
X8997090Y-1234934D1*
X9000347Y-1252261D1*
X9001450Y-1270000D1*
X9000382Y-1287456D1*
X8034959Y-1287476D2*
X8032572Y-1304928D1*
X8028607Y-1322090D1*
X8023098Y-1338820D1*
X8016091Y-1354981D1*
X8007643Y-1370437D1*
X7997824Y-1385061D1*
X7986717Y-1398731D1*
X7974412Y-1411335D1*
X7961012Y-1422767D1*
X7946628Y-1432934D1*
X7931379Y-1441750D1*
X7915392Y-1449144D1*
X7898798Y-1455053D1*
X7881736Y-1459428D1*
X7864347Y-1462234D1*
X7846775Y-1463447D1*
X7829165Y-1463057D1*
X7811664Y-1461067D1*
X7794416Y-1457494D1*
X7777564Y-1452368D1*
X7761249Y-1445730D1*
X7745604Y-1437636D1*
X7730761Y-1428153D1*
X7716841Y-1417359D1*
X7703960Y-1405345D1*
X7692226Y-1392209D1*
X7681734Y-1378060D1*
X7672573Y-1363016D1*
X7664818Y-1347201D1*
X7658532Y-1330746D1*
X7653770Y-1313788D1*
X7650569Y-1296467D1*
X7648956Y-1278927D1*
X7648945Y-1261313D1*
X7650536Y-1243771D1*
X7653715Y-1226446D1*
X7658457Y-1209482D1*
X7664722Y-1193020D1*
X7672457Y-1177195D1*
X7681600Y-1162140D1*
X7692074Y-1147978D1*
X7703792Y-1134827D1*
X7716658Y-1122797D1*
X7730564Y-1111986D1*
X7745396Y-1102484D1*
X7761030Y-1094371D1*
X7777338Y-1087713D1*
X7794183Y-1082565D1*
X7811426Y-1078971D1*
X7828925Y-1076959D1*
X7846534Y-1076547D1*
X7864108Y-1077739D1*
X7881501Y-1080523D1*
X7898568Y-1084877D1*
X7915169Y-1090765D1*
X7931166Y-1098139D1*
X7946426Y-1106937D1*
X7960822Y-1117085D1*
X7974236Y-1128501D1*
X7986556Y-1141090D1*
X7997681Y-1154746D1*
X8007518Y-1169358D1*
X8015985Y-1184803D1*
X8023012Y-1200955D1*
X8028542Y-1217679D1*
X8032528Y-1234836D1*
X8034937Y-1252284D1*
X8035750Y-1270000D1*
X8034959Y-1287476D1*
X9558959D2*
X9556572Y-1304928D1*
X9552607Y-1322090D1*
X9547098Y-1338820D1*
X9540091Y-1354981D1*
X9531643Y-1370437D1*
X9521824Y-1385061D1*
X9510717Y-1398731D1*
X9498412Y-1411335D1*
X9485012Y-1422767D1*
X9470628Y-1432934D1*
X9455379Y-1441750D1*
X9439392Y-1449144D1*
X9422798Y-1455053D1*
X9405736Y-1459428D1*
X9388347Y-1462234D1*
X9370775Y-1463447D1*
X9353165Y-1463057D1*
X9335664Y-1461067D1*
X9318416Y-1457494D1*
X9301564Y-1452368D1*
X9285249Y-1445730D1*
X9269604Y-1437636D1*
X9254761Y-1428153D1*
X9240841Y-1417359D1*
X9227960Y-1405345D1*
X9216226Y-1392209D1*
X9205734Y-1378060D1*
X9196573Y-1363016D1*
X9188818Y-1347201D1*
X9182532Y-1330746D1*
X9177770Y-1313788D1*
X9174569Y-1296467D1*
X9172956Y-1278927D1*
X9172945Y-1261313D1*
X9174536Y-1243771D1*
X9177715Y-1226446D1*
X9182457Y-1209482D1*
X9188722Y-1193020D1*
X9196457Y-1177195D1*
X9205600Y-1162140D1*
X9216074Y-1147978D1*
X9227792Y-1134827D1*
X9240658Y-1122797D1*
X9254564Y-1111986D1*
X9269396Y-1102484D1*
X9285030Y-1094371D1*
X9301338Y-1087713D1*
X9318183Y-1082565D1*
X9335426Y-1078971D1*
X9352925Y-1076959D1*
X9370534Y-1076547D1*
X9388108Y-1077739D1*
X9405501Y-1080523D1*
X9422568Y-1084877D1*
X9439169Y-1090765D1*
X9455166Y-1098139D1*
X9470426Y-1106937D1*
X9484822Y-1117085D1*
X9498236Y-1128501D1*
X9510556Y-1141090D1*
X9521681Y-1154746D1*
X9531518Y-1169358D1*
X9539985Y-1184803D1*
X9547012Y-1200955D1*
X9552542Y-1217679D1*
X9556528Y-1234836D1*
X9558937Y-1252284D1*
X9559750Y-1270000D1*
X9558959Y-1287476D1*
X2364632Y-1985956D2*
X2361410Y-2003291D1*
X2356081Y-2020097D1*
X2348728Y-2036122D1*
X2339461Y-2051121D1*
X2328422Y-2064868D1*
X2315776Y-2077154D1*
X2301717Y-2087793D1*
X2286457Y-2096624D1*
X2270227Y-2103512D1*
X2253274Y-2108354D1*
X2235854Y-2111076D1*
X2218232Y-2111636D1*
X2200675Y-2110027D1*
X2183448Y-2106272D1*
X2166814Y-2100429D1*
X2151023Y-2092586D1*
X2136316Y-2082862D1*
X2122916Y-2071404D1*
X2111025Y-2058386D1*
X2100824Y-2044006D1*
X2092467Y-2028481D1*
X2086082Y-2012047D1*
X2081764Y-1994953D1*
X2079580Y-1977457D1*
X2079563Y-1959826D1*
X2081712Y-1942327D1*
X2085996Y-1925224D1*
X2092348Y-1908777D1*
X2100674Y-1893236D1*
X2110847Y-1878835D1*
X2122712Y-1865794D1*
X2136089Y-1854310D1*
X2150777Y-1844556D1*
X2166552Y-1836682D1*
X2183175Y-1830806D1*
X2200394Y-1827017D1*
X2217948Y-1825372D1*
X2235571Y-1825898D1*
X2252996Y-1828585D1*
X2269959Y-1833393D1*
X2286202Y-1840249D1*
X2301480Y-1849050D1*
X2315561Y-1859661D1*
X2328230Y-1871922D1*
X2339297Y-1885647D1*
X2348594Y-1900628D1*
X2355979Y-1916638D1*
X2361340Y-1933434D1*
X2364597Y-1950761D1*
X2365700Y-1968500D1*
X2364632Y-1985956D1*
X1399209Y-1985976D2*
X1396822Y-2003428D1*
X1392857Y-2020590D1*
X1387348Y-2037320D1*
X1380341Y-2053481D1*
X1371893Y-2068937D1*
X1362074Y-2083561D1*
X1350967Y-2097231D1*
X1338662Y-2109835D1*
X1325262Y-2121267D1*
X1310878Y-2131434D1*
X1295629Y-2140250D1*
X1279642Y-2147644D1*
X1263048Y-2153553D1*
X1245986Y-2157928D1*
X1228597Y-2160734D1*
X1211025Y-2161947D1*
X1193415Y-2161557D1*
X1175914Y-2159567D1*
X1158666Y-2155994D1*
X1141814Y-2150868D1*
X1125499Y-2144230D1*
X1109854Y-2136136D1*
X1095011Y-2126653D1*
X1081091Y-2115859D1*
X1068210Y-2103845D1*
X1056476Y-2090709D1*
X1045984Y-2076560D1*
X1036823Y-2061516D1*
X1029068Y-2045701D1*
X1022782Y-2029246D1*
X1018020Y-2012288D1*
X1014819Y-1994967D1*
X1013206Y-1977427D1*
X1013195Y-1959813D1*
X1014786Y-1942271D1*
X1017965Y-1924946D1*
X1022707Y-1907982D1*
X1028972Y-1891520D1*
X1036707Y-1875695D1*
X1045850Y-1860640D1*
X1056324Y-1846478D1*
X1068042Y-1833327D1*
X1080908Y-1821297D1*
X1094814Y-1810486D1*
X1109646Y-1800984D1*
X1125280Y-1792871D1*
X1141588Y-1786213D1*
X1158433Y-1781065D1*
X1175676Y-1777471D1*
X1193175Y-1775459D1*
X1210784Y-1775047D1*
X1228358Y-1776239D1*
X1245751Y-1779023D1*
X1262818Y-1783377D1*
X1279419Y-1789265D1*
X1295416Y-1796639D1*
X1310676Y-1805437D1*
X1325072Y-1815585D1*
X1338486Y-1827001D1*
X1350806Y-1839590D1*
X1361931Y-1853246D1*
X1371768Y-1867858D1*
X1380235Y-1883303D1*
X1387262Y-1899455D1*
X1392792Y-1916179D1*
X1396778Y-1933336D1*
X1399187Y-1950784D1*
X1400000Y-1968500D1*
X1399209Y-1985976D1*
X2923209D2*
X2920822Y-2003428D1*
X2916857Y-2020590D1*
X2911348Y-2037320D1*
X2904341Y-2053481D1*
X2895893Y-2068937D1*
X2886074Y-2083561D1*
X2874967Y-2097231D1*
X2862662Y-2109835D1*
X2849262Y-2121267D1*
X2834878Y-2131434D1*
X2819629Y-2140250D1*
X2803642Y-2147644D1*
X2787048Y-2153553D1*
X2769986Y-2157928D1*
X2752597Y-2160734D1*
X2735025Y-2161947D1*
X2717415Y-2161557D1*
X2699914Y-2159567D1*
X2682666Y-2155994D1*
X2665814Y-2150868D1*
X2649499Y-2144230D1*
X2633854Y-2136136D1*
X2619011Y-2126653D1*
X2605091Y-2115859D1*
X2592210Y-2103845D1*
X2580476Y-2090709D1*
X2569984Y-2076560D1*
X2560823Y-2061516D1*
X2553068Y-2045701D1*
X2546782Y-2029246D1*
X2542020Y-2012288D1*
X2538819Y-1994967D1*
X2537206Y-1977427D1*
X2537195Y-1959813D1*
X2538786Y-1942271D1*
X2541965Y-1924946D1*
X2546707Y-1907982D1*
X2552972Y-1891520D1*
X2560707Y-1875695D1*
X2569850Y-1860640D1*
X2580324Y-1846478D1*
X2592042Y-1833327D1*
X2604908Y-1821297D1*
X2618814Y-1810486D1*
X2633646Y-1800984D1*
X2649280Y-1792871D1*
X2665588Y-1786213D1*
X2682433Y-1781065D1*
X2699676Y-1777471D1*
X2717175Y-1775459D1*
X2734784Y-1775047D1*
X2752358Y-1776239D1*
X2769751Y-1779023D1*
X2786818Y-1783377D1*
X2803419Y-1789265D1*
X2819416Y-1796639D1*
X2834676Y-1805437D1*
X2849072Y-1815585D1*
X2862486Y-1827001D1*
X2874806Y-1839590D1*
X2885931Y-1853246D1*
X2895768Y-1867858D1*
X2904235Y-1883303D1*
X2911262Y-1899455D1*
X2916792Y-1916179D1*
X2920778Y-1933336D1*
X2923187Y-1950784D1*
X2924000Y-1968500D1*
X2923209Y-1985976D1*
X4555382Y-1985956D2*
X4552160Y-2003291D1*
X4546831Y-2020097D1*
X4539478Y-2036122D1*
X4530211Y-2051121D1*
X4519172Y-2064868D1*
X4506526Y-2077154D1*
X4492467Y-2087793D1*
X4477207Y-2096624D1*
X4460977Y-2103512D1*
X4444024Y-2108354D1*
X4426604Y-2111076D1*
X4408982Y-2111636D1*
X4391425Y-2110027D1*
X4374198Y-2106272D1*
X4357564Y-2100429D1*
X4341773Y-2092586D1*
X4327066Y-2082862D1*
X4313666Y-2071404D1*
X4301775Y-2058386D1*
X4291574Y-2044006D1*
X4283217Y-2028481D1*
X4276832Y-2012047D1*
X4272514Y-1994953D1*
X4270330Y-1977457D1*
X4270313Y-1959826D1*
X4272462Y-1942327D1*
X4276746Y-1925224D1*
X4283098Y-1908777D1*
X4291424Y-1893236D1*
X4301597Y-1878835D1*
X4313462Y-1865794D1*
X4326839Y-1854310D1*
X4341527Y-1844556D1*
X4357302Y-1836682D1*
X4373925Y-1830806D1*
X4391144Y-1827017D1*
X4408698Y-1825372D1*
X4426321Y-1825898D1*
X4443746Y-1828585D1*
X4460709Y-1833393D1*
X4476952Y-1840249D1*
X4492230Y-1849050D1*
X4506311Y-1859661D1*
X4518980Y-1871922D1*
X4530047Y-1885647D1*
X4539344Y-1900628D1*
X4546729Y-1916638D1*
X4552090Y-1933434D1*
X4555347Y-1950761D1*
X4556450Y-1968500D1*
X4555382Y-1985956D1*
X3589959Y-1985976D2*
X3587572Y-2003428D1*
X3583607Y-2020590D1*
X3578098Y-2037320D1*
X3571091Y-2053481D1*
X3562643Y-2068937D1*
X3552824Y-2083561D1*
X3541717Y-2097231D1*
X3529412Y-2109835D1*
X3516012Y-2121267D1*
X3501628Y-2131434D1*
X3486379Y-2140250D1*
X3470392Y-2147644D1*
X3453798Y-2153553D1*
X3436736Y-2157928D1*
X3419347Y-2160734D1*
X3401775Y-2161947D1*
X3384165Y-2161557D1*
X3366664Y-2159567D1*
X3349416Y-2155994D1*
X3332564Y-2150868D1*
X3316249Y-2144230D1*
X3300604Y-2136136D1*
X3285761Y-2126653D1*
X3271841Y-2115859D1*
X3258960Y-2103845D1*
X3247226Y-2090709D1*
X3236734Y-2076560D1*
X3227573Y-2061516D1*
X3219818Y-2045701D1*
X3213532Y-2029246D1*
X3208770Y-2012288D1*
X3205569Y-1994967D1*
X3203956Y-1977427D1*
X3203945Y-1959813D1*
X3205536Y-1942271D1*
X3208715Y-1924946D1*
X3213457Y-1907982D1*
X3219722Y-1891520D1*
X3227457Y-1875695D1*
X3236600Y-1860640D1*
X3247074Y-1846478D1*
X3258792Y-1833327D1*
X3271658Y-1821297D1*
X3285564Y-1810486D1*
X3300396Y-1800984D1*
X3316030Y-1792871D1*
X3332338Y-1786213D1*
X3349183Y-1781065D1*
X3366426Y-1777471D1*
X3383925Y-1775459D1*
X3401534Y-1775047D1*
X3419108Y-1776239D1*
X3436501Y-1779023D1*
X3453568Y-1783377D1*
X3470169Y-1789265D1*
X3486166Y-1796639D1*
X3501426Y-1805437D1*
X3515822Y-1815585D1*
X3529236Y-1827001D1*
X3541556Y-1839590D1*
X3552681Y-1853246D1*
X3562518Y-1867858D1*
X3570985Y-1883303D1*
X3578012Y-1899455D1*
X3583542Y-1916179D1*
X3587528Y-1933336D1*
X3589937Y-1950784D1*
X3590750Y-1968500D1*
X3589959Y-1985976D1*
X5113959D2*
X5111572Y-2003428D1*
X5107607Y-2020590D1*
X5102098Y-2037320D1*
X5095091Y-2053481D1*
X5086643Y-2068937D1*
X5076824Y-2083561D1*
X5065717Y-2097231D1*
X5053412Y-2109835D1*
X5040012Y-2121267D1*
X5025628Y-2131434D1*
X5010379Y-2140250D1*
X4994392Y-2147644D1*
X4977798Y-2153553D1*
X4960736Y-2157928D1*
X4943347Y-2160734D1*
X4925775Y-2161947D1*
X4908165Y-2161557D1*
X4890664Y-2159567D1*
X4873416Y-2155994D1*
X4856564Y-2150868D1*
X4840249Y-2144230D1*
X4824604Y-2136136D1*
X4809761Y-2126653D1*
X4795841Y-2115859D1*
X4782960Y-2103845D1*
X4771226Y-2090709D1*
X4760734Y-2076560D1*
X4751573Y-2061516D1*
X4743818Y-2045701D1*
X4737532Y-2029246D1*
X4732770Y-2012288D1*
X4729569Y-1994967D1*
X4727956Y-1977427D1*
X4727945Y-1959813D1*
X4729536Y-1942271D1*
X4732715Y-1924946D1*
X4737457Y-1907982D1*
X4743722Y-1891520D1*
X4751457Y-1875695D1*
X4760600Y-1860640D1*
X4771074Y-1846478D1*
X4782792Y-1833327D1*
X4795658Y-1821297D1*
X4809564Y-1810486D1*
X4824396Y-1800984D1*
X4840030Y-1792871D1*
X4856338Y-1786213D1*
X4873183Y-1781065D1*
X4890426Y-1777471D1*
X4907925Y-1775459D1*
X4925534Y-1775047D1*
X4943108Y-1776239D1*
X4960501Y-1779023D1*
X4977568Y-1783377D1*
X4994169Y-1789265D1*
X5010166Y-1796639D1*
X5025426Y-1805437D1*
X5039822Y-1815585D1*
X5053236Y-1827001D1*
X5065556Y-1839590D1*
X5076681Y-1853246D1*
X5086518Y-1867858D1*
X5094985Y-1883303D1*
X5102012Y-1899455D1*
X5107542Y-1916179D1*
X5111528Y-1933336D1*
X5113937Y-1950784D1*
X5114750Y-1968500D1*
X5113959Y-1985976D1*
X6777882Y-1985956D2*
X6774660Y-2003291D1*
X6769331Y-2020097D1*
X6761978Y-2036122D1*
X6752711Y-2051121D1*
X6741672Y-2064868D1*
X6729026Y-2077154D1*
X6714967Y-2087793D1*
X6699707Y-2096624D1*
X6683477Y-2103512D1*
X6666524Y-2108354D1*
X6649104Y-2111076D1*
X6631482Y-2111636D1*
X6613925Y-2110027D1*
X6596698Y-2106272D1*
X6580064Y-2100429D1*
X6564273Y-2092586D1*
X6549566Y-2082862D1*
X6536166Y-2071404D1*
X6524275Y-2058386D1*
X6514074Y-2044006D1*
X6505717Y-2028481D1*
X6499332Y-2012047D1*
X6495014Y-1994953D1*
X6492830Y-1977457D1*
X6492813Y-1959826D1*
X6494962Y-1942327D1*
X6499246Y-1925224D1*
X6505598Y-1908777D1*
X6513924Y-1893236D1*
X6524097Y-1878835D1*
X6535962Y-1865794D1*
X6549339Y-1854310D1*
X6564027Y-1844556D1*
X6579802Y-1836682D1*
X6596425Y-1830806D1*
X6613644Y-1827017D1*
X6631198Y-1825372D1*
X6648821Y-1825898D1*
X6666246Y-1828585D1*
X6683209Y-1833393D1*
X6699452Y-1840249D1*
X6714730Y-1849050D1*
X6728811Y-1859661D1*
X6741480Y-1871922D1*
X6752547Y-1885647D1*
X6761844Y-1900628D1*
X6769229Y-1916638D1*
X6774590Y-1933434D1*
X6777847Y-1950761D1*
X6778950Y-1968500D1*
X6777882Y-1985956D1*
X5812459Y-1985976D2*
X5810072Y-2003428D1*
X5806107Y-2020590D1*
X5800598Y-2037320D1*
X5793591Y-2053481D1*
X5785143Y-2068937D1*
X5775324Y-2083561D1*
X5764217Y-2097231D1*
X5751912Y-2109835D1*
X5738512Y-2121267D1*
X5724128Y-2131434D1*
X5708879Y-2140250D1*
X5692892Y-2147644D1*
X5676298Y-2153553D1*
X5659236Y-2157928D1*
X5641847Y-2160734D1*
X5624275Y-2161947D1*
X5606665Y-2161557D1*
X5589164Y-2159567D1*
X5571916Y-2155994D1*
X5555064Y-2150868D1*
X5538749Y-2144230D1*
X5523104Y-2136136D1*
X5508261Y-2126653D1*
X5494341Y-2115859D1*
X5481460Y-2103845D1*
X5469726Y-2090709D1*
X5459234Y-2076560D1*
X5450073Y-2061516D1*
X5442318Y-2045701D1*
X5436032Y-2029246D1*
X5431270Y-2012288D1*
X5428069Y-1994967D1*
X5426456Y-1977427D1*
X5426445Y-1959813D1*
X5428036Y-1942271D1*
X5431215Y-1924946D1*
X5435957Y-1907982D1*
X5442222Y-1891520D1*
X5449957Y-1875695D1*
X5459100Y-1860640D1*
X5469574Y-1846478D1*
X5481292Y-1833327D1*
X5494158Y-1821297D1*
X5508064Y-1810486D1*
X5522896Y-1800984D1*
X5538530Y-1792871D1*
X5554838Y-1786213D1*
X5571683Y-1781065D1*
X5588926Y-1777471D1*
X5606425Y-1775459D1*
X5624034Y-1775047D1*
X5641608Y-1776239D1*
X5659001Y-1779023D1*
X5676068Y-1783377D1*
X5692669Y-1789265D1*
X5708666Y-1796639D1*
X5723926Y-1805437D1*
X5738322Y-1815585D1*
X5751736Y-1827001D1*
X5764056Y-1839590D1*
X5775181Y-1853246D1*
X5785018Y-1867858D1*
X5793485Y-1883303D1*
X5800512Y-1899455D1*
X5806042Y-1916179D1*
X5810028Y-1933336D1*
X5812437Y-1950784D1*
X5813250Y-1968500D1*
X5812459Y-1985976D1*
X7336459D2*
X7334072Y-2003428D1*
X7330107Y-2020590D1*
X7324598Y-2037320D1*
X7317591Y-2053481D1*
X7309143Y-2068937D1*
X7299324Y-2083561D1*
X7288217Y-2097231D1*
X7275912Y-2109835D1*
X7262512Y-2121267D1*
X7248128Y-2131434D1*
X7232879Y-2140250D1*
X7216892Y-2147644D1*
X7200298Y-2153553D1*
X7183236Y-2157928D1*
X7165847Y-2160734D1*
X7148275Y-2161947D1*
X7130665Y-2161557D1*
X7113164Y-2159567D1*
X7095916Y-2155994D1*
X7079064Y-2150868D1*
X7062749Y-2144230D1*
X7047104Y-2136136D1*
X7032261Y-2126653D1*
X7018341Y-2115859D1*
X7005460Y-2103845D1*
X6993726Y-2090709D1*
X6983234Y-2076560D1*
X6974073Y-2061516D1*
X6966318Y-2045701D1*
X6960032Y-2029246D1*
X6955270Y-2012288D1*
X6952069Y-1994967D1*
X6950456Y-1977427D1*
X6950445Y-1959813D1*
X6952036Y-1942271D1*
X6955215Y-1924946D1*
X6959957Y-1907982D1*
X6966222Y-1891520D1*
X6973957Y-1875695D1*
X6983100Y-1860640D1*
X6993574Y-1846478D1*
X7005292Y-1833327D1*
X7018158Y-1821297D1*
X7032064Y-1810486D1*
X7046896Y-1800984D1*
X7062530Y-1792871D1*
X7078838Y-1786213D1*
X7095683Y-1781065D1*
X7112926Y-1777471D1*
X7130425Y-1775459D1*
X7148034Y-1775047D1*
X7165608Y-1776239D1*
X7183001Y-1779023D1*
X7200068Y-1783377D1*
X7216669Y-1789265D1*
X7232666Y-1796639D1*
X7247926Y-1805437D1*
X7262322Y-1815585D1*
X7275736Y-1827001D1*
X7288056Y-1839590D1*
X7299181Y-1853246D1*
X7309018Y-1867858D1*
X7317485Y-1883303D1*
X7324512Y-1899455D1*
X7330042Y-1916179D1*
X7334028Y-1933336D1*
X7336437Y-1950784D1*
X7337250Y-1968500D1*
X7336459Y-1985976D1*
X9000382Y-1985956D2*
X8997160Y-2003291D1*
X8991831Y-2020097D1*
X8984478Y-2036122D1*
X8975211Y-2051121D1*
X8964172Y-2064868D1*
X8951526Y-2077154D1*
X8937467Y-2087793D1*
X8922207Y-2096624D1*
X8905977Y-2103512D1*
X8889024Y-2108354D1*
X8871604Y-2111076D1*
X8853982Y-2111636D1*
X8836425Y-2110027D1*
X8819198Y-2106272D1*
X8802564Y-2100429D1*
X8786773Y-2092586D1*
X8772066Y-2082862D1*
X8758666Y-2071404D1*
X8746775Y-2058386D1*
X8736574Y-2044006D1*
X8728217Y-2028481D1*
X8721832Y-2012047D1*
X8717514Y-1994953D1*
X8715330Y-1977457D1*
X8715313Y-1959826D1*
X8717462Y-1942327D1*
X8721746Y-1925224D1*
X8728098Y-1908777D1*
X8736424Y-1893236D1*
X8746597Y-1878835D1*
X8758462Y-1865794D1*
X8771839Y-1854310D1*
X8786527Y-1844556D1*
X8802302Y-1836682D1*
X8818925Y-1830806D1*
X8836144Y-1827017D1*
X8853698Y-1825372D1*
X8871321Y-1825898D1*
X8888746Y-1828585D1*
X8905709Y-1833393D1*
X8921952Y-1840249D1*
X8937230Y-1849050D1*
X8951311Y-1859661D1*
X8963980Y-1871922D1*
X8975047Y-1885647D1*
X8984344Y-1900628D1*
X8991729Y-1916638D1*
X8997090Y-1933434D1*
X9000347Y-1950761D1*
X9001450Y-1968500D1*
X9000382Y-1985956D1*
X8034959Y-1985976D2*
X8032572Y-2003428D1*
X8028607Y-2020590D1*
X8023098Y-2037320D1*
X8016091Y-2053481D1*
X8007643Y-2068937D1*
X7997824Y-2083561D1*
X7986717Y-2097231D1*
X7974412Y-2109835D1*
X7961012Y-2121267D1*
X7946628Y-2131434D1*
X7931379Y-2140250D1*
X7915392Y-2147644D1*
X7898798Y-2153553D1*
X7881736Y-2157928D1*
X7864347Y-2160734D1*
X7846775Y-2161947D1*
X7829165Y-2161557D1*
X7811664Y-2159567D1*
X7794416Y-2155994D1*
X7777564Y-2150868D1*
X7761249Y-2144230D1*
X7745604Y-2136136D1*
X7730761Y-2126653D1*
X7716841Y-2115859D1*
X7703960Y-2103845D1*
X7692226Y-2090709D1*
X7681734Y-2076560D1*
X7672573Y-2061516D1*
X7664818Y-2045701D1*
X7658532Y-2029246D1*
X7653770Y-2012288D1*
X7650569Y-1994967D1*
X7648956Y-1977427D1*
X7648945Y-1959813D1*
X7650536Y-1942271D1*
X7653715Y-1924946D1*
X7658457Y-1907982D1*
X7664722Y-1891520D1*
X7672457Y-1875695D1*
X7681600Y-1860640D1*
X7692074Y-1846478D1*
X7703792Y-1833327D1*
X7716658Y-1821297D1*
X7730564Y-1810486D1*
X7745396Y-1800984D1*
X7761030Y-1792871D1*
X7777338Y-1786213D1*
X7794183Y-1781065D1*
X7811426Y-1777471D1*
X7828925Y-1775459D1*
X7846534Y-1775047D1*
X7864108Y-1776239D1*
X7881501Y-1779023D1*
X7898568Y-1783377D1*
X7915169Y-1789265D1*
X7931166Y-1796639D1*
X7946426Y-1805437D1*
X7960822Y-1815585D1*
X7974236Y-1827001D1*
X7986556Y-1839590D1*
X7997681Y-1853246D1*
X8007518Y-1867858D1*
X8015985Y-1883303D1*
X8023012Y-1899455D1*
X8028542Y-1916179D1*
X8032528Y-1933336D1*
X8034937Y-1950784D1*
X8035750Y-1968500D1*
X8034959Y-1985976D1*
X9558959D2*
X9556572Y-2003428D1*
X9552607Y-2020590D1*
X9547098Y-2037320D1*
X9540091Y-2053481D1*
X9531643Y-2068937D1*
X9521824Y-2083561D1*
X9510717Y-2097231D1*
X9498412Y-2109835D1*
X9485012Y-2121267D1*
X9470628Y-2131434D1*
X9455379Y-2140250D1*
X9439392Y-2147644D1*
X9422798Y-2153553D1*
X9405736Y-2157928D1*
X9388347Y-2160734D1*
X9370775Y-2161947D1*
X9353165Y-2161557D1*
X9335664Y-2159567D1*
X9318416Y-2155994D1*
X9301564Y-2150868D1*
X9285249Y-2144230D1*
X9269604Y-2136136D1*
X9254761Y-2126653D1*
X9240841Y-2115859D1*
X9227960Y-2103845D1*
X9216226Y-2090709D1*
X9205734Y-2076560D1*
X9196573Y-2061516D1*
X9188818Y-2045701D1*
X9182532Y-2029246D1*
X9177770Y-2012288D1*
X9174569Y-1994967D1*
X9172956Y-1977427D1*
X9172945Y-1959813D1*
X9174536Y-1942271D1*
X9177715Y-1924946D1*
X9182457Y-1907982D1*
X9188722Y-1891520D1*
X9196457Y-1875695D1*
X9205600Y-1860640D1*
X9216074Y-1846478D1*
X9227792Y-1833327D1*
X9240658Y-1821297D1*
X9254564Y-1810486D1*
X9269396Y-1800984D1*
X9285030Y-1792871D1*
X9301338Y-1786213D1*
X9318183Y-1781065D1*
X9335426Y-1777471D1*
X9352925Y-1775459D1*
X9370534Y-1775047D1*
X9388108Y-1776239D1*
X9405501Y-1779023D1*
X9422568Y-1783377D1*
X9439169Y-1789265D1*
X9455166Y-1796639D1*
X9470426Y-1805437D1*
X9484822Y-1815585D1*
X9498236Y-1827001D1*
X9510556Y-1839590D1*
X9521681Y-1853246D1*
X9531518Y-1867858D1*
X9539985Y-1883303D1*
X9547012Y-1899455D1*
X9552542Y-1916179D1*
X9556528Y-1933336D1*
X9558937Y-1950784D1*
X9559750Y-1968500D1*
X9558959Y-1985976D1*
X2364632Y-2684456D2*
X2361410Y-2701791D1*
X2356081Y-2718597D1*
X2348728Y-2734622D1*
X2339461Y-2749621D1*
X2328422Y-2763368D1*
X2315776Y-2775654D1*
X2301717Y-2786293D1*
X2286457Y-2795124D1*
X2270227Y-2802012D1*
X2253274Y-2806854D1*
X2235854Y-2809576D1*
X2218232Y-2810136D1*
X2200675Y-2808527D1*
X2183448Y-2804772D1*
X2166814Y-2798929D1*
X2151023Y-2791086D1*
X2136316Y-2781362D1*
X2122916Y-2769904D1*
X2111025Y-2756886D1*
X2100824Y-2742506D1*
X2092467Y-2726981D1*
X2086082Y-2710547D1*
X2081764Y-2693453D1*
X2079580Y-2675957D1*
X2079563Y-2658326D1*
X2081712Y-2640827D1*
X2085996Y-2623724D1*
X2092348Y-2607277D1*
X2100674Y-2591736D1*
X2110847Y-2577335D1*
X2122712Y-2564294D1*
X2136089Y-2552810D1*
X2150777Y-2543056D1*
X2166552Y-2535182D1*
X2183175Y-2529306D1*
X2200394Y-2525517D1*
X2217948Y-2523872D1*
X2235571Y-2524398D1*
X2252996Y-2527085D1*
X2269959Y-2531893D1*
X2286202Y-2538749D1*
X2301480Y-2547550D1*
X2315561Y-2558161D1*
X2328230Y-2570422D1*
X2339297Y-2584147D1*
X2348594Y-2599128D1*
X2355979Y-2615138D1*
X2361340Y-2631934D1*
X2364597Y-2649261D1*
X2365700Y-2667000D1*
X2364632Y-2684456D1*
X1399209Y-2684476D2*
X1396822Y-2701928D1*
X1392857Y-2719090D1*
X1387348Y-2735820D1*
X1380341Y-2751981D1*
X1371893Y-2767437D1*
X1362074Y-2782061D1*
X1350967Y-2795731D1*
X1338662Y-2808335D1*
X1325262Y-2819767D1*
X1310878Y-2829934D1*
X1295629Y-2838750D1*
X1279642Y-2846144D1*
X1263048Y-2852053D1*
X1245986Y-2856428D1*
X1228597Y-2859234D1*
X1211025Y-2860447D1*
X1193415Y-2860057D1*
X1175914Y-2858067D1*
X1158666Y-2854494D1*
X1141814Y-2849368D1*
X1125499Y-2842730D1*
X1109854Y-2834636D1*
X1095011Y-2825153D1*
X1081091Y-2814359D1*
X1068210Y-2802345D1*
X1056476Y-2789209D1*
X1045984Y-2775060D1*
X1036823Y-2760016D1*
X1029068Y-2744201D1*
X1022782Y-2727746D1*
X1018020Y-2710788D1*
X1014819Y-2693467D1*
X1013206Y-2675927D1*
X1013195Y-2658313D1*
X1014786Y-2640771D1*
X1017965Y-2623446D1*
X1022707Y-2606482D1*
X1028972Y-2590020D1*
X1036707Y-2574195D1*
X1045850Y-2559140D1*
X1056324Y-2544978D1*
X1068042Y-2531827D1*
X1080908Y-2519797D1*
X1094814Y-2508986D1*
X1109646Y-2499484D1*
X1125280Y-2491371D1*
X1141588Y-2484713D1*
X1158433Y-2479565D1*
X1175676Y-2475971D1*
X1193175Y-2473959D1*
X1210784Y-2473547D1*
X1228358Y-2474739D1*
X1245751Y-2477523D1*
X1262818Y-2481877D1*
X1279419Y-2487765D1*
X1295416Y-2495139D1*
X1310676Y-2503937D1*
X1325072Y-2514085D1*
X1338486Y-2525501D1*
X1350806Y-2538090D1*
X1361931Y-2551746D1*
X1371768Y-2566358D1*
X1380235Y-2581803D1*
X1387262Y-2597955D1*
X1392792Y-2614679D1*
X1396778Y-2631836D1*
X1399187Y-2649284D1*
X1400000Y-2667000D1*
X1399209Y-2684476D1*
X2923209D2*
X2920822Y-2701928D1*
X2916857Y-2719090D1*
X2911348Y-2735820D1*
X2904341Y-2751981D1*
X2895893Y-2767437D1*
X2886074Y-2782061D1*
X2874967Y-2795731D1*
X2862662Y-2808335D1*
X2849262Y-2819767D1*
X2834878Y-2829934D1*
X2819629Y-2838750D1*
X2803642Y-2846144D1*
X2787048Y-2852053D1*
X2769986Y-2856428D1*
X2752597Y-2859234D1*
X2735025Y-2860447D1*
X2717415Y-2860057D1*
X2699914Y-2858067D1*
X2682666Y-2854494D1*
X2665814Y-2849368D1*
X2649499Y-2842730D1*
X2633854Y-2834636D1*
X2619011Y-2825153D1*
X2605091Y-2814359D1*
X2592210Y-2802345D1*
X2580476Y-2789209D1*
X2569984Y-2775060D1*
X2560823Y-2760016D1*
X2553068Y-2744201D1*
X2546782Y-2727746D1*
X2542020Y-2710788D1*
X2538819Y-2693467D1*
X2537206Y-2675927D1*
X2537195Y-2658313D1*
X2538786Y-2640771D1*
X2541965Y-2623446D1*
X2546707Y-2606482D1*
X2552972Y-2590020D1*
X2560707Y-2574195D1*
X2569850Y-2559140D1*
X2580324Y-2544978D1*
X2592042Y-2531827D1*
X2604908Y-2519797D1*
X2618814Y-2508986D1*
X2633646Y-2499484D1*
X2649280Y-2491371D1*
X2665588Y-2484713D1*
X2682433Y-2479565D1*
X2699676Y-2475971D1*
X2717175Y-2473959D1*
X2734784Y-2473547D1*
X2752358Y-2474739D1*
X2769751Y-2477523D1*
X2786818Y-2481877D1*
X2803419Y-2487765D1*
X2819416Y-2495139D1*
X2834676Y-2503937D1*
X2849072Y-2514085D1*
X2862486Y-2525501D1*
X2874806Y-2538090D1*
X2885931Y-2551746D1*
X2895768Y-2566358D1*
X2904235Y-2581803D1*
X2911262Y-2597955D1*
X2916792Y-2614679D1*
X2920778Y-2631836D1*
X2923187Y-2649284D1*
X2924000Y-2667000D1*
X2923209Y-2684476D1*
X4555382Y-2684456D2*
X4552160Y-2701791D1*
X4546831Y-2718597D1*
X4539478Y-2734622D1*
X4530211Y-2749621D1*
X4519172Y-2763368D1*
X4506526Y-2775654D1*
X4492467Y-2786293D1*
X4477207Y-2795124D1*
X4460977Y-2802012D1*
X4444024Y-2806854D1*
X4426604Y-2809576D1*
X4408982Y-2810136D1*
X4391425Y-2808527D1*
X4374198Y-2804772D1*
X4357564Y-2798929D1*
X4341773Y-2791086D1*
X4327066Y-2781362D1*
X4313666Y-2769904D1*
X4301775Y-2756886D1*
X4291574Y-2742506D1*
X4283217Y-2726981D1*
X4276832Y-2710547D1*
X4272514Y-2693453D1*
X4270330Y-2675957D1*
X4270313Y-2658326D1*
X4272462Y-2640827D1*
X4276746Y-2623724D1*
X4283098Y-2607277D1*
X4291424Y-2591736D1*
X4301597Y-2577335D1*
X4313462Y-2564294D1*
X4326839Y-2552810D1*
X4341527Y-2543056D1*
X4357302Y-2535182D1*
X4373925Y-2529306D1*
X4391144Y-2525517D1*
X4408698Y-2523872D1*
X4426321Y-2524398D1*
X4443746Y-2527085D1*
X4460709Y-2531893D1*
X4476952Y-2538749D1*
X4492230Y-2547550D1*
X4506311Y-2558161D1*
X4518980Y-2570422D1*
X4530047Y-2584147D1*
X4539344Y-2599128D1*
X4546729Y-2615138D1*
X4552090Y-2631934D1*
X4555347Y-2649261D1*
X4556450Y-2667000D1*
X4555382Y-2684456D1*
X3589959Y-2684476D2*
X3587572Y-2701928D1*
X3583607Y-2719090D1*
X3578098Y-2735820D1*
X3571091Y-2751981D1*
X3562643Y-2767437D1*
X3552824Y-2782061D1*
X3541717Y-2795731D1*
X3529412Y-2808335D1*
X3516012Y-2819767D1*
X3501628Y-2829934D1*
X3486379Y-2838750D1*
X3470392Y-2846144D1*
X3453798Y-2852053D1*
X3436736Y-2856428D1*
X3419347Y-2859234D1*
X3401775Y-2860447D1*
X3384165Y-2860057D1*
X3366664Y-2858067D1*
X3349416Y-2854494D1*
X3332564Y-2849368D1*
X3316249Y-2842730D1*
X3300604Y-2834636D1*
X3285761Y-2825153D1*
X3271841Y-2814359D1*
X3258960Y-2802345D1*
X3247226Y-2789209D1*
X3236734Y-2775060D1*
X3227573Y-2760016D1*
X3219818Y-2744201D1*
X3213532Y-2727746D1*
X3208770Y-2710788D1*
X3205569Y-2693467D1*
X3203956Y-2675927D1*
X3203945Y-2658313D1*
X3205536Y-2640771D1*
X3208715Y-2623446D1*
X3213457Y-2606482D1*
X3219722Y-2590020D1*
X3227457Y-2574195D1*
X3236600Y-2559140D1*
X3247074Y-2544978D1*
X3258792Y-2531827D1*
X3271658Y-2519797D1*
X3285564Y-2508986D1*
X3300396Y-2499484D1*
X3316030Y-2491371D1*
X3332338Y-2484713D1*
X3349183Y-2479565D1*
X3366426Y-2475971D1*
X3383925Y-2473959D1*
X3401534Y-2473547D1*
X3419108Y-2474739D1*
X3436501Y-2477523D1*
X3453568Y-2481877D1*
X3470169Y-2487765D1*
X3486166Y-2495139D1*
X3501426Y-2503937D1*
X3515822Y-2514085D1*
X3529236Y-2525501D1*
X3541556Y-2538090D1*
X3552681Y-2551746D1*
X3562518Y-2566358D1*
X3570985Y-2581803D1*
X3578012Y-2597955D1*
X3583542Y-2614679D1*
X3587528Y-2631836D1*
X3589937Y-2649284D1*
X3590750Y-2667000D1*
X3589959Y-2684476D1*
X5113959D2*
X5111572Y-2701928D1*
X5107607Y-2719090D1*
X5102098Y-2735820D1*
X5095091Y-2751981D1*
X5086643Y-2767437D1*
X5076824Y-2782061D1*
X5065717Y-2795731D1*
X5053412Y-2808335D1*
X5040012Y-2819767D1*
X5025628Y-2829934D1*
X5010379Y-2838750D1*
X4994392Y-2846144D1*
X4977798Y-2852053D1*
X4960736Y-2856428D1*
X4943347Y-2859234D1*
X4925775Y-2860447D1*
X4908165Y-2860057D1*
X4890664Y-2858067D1*
X4873416Y-2854494D1*
X4856564Y-2849368D1*
X4840249Y-2842730D1*
X4824604Y-2834636D1*
X4809761Y-2825153D1*
X4795841Y-2814359D1*
X4782960Y-2802345D1*
X4771226Y-2789209D1*
X4760734Y-2775060D1*
X4751573Y-2760016D1*
X4743818Y-2744201D1*
X4737532Y-2727746D1*
X4732770Y-2710788D1*
X4729569Y-2693467D1*
X4727956Y-2675927D1*
X4727945Y-2658313D1*
X4729536Y-2640771D1*
X4732715Y-2623446D1*
X4737457Y-2606482D1*
X4743722Y-2590020D1*
X4751457Y-2574195D1*
X4760600Y-2559140D1*
X4771074Y-2544978D1*
X4782792Y-2531827D1*
X4795658Y-2519797D1*
X4809564Y-2508986D1*
X4824396Y-2499484D1*
X4840030Y-2491371D1*
X4856338Y-2484713D1*
X4873183Y-2479565D1*
X4890426Y-2475971D1*
X4907925Y-2473959D1*
X4925534Y-2473547D1*
X4943108Y-2474739D1*
X4960501Y-2477523D1*
X4977568Y-2481877D1*
X4994169Y-2487765D1*
X5010166Y-2495139D1*
X5025426Y-2503937D1*
X5039822Y-2514085D1*
X5053236Y-2525501D1*
X5065556Y-2538090D1*
X5076681Y-2551746D1*
X5086518Y-2566358D1*
X5094985Y-2581803D1*
X5102012Y-2597955D1*
X5107542Y-2614679D1*
X5111528Y-2631836D1*
X5113937Y-2649284D1*
X5114750Y-2667000D1*
X5113959Y-2684476D1*
X6777882Y-2684456D2*
X6774660Y-2701791D1*
X6769331Y-2718597D1*
X6761978Y-2734622D1*
X6752711Y-2749621D1*
X6741672Y-2763368D1*
X6729026Y-2775654D1*
X6714967Y-2786293D1*
X6699707Y-2795124D1*
X6683477Y-2802012D1*
X6666524Y-2806854D1*
X6649104Y-2809576D1*
X6631482Y-2810136D1*
X6613925Y-2808527D1*
X6596698Y-2804772D1*
X6580064Y-2798929D1*
X6564273Y-2791086D1*
X6549566Y-2781362D1*
X6536166Y-2769904D1*
X6524275Y-2756886D1*
X6514074Y-2742506D1*
X6505717Y-2726981D1*
X6499332Y-2710547D1*
X6495014Y-2693453D1*
X6492830Y-2675957D1*
X6492813Y-2658326D1*
X6494962Y-2640827D1*
X6499246Y-2623724D1*
X6505598Y-2607277D1*
X6513924Y-2591736D1*
X6524097Y-2577335D1*
X6535962Y-2564294D1*
X6549339Y-2552810D1*
X6564027Y-2543056D1*
X6579802Y-2535182D1*
X6596425Y-2529306D1*
X6613644Y-2525517D1*
X6631198Y-2523872D1*
X6648821Y-2524398D1*
X6666246Y-2527085D1*
X6683209Y-2531893D1*
X6699452Y-2538749D1*
X6714730Y-2547550D1*
X6728811Y-2558161D1*
X6741480Y-2570422D1*
X6752547Y-2584147D1*
X6761844Y-2599128D1*
X6769229Y-2615138D1*
X6774590Y-2631934D1*
X6777847Y-2649261D1*
X6778950Y-2667000D1*
X6777882Y-2684456D1*
X5812459Y-2684476D2*
X5810072Y-2701928D1*
X5806107Y-2719090D1*
X5800598Y-2735820D1*
X5793591Y-2751981D1*
X5785143Y-2767437D1*
X5775324Y-2782061D1*
X5764217Y-2795731D1*
X5751912Y-2808335D1*
X5738512Y-2819767D1*
X5724128Y-2829934D1*
X5708879Y-2838750D1*
X5692892Y-2846144D1*
X5676298Y-2852053D1*
X5659236Y-2856428D1*
X5641847Y-2859234D1*
X5624275Y-2860447D1*
X5606665Y-2860057D1*
X5589164Y-2858067D1*
X5571916Y-2854494D1*
X5555064Y-2849368D1*
X5538749Y-2842730D1*
X5523104Y-2834636D1*
X5508261Y-2825153D1*
X5494341Y-2814359D1*
X5481460Y-2802345D1*
X5469726Y-2789209D1*
X5459234Y-2775060D1*
X5450073Y-2760016D1*
X5442318Y-2744201D1*
X5436032Y-2727746D1*
X5431270Y-2710788D1*
X5428069Y-2693467D1*
X5426456Y-2675927D1*
X5426445Y-2658313D1*
X5428036Y-2640771D1*
X5431215Y-2623446D1*
X5435957Y-2606482D1*
X5442222Y-2590020D1*
X5449957Y-2574195D1*
X5459100Y-2559140D1*
X5469574Y-2544978D1*
X5481292Y-2531827D1*
X5494158Y-2519797D1*
X5508064Y-2508986D1*
X5522896Y-2499484D1*
X5538530Y-2491371D1*
X5554838Y-2484713D1*
X5571683Y-2479565D1*
X5588926Y-2475971D1*
X5606425Y-2473959D1*
X5624034Y-2473547D1*
X5641608Y-2474739D1*
X5659001Y-2477523D1*
X5676068Y-2481877D1*
X5692669Y-2487765D1*
X5708666Y-2495139D1*
X5723926Y-2503937D1*
X5738322Y-2514085D1*
X5751736Y-2525501D1*
X5764056Y-2538090D1*
X5775181Y-2551746D1*
X5785018Y-2566358D1*
X5793485Y-2581803D1*
X5800512Y-2597955D1*
X5806042Y-2614679D1*
X5810028Y-2631836D1*
X5812437Y-2649284D1*
X5813250Y-2667000D1*
X5812459Y-2684476D1*
X7336459D2*
X7334072Y-2701928D1*
X7330107Y-2719090D1*
X7324598Y-2735820D1*
X7317591Y-2751981D1*
X7309143Y-2767437D1*
X7299324Y-2782061D1*
X7288217Y-2795731D1*
X7275912Y-2808335D1*
X7262512Y-2819767D1*
X7248128Y-2829934D1*
X7232879Y-2838750D1*
X7216892Y-2846144D1*
X7200298Y-2852053D1*
X7183236Y-2856428D1*
X7165847Y-2859234D1*
X7148275Y-2860447D1*
X7130665Y-2860057D1*
X7113164Y-2858067D1*
X7095916Y-2854494D1*
X7079064Y-2849368D1*
X7062749Y-2842730D1*
X7047104Y-2834636D1*
X7032261Y-2825153D1*
X7018341Y-2814359D1*
X7005460Y-2802345D1*
X6993726Y-2789209D1*
X6983234Y-2775060D1*
X6974073Y-2760016D1*
X6966318Y-2744201D1*
X6960032Y-2727746D1*
X6955270Y-2710788D1*
X6952069Y-2693467D1*
X6950456Y-2675927D1*
X6950445Y-2658313D1*
X6952036Y-2640771D1*
X6955215Y-2623446D1*
X6959957Y-2606482D1*
X6966222Y-2590020D1*
X6973957Y-2574195D1*
X6983100Y-2559140D1*
X6993574Y-2544978D1*
X7005292Y-2531827D1*
X7018158Y-2519797D1*
X7032064Y-2508986D1*
X7046896Y-2499484D1*
X7062530Y-2491371D1*
X7078838Y-2484713D1*
X7095683Y-2479565D1*
X7112926Y-2475971D1*
X7130425Y-2473959D1*
X7148034Y-2473547D1*
X7165608Y-2474739D1*
X7183001Y-2477523D1*
X7200068Y-2481877D1*
X7216669Y-2487765D1*
X7232666Y-2495139D1*
X7247926Y-2503937D1*
X7262322Y-2514085D1*
X7275736Y-2525501D1*
X7288056Y-2538090D1*
X7299181Y-2551746D1*
X7309018Y-2566358D1*
X7317485Y-2581803D1*
X7324512Y-2597955D1*
X7330042Y-2614679D1*
X7334028Y-2631836D1*
X7336437Y-2649284D1*
X7337250Y-2667000D1*
X7336459Y-2684476D1*
X9000382Y-2684456D2*
X8997160Y-2701791D1*
X8991831Y-2718597D1*
X8984478Y-2734622D1*
X8975211Y-2749621D1*
X8964172Y-2763368D1*
X8951526Y-2775654D1*
X8937467Y-2786293D1*
X8922207Y-2795124D1*
X8905977Y-2802012D1*
X8889024Y-2806854D1*
X8871604Y-2809576D1*
X8853982Y-2810136D1*
X8836425Y-2808527D1*
X8819198Y-2804772D1*
X8802564Y-2798929D1*
X8786773Y-2791086D1*
X8772066Y-2781362D1*
X8758666Y-2769904D1*
X8746775Y-2756886D1*
X8736574Y-2742506D1*
X8728217Y-2726981D1*
X8721832Y-2710547D1*
X8717514Y-2693453D1*
X8715330Y-2675957D1*
X8715313Y-2658326D1*
X8717462Y-2640827D1*
X8721746Y-2623724D1*
X8728098Y-2607277D1*
X8736424Y-2591736D1*
X8746597Y-2577335D1*
X8758462Y-2564294D1*
X8771839Y-2552810D1*
X8786527Y-2543056D1*
X8802302Y-2535182D1*
X8818925Y-2529306D1*
X8836144Y-2525517D1*
X8853698Y-2523872D1*
X8871321Y-2524398D1*
X8888746Y-2527085D1*
X8905709Y-2531893D1*
X8921952Y-2538749D1*
X8937230Y-2547550D1*
X8951311Y-2558161D1*
X8963980Y-2570422D1*
X8975047Y-2584147D1*
X8984344Y-2599128D1*
X8991729Y-2615138D1*
X8997090Y-2631934D1*
X9000347Y-2649261D1*
X9001450Y-2667000D1*
X9000382Y-2684456D1*
X8034959Y-2684476D2*
X8032572Y-2701928D1*
X8028607Y-2719090D1*
X8023098Y-2735820D1*
X8016091Y-2751981D1*
X8007643Y-2767437D1*
X7997824Y-2782061D1*
X7986717Y-2795731D1*
X7974412Y-2808335D1*
X7961012Y-2819767D1*
X7946628Y-2829934D1*
X7931379Y-2838750D1*
X7915392Y-2846144D1*
X7898798Y-2852053D1*
X7881736Y-2856428D1*
X7864347Y-2859234D1*
X7846775Y-2860447D1*
X7829165Y-2860057D1*
X7811664Y-2858067D1*
X7794416Y-2854494D1*
X7777564Y-2849368D1*
X7761249Y-2842730D1*
X7745604Y-2834636D1*
X7730761Y-2825153D1*
X7716841Y-2814359D1*
X7703960Y-2802345D1*
X7692226Y-2789209D1*
X7681734Y-2775060D1*
X7672573Y-2760016D1*
X7664818Y-2744201D1*
X7658532Y-2727746D1*
X7653770Y-2710788D1*
X7650569Y-2693467D1*
X7648956Y-2675927D1*
X7648945Y-2658313D1*
X7650536Y-2640771D1*
X7653715Y-2623446D1*
X7658457Y-2606482D1*
X7664722Y-2590020D1*
X7672457Y-2574195D1*
X7681600Y-2559140D1*
X7692074Y-2544978D1*
X7703792Y-2531827D1*
X7716658Y-2519797D1*
X7730564Y-2508986D1*
X7745396Y-2499484D1*
X7761030Y-2491371D1*
X7777338Y-2484713D1*
X7794183Y-2479565D1*
X7811426Y-2475971D1*
X7828925Y-2473959D1*
X7846534Y-2473547D1*
X7864108Y-2474739D1*
X7881501Y-2477523D1*
X7898568Y-2481877D1*
X7915169Y-2487765D1*
X7931166Y-2495139D1*
X7946426Y-2503937D1*
X7960822Y-2514085D1*
X7974236Y-2525501D1*
X7986556Y-2538090D1*
X7997681Y-2551746D1*
X8007518Y-2566358D1*
X8015985Y-2581803D1*
X8023012Y-2597955D1*
X8028542Y-2614679D1*
X8032528Y-2631836D1*
X8034937Y-2649284D1*
X8035750Y-2667000D1*
X8034959Y-2684476D1*
X9558959D2*
X9556572Y-2701928D1*
X9552607Y-2719090D1*
X9547098Y-2735820D1*
X9540091Y-2751981D1*
X9531643Y-2767437D1*
X9521824Y-2782061D1*
X9510717Y-2795731D1*
X9498412Y-2808335D1*
X9485012Y-2819767D1*
X9470628Y-2829934D1*
X9455379Y-2838750D1*
X9439392Y-2846144D1*
X9422798Y-2852053D1*
X9405736Y-2856428D1*
X9388347Y-2859234D1*
X9370775Y-2860447D1*
X9353165Y-2860057D1*
X9335664Y-2858067D1*
X9318416Y-2854494D1*
X9301564Y-2849368D1*
X9285249Y-2842730D1*
X9269604Y-2834636D1*
X9254761Y-2825153D1*
X9240841Y-2814359D1*
X9227960Y-2802345D1*
X9216226Y-2789209D1*
X9205734Y-2775060D1*
X9196573Y-2760016D1*
X9188818Y-2744201D1*
X9182532Y-2727746D1*
X9177770Y-2710788D1*
X9174569Y-2693467D1*
X9172956Y-2675927D1*
X9172945Y-2658313D1*
X9174536Y-2640771D1*
X9177715Y-2623446D1*
X9182457Y-2606482D1*
X9188722Y-2590020D1*
X9196457Y-2574195D1*
X9205600Y-2559140D1*
X9216074Y-2544978D1*
X9227792Y-2531827D1*
X9240658Y-2519797D1*
X9254564Y-2508986D1*
X9269396Y-2499484D1*
X9285030Y-2491371D1*
X9301338Y-2484713D1*
X9318183Y-2479565D1*
X9335426Y-2475971D1*
X9352925Y-2473959D1*
X9370534Y-2473547D1*
X9388108Y-2474739D1*
X9405501Y-2477523D1*
X9422568Y-2481877D1*
X9439169Y-2487765D1*
X9455166Y-2495139D1*
X9470426Y-2503937D1*
X9484822Y-2514085D1*
X9498236Y-2525501D1*
X9510556Y-2538090D1*
X9521681Y-2551746D1*
X9531518Y-2566358D1*
X9539985Y-2581803D1*
X9547012Y-2597955D1*
X9552542Y-2614679D1*
X9556528Y-2631836D1*
X9558937Y-2649284D1*
X9559750Y-2667000D1*
X9558959Y-2684476D1*
X4128476Y-5811823D2*
X4124909Y-5829087D1*
X4119024Y-5845704D1*
X4110931Y-5861365D1*
X4100780Y-5875778D1*
X4088762Y-5888674D1*
X4075100Y-5899814D1*
X4060048Y-5908990D1*
X4043887Y-5916031D1*
X4026917Y-5920806D1*
X4009456Y-5923226D1*
X3991828Y-5923245D1*
X3974361Y-5920864D1*
X3957381Y-5916127D1*
X3941204Y-5909121D1*
X3926132Y-5899978D1*
X3912445Y-5888868D1*
X3900399Y-5875998D1*
X3890217Y-5861607D1*
X3882090Y-5845964D1*
X3876168Y-5829360D1*
X3872562Y-5812105D1*
X3871340Y-5794519D1*
X3872524Y-5776930D1*
X3876091Y-5759667D1*
X3881976Y-5743050D1*
X3890069Y-5727389D1*
X3900220Y-5712976D1*
X3912238Y-5700079D1*
X3925900Y-5688939D1*
X3940952Y-5679763D1*
X3957113Y-5672722D1*
X3974083Y-5667947D1*
X3991544Y-5665528D1*
X4009172Y-5665508D1*
X4026639Y-5667889D1*
X4043619Y-5672627D1*
X4059796Y-5679632D1*
X4074868Y-5688775D1*
X4088555Y-5699885D1*
X4100601Y-5712755D1*
X4110783Y-5727146D1*
X4118910Y-5742789D1*
X4124832Y-5759393D1*
X4128438Y-5776649D1*
X4129660Y-5794377D1*
X4128476Y-5811823D1*
X3645876D2*
X3642309Y-5829087D1*
X3636424Y-5845704D1*
X3628331Y-5861365D1*
X3618180Y-5875778D1*
X3606162Y-5888674D1*
X3592500Y-5899814D1*
X3577448Y-5908990D1*
X3561287Y-5916031D1*
X3544317Y-5920806D1*
X3526856Y-5923226D1*
X3509228Y-5923245D1*
X3491761Y-5920864D1*
X3474781Y-5916127D1*
X3458604Y-5909121D1*
X3443532Y-5899978D1*
X3429845Y-5888868D1*
X3417799Y-5875998D1*
X3407617Y-5861607D1*
X3399490Y-5845964D1*
X3393568Y-5829360D1*
X3389962Y-5812105D1*
X3388740Y-5794519D1*
X3389924Y-5776930D1*
X3393491Y-5759667D1*
X3399376Y-5743050D1*
X3407469Y-5727389D1*
X3417620Y-5712976D1*
X3429638Y-5700079D1*
X3443300Y-5688939D1*
X3458352Y-5679763D1*
X3474513Y-5672722D1*
X3491483Y-5667947D1*
X3508944Y-5665528D1*
X3526572Y-5665508D1*
X3544039Y-5667889D1*
X3561019Y-5672627D1*
X3577196Y-5679632D1*
X3592268Y-5688775D1*
X3605955Y-5699885D1*
X3618001Y-5712755D1*
X3628183Y-5727146D1*
X3636310Y-5742789D1*
X3642232Y-5759393D1*
X3645838Y-5776649D1*
X3647060Y-5794377D1*
X3645876Y-5811823D1*
X1774682Y-5883998D2*
X1772337Y-5889579D1*
X1768287Y-5897694D1*
X1765234Y-5902922D1*
X1760160Y-5910440D1*
X1756608Y-5915028D1*
X1753097Y-5919238D1*
X1750477Y-5921983D1*
X1746141Y-5926280D1*
X1739296Y-5932230D1*
X1734477Y-5935894D1*
X1726914Y-5940902D1*
X1721659Y-5943906D1*
X1713508Y-5947885D1*
X1707906Y-5950179D1*
X1699307Y-5953061D1*
X1697428Y-5953557D1*
X1694397Y-5955839D1*
X1686971Y-5960721D1*
X1683419Y-5962741D1*
X1675430Y-5966634D1*
X1671649Y-5968184D1*
X1663228Y-5971024D1*
X1659280Y-5972077D1*
X1650565Y-5973817D1*
X1646514Y-5974358D1*
X1637648Y-5974970D1*
X1633562Y-5974989D1*
X1624691Y-5974462D1*
X1620636Y-5973959D1*
X1611904Y-5972303D1*
X1608191Y-5971350D1*
X1599541Y-5968544D1*
X1595704Y-5967012D1*
X1587677Y-5963197D1*
X1584107Y-5961209D1*
X1576634Y-5956399D1*
X1573347Y-5953971D1*
X1566550Y-5948246D1*
X1563601Y-5945418D1*
X1557591Y-5938870D1*
X1555028Y-5935689D1*
X1549904Y-5928427D1*
X1547909Y-5925176D1*
X1545174Y-5923872D1*
X1537484Y-5919593D1*
X1531263Y-5915593D1*
X1524176Y-5910375D1*
X1518511Y-5905620D1*
X1512142Y-5899547D1*
X1507124Y-5894114D1*
X1501575Y-5887283D1*
X1497285Y-5881259D1*
X1492644Y-5873781D1*
X1489151Y-5867262D1*
X1485494Y-5859257D1*
X1482855Y-5852348D1*
X1481446Y-5848299D1*
X1479619Y-5846728D1*
X1473049Y-5840277D1*
X1469157Y-5835911D1*
X1463498Y-5828647D1*
X1460218Y-5823804D1*
X1455571Y-5815856D1*
X1452961Y-5810621D1*
X1449406Y-5802127D1*
X1447512Y-5796593D1*
X1445113Y-5787703D1*
X1443968Y-5781967D1*
X1442767Y-5772838D1*
X1442391Y-5767001D1*
X1442409Y-5757794D1*
X1442809Y-5751958D1*
X1444046Y-5742834D1*
X1445215Y-5737102D1*
X1447648Y-5728222D1*
X1449566Y-5722696D1*
X1453153Y-5714216D1*
X1455785Y-5708992D1*
X1458536Y-5704043D1*
X1459233Y-5700611D1*
X1461668Y-5691700D1*
X1464391Y-5683838D1*
X1467989Y-5675329D1*
X1471732Y-5667899D1*
X1476428Y-5659944D1*
X1481125Y-5653076D1*
X1486836Y-5645816D1*
X1493697Y-5638234D1*
X1498995Y-5633225D1*
X1505369Y-5627808D1*
X1512791Y-5622308D1*
X1519791Y-5617810D1*
X1527877Y-5613344D1*
X1535413Y-5609817D1*
X1544021Y-5606465D1*
X1551958Y-5603970D1*
X1560935Y-5601792D1*
X1569134Y-5600373D1*
X1578321Y-5599407D1*
X1586635Y-5599090D1*
X1603698Y-5597040D1*
X1607070Y-5596144D1*
X1615990Y-5594386D1*
X1622842Y-5593497D1*
X1631915Y-5592920D1*
X1638825Y-5592934D1*
X1647896Y-5593547D1*
X1654745Y-5594464D1*
X1663658Y-5596257D1*
X1670328Y-5598061D1*
X1678930Y-5601004D1*
X1685307Y-5603664D1*
X1693451Y-5607706D1*
X1699426Y-5611177D1*
X1706972Y-5616248D1*
X1713817Y-5621556D1*
X1719225Y-5626447D1*
X1721650Y-5628884D1*
X1727308Y-5630869D1*
X1735901Y-5634550D1*
X1742480Y-5637910D1*
X1750500Y-5642713D1*
X1756568Y-5646927D1*
X1763870Y-5652764D1*
X1769316Y-5657755D1*
X1775767Y-5664521D1*
X1780493Y-5670199D1*
X1785976Y-5677770D1*
X1789896Y-5684032D1*
X1796353Y-5693248D1*
X1800855Y-5697812D1*
X1806812Y-5704700D1*
X1810677Y-5709813D1*
X1815680Y-5717422D1*
X1818843Y-5722998D1*
X1822807Y-5731196D1*
X1825212Y-5737138D1*
X1828068Y-5745784D1*
X1829675Y-5751990D1*
X1831374Y-5760936D1*
X1832125Y-5767048D1*
X1832669Y-5776344D1*
X1832608Y-5782801D1*
X1831927Y-5791881D1*
X1831028Y-5798228D1*
X1829164Y-5807142D1*
X1827442Y-5813316D1*
X1824427Y-5821909D1*
X1821911Y-5827805D1*
X1817796Y-5835928D1*
X1814530Y-5841444D1*
X1809388Y-5848959D1*
X1805428Y-5854000D1*
X1799345Y-5860777D1*
X1794759Y-5865256D1*
X1787841Y-5871178D1*
X1782708Y-5875018D1*
X1774682Y-5883998D1*
X3320586Y-4465692D2*
X3324281Y-4448595D1*
X3331107Y-4432492D1*
X3316231Y-4430450D1*
X2937190Y-4430446D1*
X2927503Y-4437615D1*
X2911875Y-4445499D1*
X2895140Y-4450628D1*
X2877778Y-4452856D1*
X2860290Y-4452117D1*
X2843178Y-4448434D1*
X2826935Y-4441911D1*
X2812027Y-4432737D1*
X2798885Y-4421176D1*
X2787885Y-4407560D1*
X2779345Y-4392281D1*
X2773510Y-4375778D1*
X2770547Y-4358527D1*
X2770543Y-4341023D1*
X2773497Y-4323770D1*
X2779324Y-4307265D1*
X2787857Y-4291981D1*
X2798850Y-4278360D1*
X2811987Y-4266792D1*
X2826890Y-4257611D1*
X2843130Y-4251081D1*
X2860240Y-4247389D1*
X2877728Y-4246642D1*
X2895091Y-4248861D1*
X2911829Y-4253983D1*
X2927461Y-4261859D1*
X2937179Y-4269043D1*
X2993790Y-4269055D1*
X2992797Y-4263277D1*
X2992793Y-4245773D1*
X2995747Y-4228520D1*
X3001574Y-4212015D1*
X3010107Y-4196731D1*
X3021100Y-4183110D1*
X3034237Y-4171542D1*
X3049140Y-4162361D1*
X3065380Y-4155831D1*
X3082490Y-4152139D1*
X3099978Y-4151392D1*
X3117341Y-4153611D1*
X3134079Y-4158733D1*
X3149711Y-4166609D1*
X3159429Y-4173793D1*
X3295416Y-4173805D1*
X3294424Y-4168027D1*
X3294433Y-4150336D1*
X3289663Y-4153625D1*
X3273780Y-4160982D1*
X3256883Y-4165550D1*
X3239456Y-4167196D1*
X3222002Y-4165873D1*
X3205023Y-4161619D1*
X3189007Y-4154558D1*
X3174414Y-4144891D1*
X3161666Y-4132897D1*
X3151127Y-4118920D1*
X3143102Y-4103364D1*
X3137822Y-4086676D1*
X3135438Y-4069335D1*
X3136019Y-4051841D1*
X3139548Y-4034696D1*
X3145924Y-4018395D1*
X3154962Y-4003405D1*
X3166405Y-3990159D1*
X3179921Y-3979037D1*
X3195122Y-3970359D1*
X3211572Y-3964375D1*
X3228796Y-3961257D1*
X3246299Y-3961095D1*
X3263578Y-3963893D1*
X3280135Y-3969571D1*
X3295495Y-3977966D1*
X3302234Y-3983305D1*
X3533214Y-3983300D1*
X3532547Y-3977527D1*
X3532543Y-3960023D1*
X3533538Y-3954210D1*
X2822155Y-3954200D1*
X2763076D1*
X2752880Y-3961365D1*
X2737252Y-3969249D1*
X2720517Y-3974378D1*
X2703155Y-3976606D1*
X2685667Y-3975867D1*
X2668555Y-3972184D1*
X2652311Y-3965661D1*
X2637404Y-3956487D1*
X2624261Y-3944926D1*
X2613262Y-3931310D1*
X2604722Y-3916031D1*
X2598886Y-3899528D1*
X2595924Y-3882277D1*
X2595920Y-3864773D1*
X2598874Y-3847520D1*
X2604701Y-3831015D1*
X2613234Y-3815731D1*
X2624227Y-3802110D1*
X2637364Y-3790542D1*
X2652267Y-3781361D1*
X2668507Y-3774831D1*
X2685617Y-3771139D1*
X2703105Y-3770392D1*
X2720468Y-3772611D1*
X2737206Y-3777733D1*
X2752837Y-3785609D1*
X2762555Y-3792793D1*
X4507674Y-3792800D1*
X4510614Y-3790542D1*
X4525517Y-3781361D1*
X4541757Y-3774831D1*
X4558867Y-3771139D1*
X4576355Y-3770392D1*
X4593718Y-3772611D1*
X4610456Y-3777733D1*
X4626087Y-3785609D1*
X4640163Y-3796014D1*
X4652278Y-3808648D1*
X4662083Y-3823148D1*
X4669297Y-3839096D1*
X4673711Y-3856034D1*
X4675200Y-3873500D1*
X4673964Y-3888042D1*
X5841173Y-3888050D1*
X5844114Y-3885792D1*
X5859017Y-3876611D1*
X5875257Y-3870081D1*
X5892367Y-3866389D1*
X5909855Y-3865642D1*
X5927218Y-3867861D1*
X5943956Y-3872983D1*
X5959587Y-3880859D1*
X5973663Y-3891264D1*
X5985778Y-3903898D1*
X5995583Y-3918398D1*
X6002797Y-3934346D1*
X6007211Y-3951284D1*
X6008700Y-3968750D1*
X6007220Y-3986166D1*
X6002813Y-4003106D1*
X5995607Y-4019058D1*
X5985809Y-4033563D1*
X5973700Y-4046203D1*
X5959630Y-4056615D1*
X5944002Y-4064499D1*
X5927267Y-4069628D1*
X5909905Y-4071856D1*
X5892417Y-4071117D1*
X5875305Y-4067434D1*
X5859061Y-4060911D1*
X5844154Y-4051737D1*
X5841549Y-4049445D1*
X5118670Y-4049450D1*
X5119700Y-4064000D1*
X5118464Y-4078542D1*
X6652252Y-4078550D1*
X7634183D1*
X7771171Y-3941579D1*
X8025461Y-3687288D1*
X8028124Y-3672897D1*
X8033951Y-3656391D1*
X8042484Y-3641108D1*
X8053477Y-3627487D1*
X8066614Y-3615919D1*
X8081517Y-3606738D1*
X8097757Y-3600208D1*
X8114867Y-3596516D1*
X8132355Y-3595769D1*
X8149718Y-3597988D1*
X8166456Y-3603109D1*
X8182087Y-3610986D1*
X8196163Y-3621391D1*
X8208278Y-3634025D1*
X8218083Y-3648525D1*
X8225297Y-3664473D1*
X8229711Y-3681411D1*
X8231200Y-3698877D1*
X8229720Y-3716293D1*
X8225313Y-3733233D1*
X8218107Y-3749185D1*
X8208309Y-3763690D1*
X8196200Y-3776330D1*
X8182130Y-3786741D1*
X8166502Y-3794625D1*
X8149767Y-3799755D1*
X8139984Y-3801010D1*
X7724690Y-4216314D1*
X7711076Y-4227255D1*
X7695427Y-4235010D1*
X7678458Y-4239218D1*
X7667575Y-4239950D1*
X7340960Y-4239947D1*
X7342200Y-4254500D1*
X7340964Y-4269042D1*
X7745314Y-4269050D1*
X8372525Y-3641847D1*
X8374252Y-3640169D1*
X8388179Y-3629630D1*
X8404048Y-3622334D1*
X8421115Y-3618623D1*
X8429627Y-3618173D1*
X9397561Y-3618164D1*
X9400114Y-3615916D1*
X9415017Y-3606735D1*
X9431257Y-3600204D1*
X9448367Y-3596512D1*
X9465855Y-3595765D1*
X9483218Y-3597984D1*
X9499956Y-3603106D1*
X9515587Y-3610982D1*
X9529663Y-3621387D1*
X9541778Y-3634022D1*
X9551583Y-3648521D1*
X9558797Y-3664470D1*
X9563211Y-3681408D1*
X9564700Y-3698873D1*
X9563220Y-3716290D1*
X9558813Y-3733230D1*
X9551607Y-3749182D1*
X9541809Y-3763686D1*
X9529700Y-3776326D1*
X9515630Y-3786738D1*
X9500002Y-3794622D1*
X9483267Y-3799752D1*
X9465905Y-3801979D1*
X9448417Y-3801241D1*
X9431305Y-3797557D1*
X9415061Y-3791035D1*
X9400154Y-3781861D1*
X9397549Y-3779569D1*
X8463055Y-3779574D1*
X7835814Y-4406814D1*
X7822200Y-4417755D1*
X7806550Y-4425511D1*
X7789582Y-4429718D1*
X7778699Y-4430450D1*
X7182210Y-4430447D1*
X7183450Y-4445000D1*
X7181970Y-4462416D1*
X7177563Y-4479356D1*
X7170357Y-4495308D1*
X7160559Y-4509813D1*
X7148450Y-4522453D1*
X7134380Y-4532865D1*
X7118752Y-4540749D1*
X7102017Y-4545878D1*
X7084655Y-4548106D1*
X7067167Y-4547367D1*
X7050055Y-4543684D1*
X7033811Y-4537161D1*
X7018904Y-4527987D1*
X7016299Y-4525695D1*
X5722935Y-4525700D1*
X5721466Y-4541790D1*
X5717060Y-4558730D1*
X5709854Y-4574682D1*
X5700056Y-4589186D1*
X5687947Y-4601826D1*
X5687136Y-4602426D1*
X7316687Y-4602427D1*
X7342823Y-4576297D1*
X7345494Y-4561897D1*
X7351321Y-4545391D1*
X7359854Y-4530108D1*
X7370847Y-4516487D1*
X7383984Y-4504919D1*
X7398887Y-4495738D1*
X7415127Y-4489208D1*
X7432237Y-4485516D1*
X7449725Y-4484769D1*
X7467088Y-4486988D1*
X7483826Y-4492109D1*
X7499457Y-4499986D1*
X7513533Y-4510391D1*
X7525648Y-4523025D1*
X7535453Y-4537525D1*
X7542667Y-4553473D1*
X7547081Y-4570411D1*
X7548570Y-4587877D1*
X7547090Y-4605293D1*
X7542683Y-4622233D1*
X7535477Y-4638185D1*
X7525679Y-4652690D1*
X7513570Y-4665330D1*
X7500311Y-4675141D1*
X7513536Y-4685014D1*
X7525651Y-4697648D1*
X7535456Y-4712148D1*
X7542670Y-4728096D1*
X7547085Y-4745034D1*
X7548461Y-4761164D1*
X7618325Y-4761173D1*
X8470203Y-3909283D1*
X8472624Y-3895147D1*
X8478451Y-3878641D1*
X8486984Y-3863358D1*
X8497977Y-3849737D1*
X8511114Y-3838169D1*
X8526017Y-3828988D1*
X8542257Y-3822458D1*
X8559367Y-3818766D1*
X8576855Y-3818019D1*
X8594218Y-3820238D1*
X8610956Y-3825359D1*
X8626587Y-3833236D1*
X8640663Y-3843641D1*
X8652778Y-3856275D1*
X8662583Y-3870775D1*
X8669797Y-3886723D1*
X8674211Y-3903661D1*
X8675700Y-3921127D1*
X8674220Y-3938543D1*
X8669813Y-3955483D1*
X8662607Y-3971435D1*
X8652809Y-3985940D1*
X8640700Y-3998580D1*
X8626630Y-4008991D1*
X8611002Y-4016875D1*
X8594267Y-4022005D1*
X8584484Y-4023260D1*
X7708817Y-4898937D1*
X7695203Y-4909878D1*
X7679554Y-4917634D1*
X7662585Y-4921842D1*
X7651702Y-4922574D1*
X6836604Y-4922571D1*
X6848587Y-4928609D1*
X6862663Y-4939014D1*
X6874778Y-4951648D1*
X6884583Y-4966148D1*
X6891797Y-4982096D1*
X6896211Y-4999034D1*
X6897700Y-5016500D1*
X6896464Y-5031042D1*
X7792943Y-5031050D1*
X8914462Y-3909534D1*
X8917124Y-3895143D1*
X8922951Y-3878638D1*
X8931484Y-3863355D1*
X8942477Y-3849733D1*
X8955614Y-3838166D1*
X8970517Y-3828985D1*
X8986757Y-3822454D1*
X9003867Y-3818762D1*
X9021355Y-3818015D1*
X9038718Y-3820234D1*
X9055456Y-3825356D1*
X9071087Y-3833232D1*
X9085163Y-3843637D1*
X9097278Y-3856272D1*
X9107083Y-3870771D1*
X9114297Y-3886720D1*
X9118711Y-3903658D1*
X9120200Y-3921123D1*
X9118720Y-3938540D1*
X9114313Y-3955480D1*
X9107107Y-3971432D1*
X9097309Y-3985936D1*
X9085200Y-3998576D1*
X9071130Y-4008988D1*
X9055502Y-4016872D1*
X9038767Y-4022002D1*
X9028984Y-4023257D1*
X7883437Y-5168814D1*
X7869823Y-5179755D1*
X7854174Y-5187511D1*
X7837205Y-5191718D1*
X7826322Y-5192450D1*
X5018175Y-5192452D1*
X4771937Y-5438690D1*
X4758323Y-5449631D1*
X4742674Y-5457387D1*
X4725705Y-5461595D1*
X4714823Y-5462327D1*
X3510060Y-5462324D1*
X3454320Y-5518064D1*
X3440706Y-5529005D1*
X3425057Y-5536760D1*
X3408088Y-5540968D1*
X3397210Y-5541700D1*
X3302317Y-5541696D1*
X3292630Y-5548865D1*
X3277002Y-5556749D1*
X3260267Y-5561878D1*
X3242905Y-5564106D1*
X3225417Y-5563367D1*
X3208305Y-5559684D1*
X3192061Y-5553161D1*
X3177154Y-5543987D1*
X3164011Y-5532426D1*
X3153012Y-5518810D1*
X3144472Y-5503531D1*
X3138636Y-5487028D1*
X3135674Y-5469777D1*
X3135670Y-5452273D1*
X3136665Y-5446460D1*
X2478010Y-5446450D1*
X2206667D1*
X2204269Y-5446416D1*
X2186968Y-5444020D1*
X2170588Y-5437958D1*
X2155896Y-5428514D1*
X2149560Y-5422814D1*
X2006722Y-5279976D1*
X2005046Y-5278251D1*
X1994507Y-5264324D1*
X1987211Y-5248455D1*
X1983500Y-5231388D1*
X1983050Y-5222877D1*
X1983042Y-4794477D1*
X1978262Y-4788560D1*
X1969722Y-4773281D1*
X1963886Y-4756778D1*
X1960924Y-4739527D1*
X1960920Y-4722023D1*
X1963874Y-4704770D1*
X1969701Y-4688265D1*
X1978234Y-4672981D1*
X1989227Y-4659360D1*
X2002364Y-4647792D1*
X2017267Y-4638611D1*
X2033507Y-4632081D1*
X2040508Y-4630570D1*
X2040601Y-4630172D1*
X2040297Y-4628404D1*
X2040293Y-4610900D1*
X2043247Y-4593647D1*
X2049074Y-4577141D1*
X2057607Y-4561858D1*
X2068600Y-4548237D1*
X2081737Y-4536669D1*
X2096640Y-4527488D1*
X2112880Y-4520958D1*
X2129990Y-4517266D1*
X2147478Y-4516519D1*
X2164841Y-4518738D1*
X2181579Y-4523859D1*
X2197211Y-4531736D1*
X2211286Y-4542141D1*
X2223401Y-4554775D1*
X2233206Y-4569275D1*
X2240420Y-4585223D1*
X2244835Y-4602161D1*
X2246323Y-4619627D1*
X2244843Y-4637043D1*
X2240437Y-4653983D1*
X2233231Y-4669935D1*
X2223825Y-4683859D1*
X2223824Y-5141807D1*
X2287685Y-5205684D1*
X2551565Y-5205673D1*
X2906196D1*
X2879810Y-5179280D1*
X2868868Y-5165666D1*
X2861113Y-5150017D1*
X2856905Y-5133049D1*
X2856173Y-5122172D1*
X2856178Y-5064837D1*
X2855561Y-5064173D1*
X2845991Y-5049518D1*
X2839035Y-5033455D1*
X2834894Y-5016448D1*
X2833686Y-4998986D1*
X2835447Y-4981571D1*
X2840126Y-4964704D1*
X2847588Y-4948870D1*
X2857619Y-4934525D1*
X2869929Y-4922082D1*
X2884166Y-4911898D1*
X2899919Y-4904267D1*
X2916735Y-4899407D1*
X2934130Y-4897460D1*
X2951604Y-4898480D1*
X2968655Y-4902439D1*
X2984791Y-4909222D1*
X2999548Y-4918635D1*
X3012503Y-4930406D1*
X3023282Y-4944198D1*
X3031575Y-4959613D1*
X3037143Y-4976207D1*
X3039827Y-4993504D1*
X3040073Y-5000623D1*
X3038593Y-5018040D1*
X3034187Y-5034980D1*
X3026981Y-5050932D1*
X3017575Y-5064855D1*
X3017574Y-5088779D1*
X3023328Y-5094544D1*
X3313552Y-5094550D1*
X3197310Y-4978310D1*
X3186369Y-4964696D1*
X3178613Y-4949047D1*
X3174405Y-4932078D1*
X3173673Y-4921200D1*
X3173665Y-4826227D1*
X3168885Y-4820310D1*
X3160345Y-4805031D1*
X3154510Y-4788528D1*
X3151547Y-4771277D1*
X3151543Y-4753773D1*
X3154497Y-4736520D1*
X3160324Y-4720015D1*
X3168857Y-4704731D1*
X3179850Y-4691110D1*
X3187406Y-4684456D1*
X2444799Y-4684450D1*
X2442396Y-4684416D1*
X2425095Y-4682020D1*
X2408715Y-4675958D1*
X2394023Y-4666514D1*
X2387686Y-4660814D1*
X2322559Y-4595636D1*
X2312007Y-4581698D1*
X2304711Y-4565829D1*
X2301000Y-4548762D1*
X2300550Y-4540250D1*
X2300542Y-4524604D1*
X2295762Y-4518687D1*
X2287222Y-4503408D1*
X2281386Y-4486905D1*
X2278424Y-4469654D1*
X2278420Y-4452150D1*
X2281374Y-4434897D1*
X2287201Y-4418391D1*
X2295734Y-4403108D1*
X2306727Y-4389487D1*
X2319864Y-4377919D1*
X2334767Y-4368738D1*
X2351007Y-4362208D1*
X2368117Y-4358516D1*
X2385605Y-4357769D1*
X2402968Y-4359988D1*
X2419706Y-4365109D1*
X2435337Y-4372986D1*
X2449413Y-4383391D1*
X2461528Y-4396025D1*
X2471333Y-4410525D1*
X2478547Y-4426473D1*
X2482961Y-4443411D1*
X2484450Y-4460877D1*
X2482970Y-4478293D1*
X2478563Y-4495233D1*
X2471357Y-4511185D1*
X2469319Y-4514202D1*
X2478177Y-4523050D1*
X3190437Y-4523040D1*
X3192990Y-4520792D1*
X3207893Y-4511611D1*
X3224133Y-4505081D1*
X3241244Y-4501389D1*
X3258732Y-4500642D1*
X3276094Y-4502861D1*
X3292832Y-4507983D1*
X3308464Y-4515859D1*
X3319914Y-4524323D1*
X3319926Y-4476813D1*
X3320586Y-4465692D1*
X1621960Y-306442D2*
X1625654Y-289345D1*
X1632472Y-273255D1*
X1642172Y-258721D1*
X1654416Y-246253D1*
X1668771Y-236290D1*
X1684734Y-229181D1*
X1701744Y-225177D1*
X1714500Y-224300D1*
X8350250D1*
X8367647Y-225938D1*
X8384433Y-230795D1*
X8400017Y-238699D1*
X8413852Y-249374D1*
X8425451Y-262444D1*
X8434406Y-277449D1*
X8440403Y-293862D1*
X8443230Y-311123D1*
X8443450Y-333375D1*
X8443447Y-462792D1*
X8455980Y-474922D1*
X8467047Y-488647D1*
X8476344Y-503628D1*
X8483729Y-519638D1*
X8489090Y-536434D1*
X8492347Y-553761D1*
X8493450Y-571500D1*
X8492382Y-588956D1*
X8489160Y-606291D1*
X8483831Y-623097D1*
X8476478Y-639122D1*
X8467211Y-654121D1*
X8456172Y-667868D1*
X8443458Y-680206D1*
X8443450Y-1161284D1*
X8455980Y-1173422D1*
X8467047Y-1187147D1*
X8476344Y-1202128D1*
X8483729Y-1218138D1*
X8489090Y-1234934D1*
X8492347Y-1252261D1*
X8493450Y-1270000D1*
X8492382Y-1287456D1*
X8489160Y-1304791D1*
X8483831Y-1321597D1*
X8476478Y-1337622D1*
X8467211Y-1352621D1*
X8456172Y-1366368D1*
X8443458Y-1378706D1*
X8443450Y-1859784D1*
X8455980Y-1871922D1*
X8467047Y-1885647D1*
X8476344Y-1900628D1*
X8483729Y-1916638D1*
X8489090Y-1933434D1*
X8492347Y-1950761D1*
X8493450Y-1968500D1*
X8492382Y-1985956D1*
X8489160Y-2003291D1*
X8483831Y-2020097D1*
X8476478Y-2036122D1*
X8467211Y-2051121D1*
X8456172Y-2064868D1*
X8443458Y-2077206D1*
X8443450Y-2558284D1*
X8455980Y-2570422D1*
X8467047Y-2584147D1*
X8476344Y-2599128D1*
X8483729Y-2615138D1*
X8489090Y-2631934D1*
X8492347Y-2649261D1*
X8493450Y-2667000D1*
X8492382Y-2684456D1*
X8489160Y-2701791D1*
X8483831Y-2718597D1*
X8476478Y-2734622D1*
X8467211Y-2749621D1*
X8456172Y-2763368D1*
X8443458Y-2775706D1*
X8443450Y-3041153D1*
X8521923Y-3119618D1*
X9658073Y-3119623D1*
X9675471Y-3121261D1*
X9692256Y-3126118D1*
X9707841Y-3134023D1*
X9721687Y-3144710D1*
X9748443Y-3171388D1*
X9844854Y-3267800D1*
X9850247Y-3273666D1*
X9860210Y-3288021D1*
X9867319Y-3303984D1*
X9871323Y-3320994D1*
X9872200Y-3333750D1*
Y-5365694D1*
X9871865Y-5373643D1*
X9868760Y-5390839D1*
X9862499Y-5407153D1*
X9853302Y-5422012D1*
X9844902Y-5431652D1*
X9590938Y-5685617D1*
X9585084Y-5690997D1*
X9570729Y-5700960D1*
X9554766Y-5708069D1*
X9537756Y-5712073D1*
X9525000Y-5712950D1*
X9312200Y-5712939D1*
Y-5787950D1*
X9222188D1*
X9222200Y-5863073D1*
X9220250Y-5880428D1*
X9214497Y-5896916D1*
X9205217Y-5911730D1*
X9199265Y-5918400D1*
X9156869Y-5960796D1*
X9143219Y-5971688D1*
X9127492Y-5979280D1*
X9110455Y-5983192D1*
X9101522Y-5983700D1*
X6770200Y-5983714D1*
Y-6023700D1*
X6353800D1*
Y-5986188D1*
X6346200Y-5986209D1*
Y-6023700D1*
X5929800D1*
Y-5819699D1*
X5673800Y-5819700D1*
Y-5483300D1*
X5697333D1*
X5696391Y-5481699D1*
X5688388Y-5466017D1*
X5682068Y-5449585D1*
X5677499Y-5432582D1*
X5674733Y-5415195D1*
X5673800Y-5397614D1*
X5674710Y-5380032D1*
X5677452Y-5362641D1*
X5681997Y-5345632D1*
X5688295Y-5329191D1*
X5696278Y-5313499D1*
X5705856Y-5298727D1*
X5716927Y-5285037D1*
X5729368Y-5272579D1*
X5743042Y-5261490D1*
X5757801Y-5251891D1*
X5773483Y-5243888D1*
X5789915Y-5237568D1*
X5806918Y-5232999D1*
X5824305Y-5230233D1*
X5841886Y-5229300D1*
X5859468Y-5230210D1*
X5876859Y-5232952D1*
X5893868Y-5237497D1*
X5910309Y-5243795D1*
X5926001Y-5251778D1*
X5940773Y-5261356D1*
X5954463Y-5272427D1*
X5966921Y-5284868D1*
X5968902Y-5287311D1*
X5970927Y-5285037D1*
X5983368Y-5272579D1*
X5997042Y-5261490D1*
X6011801Y-5251891D1*
X6027483Y-5243888D1*
X6043915Y-5237568D1*
X6060918Y-5232999D1*
X6078305Y-5230233D1*
X6095886Y-5229300D1*
X6113468Y-5230210D1*
X6130859Y-5232952D1*
X6147868Y-5237497D1*
X6164309Y-5243795D1*
X6180001Y-5251778D1*
X6194773Y-5261356D1*
X6208463Y-5272427D1*
X6220921Y-5284868D1*
X6222902Y-5287311D1*
X6224927Y-5285037D1*
X6237368Y-5272579D1*
X6251042Y-5261490D1*
X6265801Y-5251891D1*
X6281483Y-5243888D1*
X6297915Y-5237568D1*
X6314918Y-5232999D1*
X6332305Y-5230233D1*
X6349886Y-5229300D1*
X6367468Y-5230210D1*
X6384859Y-5232952D1*
X6401868Y-5237497D1*
X6418309Y-5243795D1*
X6434001Y-5251778D1*
X6448773Y-5261356D1*
X6462463Y-5272427D1*
X6474921Y-5284868D1*
X6476902Y-5287311D1*
X6480508Y-5283303D1*
X6484546Y-5279086D1*
X6488728Y-5275011D1*
X6493048Y-5271084D1*
X6497502Y-5267310D1*
X6502085Y-5263692D1*
X6506791Y-5260235D1*
X6511613Y-5256944D1*
X6516547Y-5253823D1*
X6521586Y-5250874D1*
X6526725Y-5248102D1*
X6531957Y-5245510D1*
X6537275Y-5243101D1*
X6542674Y-5240878D1*
X6548147Y-5238844D1*
X6553687Y-5237001D1*
X6559287Y-5235352D1*
X6564942Y-5233898D1*
X6570644Y-5232641D1*
X6576386Y-5231582D1*
X6582161Y-5230724D1*
X6587962Y-5230066D1*
X6593783Y-5229611D1*
X6599616Y-5229357D1*
X6605454Y-5229306D1*
X6611291Y-5229458D1*
X6617119Y-5229812D1*
X6622931Y-5230369D1*
X6628720Y-5231126D1*
X6634479Y-5232085D1*
X6640202Y-5233242D1*
X6645881Y-5234597D1*
X6651509Y-5236149D1*
X6657081Y-5237895D1*
X6662588Y-5239834D1*
X6668025Y-5241962D1*
X6673385Y-5244278D1*
X6678661Y-5246778D1*
X6683847Y-5249460D1*
X6688937Y-5252321D1*
X6693924Y-5255356D1*
X6698803Y-5258563D1*
X6703568Y-5261937D1*
X6708213Y-5265474D1*
X6712733Y-5269171D1*
X6717121Y-5273022D1*
X6721373Y-5277023D1*
X6725484Y-5281169D1*
X6729448Y-5285455D1*
X6730986Y-5287239D1*
X6734508Y-5283303D1*
X6738546Y-5279086D1*
X6742728Y-5275011D1*
X6747048Y-5271084D1*
X6751502Y-5267310D1*
X6756085Y-5263692D1*
X6760791Y-5260235D1*
X6765613Y-5256944D1*
X6770547Y-5253823D1*
X6775586Y-5250874D1*
X6780725Y-5248102D1*
X6785957Y-5245510D1*
X6791275Y-5243101D1*
X6796674Y-5240878D1*
X6802147Y-5238844D1*
X6807687Y-5237001D1*
X6813287Y-5235352D1*
X6818942Y-5233898D1*
X6824644Y-5232641D1*
X6830386Y-5231582D1*
X6836161Y-5230724D1*
X6841962Y-5230066D1*
X6847783Y-5229611D1*
X6853616Y-5229357D1*
X6859454Y-5229306D1*
X6865291Y-5229458D1*
X6871119Y-5229812D1*
X6876931Y-5230369D1*
X6882720Y-5231126D1*
X6888479Y-5232085D1*
X6894202Y-5233242D1*
X6899881Y-5234597D1*
X6905509Y-5236149D1*
X6911081Y-5237895D1*
X6916588Y-5239834D1*
X6922025Y-5241962D1*
X6927385Y-5244278D1*
X6932661Y-5246778D1*
X6937847Y-5249460D1*
X6942937Y-5252321D1*
X6947924Y-5255356D1*
X6952803Y-5258563D1*
X6957568Y-5261937D1*
X6962213Y-5265474D1*
X6966733Y-5269171D1*
X6971121Y-5273022D1*
X6975373Y-5277023D1*
X6979484Y-5281169D1*
X6983448Y-5285455D1*
X6987261Y-5289877D1*
X6990919Y-5294428D1*
X6994416Y-5299103D1*
X6997749Y-5303897D1*
X7000913Y-5308803D1*
X7003905Y-5313817D1*
X7006722Y-5318931D1*
X7009359Y-5324140D1*
X7011814Y-5329438D1*
X7014084Y-5334817D1*
X7016165Y-5340272D1*
X7018056Y-5345796D1*
X7019754Y-5351382D1*
X7021257Y-5357024D1*
X7022564Y-5362714D1*
X7023672Y-5368447D1*
X7024580Y-5374214D1*
X7025288Y-5380010D1*
X7025794Y-5385826D1*
X7026098Y-5391657D1*
X7026200Y-5397500D1*
X7026099Y-5403332D1*
X7025795Y-5409163D1*
X7025289Y-5414979D1*
X7024582Y-5420775D1*
X7023674Y-5426542D1*
X7022566Y-5432275D1*
X7021260Y-5437966D1*
X7019757Y-5443607D1*
X7018059Y-5449194D1*
X7016169Y-5454718D1*
X7014088Y-5460173D1*
X7011818Y-5465552D1*
X7009364Y-5470850D1*
X7006727Y-5476059D1*
X7003911Y-5481173D1*
X7000919Y-5486187D1*
X6997755Y-5491094D1*
X6994422Y-5495888D1*
X6990925Y-5500564D1*
X6987268Y-5505115D1*
X6983455Y-5509537D1*
X6979491Y-5513823D1*
X6975381Y-5517970D1*
X6971129Y-5521971D1*
X6968262Y-5524487D1*
X6970463Y-5526427D1*
X6982921Y-5538868D1*
X6994010Y-5552542D1*
X7003609Y-5567301D1*
X7011612Y-5582983D1*
X7017932Y-5599415D1*
X7022501Y-5616418D1*
X7025267Y-5633805D1*
X7026200Y-5651500D1*
X7025290Y-5668968D1*
X7022548Y-5686359D1*
X7018003Y-5703368D1*
X7011705Y-5719809D1*
X7003722Y-5735501D1*
X6994144Y-5750273D1*
X6983073Y-5763963D1*
X6970632Y-5776421D1*
X6956958Y-5787510D1*
X6942199Y-5797109D1*
X6926517Y-5805112D1*
X6910085Y-5811432D1*
X6893082Y-5816001D1*
X6875695Y-5818767D1*
X6858114Y-5819700D1*
X6840532Y-5818790D1*
X6823141Y-5816048D1*
X6806132Y-5811503D1*
X6789691Y-5805205D1*
X6773999Y-5797222D1*
X6770205Y-5794762D1*
X6770200Y-5827308D1*
X9009533Y-5827300D1*
X9065810D1*
X9065800Y-5787947D1*
X8975800Y-5787950D1*
Y-5764418D1*
X8974202Y-5765359D1*
X8958520Y-5773362D1*
X8942088Y-5779682D1*
X8925085Y-5784251D1*
X8907698Y-5787017D1*
X8890117Y-5787950D1*
X8872535Y-5787040D1*
X8855144Y-5784298D1*
X8838135Y-5779753D1*
X8821694Y-5773455D1*
X8806002Y-5765472D1*
X8791230Y-5755894D1*
X8777540Y-5744823D1*
X8765083Y-5732382D1*
X8763101Y-5729939D1*
X8761073Y-5732213D1*
X8748632Y-5744671D1*
X8734958Y-5755760D1*
X8720199Y-5765359D1*
X8704517Y-5773362D1*
X8688085Y-5779682D1*
X8671082Y-5784251D1*
X8653695Y-5787017D1*
X8636114Y-5787950D1*
X8618532Y-5787040D1*
X8601141Y-5784298D1*
X8584132Y-5779753D1*
X8567691Y-5773455D1*
X8551999Y-5765472D1*
X8537227Y-5755894D1*
X8523537Y-5744823D1*
X8511079Y-5732382D1*
X8509098Y-5729939D1*
X8507073Y-5732213D1*
X8494632Y-5744671D1*
X8480958Y-5755760D1*
X8466199Y-5765359D1*
X8450517Y-5773362D1*
X8434085Y-5779682D1*
X8417082Y-5784251D1*
X8399695Y-5787017D1*
X8382114Y-5787950D1*
X8364532Y-5787040D1*
X8347141Y-5784298D1*
X8330132Y-5779753D1*
X8313691Y-5773455D1*
X8297999Y-5765472D1*
X8283227Y-5755894D1*
X8269537Y-5744823D1*
X8257079Y-5732382D1*
X8245990Y-5718708D1*
X8236391Y-5703949D1*
X8228388Y-5688267D1*
X8222068Y-5671835D1*
X8217499Y-5654832D1*
X8214733Y-5637445D1*
X8213800Y-5619864D1*
X8214710Y-5602282D1*
X8217452Y-5584891D1*
X8221997Y-5567882D1*
X8228295Y-5551441D1*
X8236278Y-5535749D1*
X8245856Y-5520977D1*
X8256927Y-5507287D1*
X8269368Y-5494829D1*
X8283042Y-5483740D1*
X8297801Y-5474141D1*
X8313483Y-5466138D1*
X8329915Y-5459818D1*
X8346918Y-5455249D1*
X8364305Y-5452483D1*
X8381886Y-5451550D1*
X8399468Y-5452460D1*
X8416859Y-5455202D1*
X8433868Y-5459747D1*
X8450309Y-5466045D1*
X8466001Y-5474028D1*
X8480773Y-5483606D1*
X8494463Y-5494677D1*
X8506921Y-5507118D1*
X8508902Y-5509561D1*
X8510927Y-5507287D1*
X8523368Y-5494829D1*
X8537042Y-5483740D1*
X8551801Y-5474141D1*
X8567483Y-5466138D1*
X8583915Y-5459818D1*
X8600918Y-5455249D1*
X8618305Y-5452483D1*
X8635886Y-5451550D1*
X8653468Y-5452460D1*
X8670859Y-5455202D1*
X8687868Y-5459747D1*
X8704309Y-5466045D1*
X8720001Y-5474028D1*
X8734773Y-5483606D1*
X8748463Y-5494677D1*
X8760921Y-5507118D1*
X8762902Y-5509561D1*
X8764930Y-5507287D1*
X8777371Y-5494829D1*
X8791046Y-5483740D1*
X8805805Y-5474141D1*
X8821486Y-5466138D1*
X8837918Y-5459818D1*
X8854921Y-5455249D1*
X8872308Y-5452483D1*
X8889889Y-5451550D1*
X8907472Y-5452460D1*
X8924863Y-5455202D1*
X8941872Y-5459747D1*
X8958312Y-5466045D1*
X8974005Y-5474028D1*
X8975808Y-5475197D1*
X8975800Y-5451550D1*
X9312200D1*
Y-5526558D1*
X9486384Y-5526550D1*
X9685805Y-5327140D1*
X9685800Y-3372356D1*
X9619472Y-3306027D1*
X8483323Y-3306024D1*
X8465926Y-3304386D1*
X8449140Y-3299529D1*
X8433556Y-3291624D1*
X8419710Y-3280936D1*
X8393957Y-3255262D1*
X8284347Y-3145653D1*
X8273204Y-3132192D1*
X8264769Y-3116889D1*
X8259339Y-3100280D1*
X8257106Y-3082932D1*
X8257050Y-3045052D1*
Y-2775733D1*
X8250666Y-2769904D1*
X8238775Y-2756886D1*
X8228574Y-2742506D1*
X8220217Y-2726981D1*
X8213832Y-2710547D1*
X8209514Y-2693453D1*
X8207330Y-2675957D1*
X8207313Y-2658326D1*
X8209462Y-2640827D1*
X8213746Y-2623724D1*
X8220098Y-2607277D1*
X8228424Y-2591736D1*
X8238597Y-2577335D1*
X8250462Y-2564294D1*
X8257059Y-2558630D1*
X8257050Y-2077216D1*
X8250666Y-2071404D1*
X8238775Y-2058386D1*
X8228574Y-2044006D1*
X8220217Y-2028481D1*
X8213832Y-2012047D1*
X8209514Y-1994953D1*
X8207330Y-1977457D1*
X8207313Y-1959826D1*
X8209462Y-1942327D1*
X8213746Y-1925224D1*
X8220098Y-1908777D1*
X8228424Y-1893236D1*
X8238597Y-1878835D1*
X8250462Y-1865794D1*
X8257059Y-1860130D1*
X8257050Y-1378716D1*
X8250666Y-1372904D1*
X8238775Y-1359886D1*
X8228574Y-1345506D1*
X8220217Y-1329981D1*
X8213832Y-1313547D1*
X8209514Y-1296453D1*
X8207330Y-1278957D1*
X8207313Y-1261326D1*
X8209462Y-1243827D1*
X8213746Y-1226724D1*
X8220098Y-1210277D1*
X8228424Y-1194736D1*
X8238597Y-1180335D1*
X8250462Y-1167294D1*
X8257059Y-1161630D1*
X8257050Y-680216D1*
X8250666Y-674404D1*
X8238775Y-661386D1*
X8228574Y-647006D1*
X8220217Y-631481D1*
X8213832Y-615047D1*
X8209514Y-597953D1*
X8207330Y-580457D1*
X8207313Y-562826D1*
X8209462Y-545327D1*
X8213746Y-528224D1*
X8220098Y-511777D1*
X8228424Y-496236D1*
X8238597Y-481835D1*
X8250462Y-468794D1*
X8257059Y-463130D1*
X8257050Y-410686D1*
X8035387Y-410700D1*
X7949886D1*
X7960822Y-418585D1*
X7974236Y-430001D1*
X7986556Y-442590D1*
X7997681Y-456246D1*
X8007518Y-470858D1*
X8015985Y-486303D1*
X8023012Y-502455D1*
X8028542Y-519179D1*
X8032528Y-536336D1*
X8034937Y-553784D1*
X8035750Y-571500D1*
X8034959Y-588976D1*
X8032572Y-606428D1*
X8028607Y-623590D1*
X8023098Y-640320D1*
X8016091Y-656481D1*
X8007643Y-671937D1*
X7997824Y-686561D1*
X7986717Y-700231D1*
X7974412Y-712835D1*
X7961012Y-724267D1*
X7946628Y-734434D1*
X7931379Y-743250D1*
X7915392Y-750644D1*
X7898798Y-756553D1*
X7881736Y-760928D1*
X7864347Y-763734D1*
X7846775Y-764947D1*
X7829165Y-764557D1*
X7811664Y-762567D1*
X7794416Y-758994D1*
X7777564Y-753868D1*
X7761249Y-747230D1*
X7745604Y-739136D1*
X7730761Y-729653D1*
X7716841Y-718859D1*
X7703960Y-706845D1*
X7692226Y-693709D1*
X7681734Y-679560D1*
X7672573Y-664516D1*
X7664818Y-648701D1*
X7658532Y-632246D1*
X7653770Y-615288D1*
X7650569Y-597967D1*
X7648956Y-580427D1*
X7648945Y-562813D1*
X7650536Y-545271D1*
X7653715Y-527946D1*
X7658457Y-510982D1*
X7664722Y-494520D1*
X7672457Y-478695D1*
X7681600Y-463640D1*
X7692074Y-449478D1*
X7703792Y-436327D1*
X7716658Y-424297D1*
X7730564Y-413486D1*
X7734924Y-410693D1*
X7251390Y-410700D1*
X7262322Y-418585D1*
X7275736Y-430001D1*
X7288056Y-442590D1*
X7299181Y-456246D1*
X7309018Y-470858D1*
X7317485Y-486303D1*
X7324512Y-502455D1*
X7330042Y-519179D1*
X7334028Y-536336D1*
X7336437Y-553784D1*
X7337250Y-571500D1*
X7336459Y-588976D1*
X7334072Y-606428D1*
X7330107Y-623590D1*
X7324598Y-640320D1*
X7317591Y-656481D1*
X7309143Y-671937D1*
X7299324Y-686561D1*
X7288217Y-700231D1*
X7275912Y-712835D1*
X7262512Y-724267D1*
X7248128Y-734434D1*
X7232879Y-743250D1*
X7216892Y-750644D1*
X7200298Y-756553D1*
X7183236Y-760928D1*
X7165847Y-763734D1*
X7148275Y-764947D1*
X7130665Y-764557D1*
X7113164Y-762567D1*
X7095916Y-758994D1*
X7079064Y-753868D1*
X7062749Y-747230D1*
X7047104Y-739136D1*
X7032261Y-729653D1*
X7018341Y-718859D1*
X7005460Y-706845D1*
X6993726Y-693709D1*
X6983234Y-679560D1*
X6974073Y-664516D1*
X6966318Y-648701D1*
X6960032Y-632246D1*
X6955270Y-615288D1*
X6952069Y-597967D1*
X6950456Y-580427D1*
X6950445Y-562813D1*
X6952036Y-545271D1*
X6955215Y-527946D1*
X6959957Y-510982D1*
X6966222Y-494520D1*
X6973957Y-478695D1*
X6983100Y-463640D1*
X6993574Y-449478D1*
X7005292Y-436327D1*
X7018158Y-424297D1*
X7032064Y-413486D1*
X7036424Y-410693D1*
X6220941Y-410700D1*
X6220950Y-462796D1*
X6233480Y-474922D1*
X6244547Y-488647D1*
X6253844Y-503628D1*
X6261229Y-519638D1*
X6266590Y-536434D1*
X6269847Y-553761D1*
X6270950Y-571500D1*
X6269882Y-588956D1*
X6266660Y-606291D1*
X6261331Y-623097D1*
X6253978Y-639122D1*
X6244711Y-654121D1*
X6233672Y-667868D1*
X6220958Y-680206D1*
X6220950Y-1161284D1*
X6233480Y-1173422D1*
X6244547Y-1187147D1*
X6253844Y-1202128D1*
X6261229Y-1218138D1*
X6266590Y-1234934D1*
X6269847Y-1252261D1*
X6270950Y-1270000D1*
X6269882Y-1287456D1*
X6266660Y-1304791D1*
X6261331Y-1321597D1*
X6253978Y-1337622D1*
X6244711Y-1352621D1*
X6233672Y-1366368D1*
X6220958Y-1378706D1*
X6220950Y-1859784D1*
X6233480Y-1871922D1*
X6244547Y-1885647D1*
X6253844Y-1900628D1*
X6261229Y-1916638D1*
X6266590Y-1933434D1*
X6269847Y-1950761D1*
X6270950Y-1968500D1*
X6269882Y-1985956D1*
X6266660Y-2003291D1*
X6261331Y-2020097D1*
X6253978Y-2036122D1*
X6244711Y-2051121D1*
X6233672Y-2064868D1*
X6220958Y-2077206D1*
X6220950Y-2558284D1*
X6233480Y-2570422D1*
X6244547Y-2584147D1*
X6253844Y-2599128D1*
X6261229Y-2615138D1*
X6266590Y-2631934D1*
X6269847Y-2649261D1*
X6270950Y-2667000D1*
X6269882Y-2684456D1*
X6266660Y-2701791D1*
X6261331Y-2718597D1*
X6253978Y-2734622D1*
X6244711Y-2749621D1*
X6233672Y-2763368D1*
X6221026Y-2775654D1*
X6206967Y-2786293D1*
X6191707Y-2795124D1*
X6175477Y-2802012D1*
X6158524Y-2806854D1*
X6141104Y-2809576D1*
X6123482Y-2810136D1*
X6105925Y-2808527D1*
X6088698Y-2804772D1*
X6072064Y-2798929D1*
X6056273Y-2791086D1*
X6041566Y-2781362D1*
X6028166Y-2769904D1*
X6016275Y-2756886D1*
X6006074Y-2742506D1*
X5997717Y-2726981D1*
X5991332Y-2710547D1*
X5987014Y-2693453D1*
X5984830Y-2675957D1*
X5984813Y-2658326D1*
X5986962Y-2640827D1*
X5991246Y-2623724D1*
X5997598Y-2607277D1*
X6005924Y-2591736D1*
X6016097Y-2577335D1*
X6027962Y-2564294D1*
X6034559Y-2558630D1*
X6034550Y-2077216D1*
X6028166Y-2071404D1*
X6016275Y-2058386D1*
X6006074Y-2044006D1*
X5997717Y-2028481D1*
X5991332Y-2012047D1*
X5987014Y-1994953D1*
X5984830Y-1977457D1*
X5984813Y-1959826D1*
X5986962Y-1942327D1*
X5991246Y-1925224D1*
X5997598Y-1908777D1*
X6005924Y-1893236D1*
X6016097Y-1878835D1*
X6027962Y-1865794D1*
X6034559Y-1860130D1*
X6034550Y-1378716D1*
X6028166Y-1372904D1*
X6016275Y-1359886D1*
X6006074Y-1345506D1*
X5997717Y-1329981D1*
X5991332Y-1313547D1*
X5987014Y-1296453D1*
X5984830Y-1278957D1*
X5984813Y-1261326D1*
X5986962Y-1243827D1*
X5991246Y-1226724D1*
X5997598Y-1210277D1*
X6005924Y-1194736D1*
X6016097Y-1180335D1*
X6027962Y-1167294D1*
X6034559Y-1161630D1*
X6034550Y-680216D1*
X6028166Y-674404D1*
X6016275Y-661386D1*
X6006074Y-647006D1*
X5997717Y-631481D1*
X5991332Y-615047D1*
X5987014Y-597953D1*
X5984830Y-580457D1*
X5984813Y-562826D1*
X5986962Y-545327D1*
X5991246Y-528224D1*
X5997598Y-511777D1*
X6005924Y-496236D1*
X6016097Y-481835D1*
X6027962Y-468794D1*
X6034559Y-463130D1*
X6034550Y-410686D1*
X5812887Y-410700D1*
X5727386D1*
X5738322Y-418585D1*
X5751736Y-430001D1*
X5764056Y-442590D1*
X5775181Y-456246D1*
X5785018Y-470858D1*
X5793485Y-486303D1*
X5800512Y-502455D1*
X5806042Y-519179D1*
X5810028Y-536336D1*
X5812437Y-553784D1*
X5813250Y-571500D1*
X5812459Y-588976D1*
X5810072Y-606428D1*
X5806107Y-623590D1*
X5800598Y-640320D1*
X5793591Y-656481D1*
X5785143Y-671937D1*
X5775324Y-686561D1*
X5764217Y-700231D1*
X5751912Y-712835D1*
X5738512Y-724267D1*
X5724128Y-734434D1*
X5708879Y-743250D1*
X5692892Y-750644D1*
X5676298Y-756553D1*
X5659236Y-760928D1*
X5641847Y-763734D1*
X5624275Y-764947D1*
X5606665Y-764557D1*
X5589164Y-762567D1*
X5571916Y-758994D1*
X5555064Y-753868D1*
X5538749Y-747230D1*
X5523104Y-739136D1*
X5508261Y-729653D1*
X5494341Y-718859D1*
X5481460Y-706845D1*
X5469726Y-693709D1*
X5459234Y-679560D1*
X5450073Y-664516D1*
X5442318Y-648701D1*
X5436032Y-632246D1*
X5431270Y-615288D1*
X5428069Y-597967D1*
X5426456Y-580427D1*
X5426445Y-562813D1*
X5428036Y-545271D1*
X5431215Y-527946D1*
X5435957Y-510982D1*
X5442222Y-494520D1*
X5449957Y-478695D1*
X5459100Y-463640D1*
X5469574Y-449478D1*
X5481292Y-436327D1*
X5494158Y-424297D1*
X5508064Y-413486D1*
X5512424Y-410693D1*
X5028890Y-410700D1*
X5039822Y-418585D1*
X5053236Y-430001D1*
X5065556Y-442590D1*
X5076681Y-456246D1*
X5086518Y-470858D1*
X5094985Y-486303D1*
X5102012Y-502455D1*
X5107542Y-519179D1*
X5111528Y-536336D1*
X5113937Y-553784D1*
X5114750Y-571500D1*
X5113959Y-588976D1*
X5111572Y-606428D1*
X5107607Y-623590D1*
X5102098Y-640320D1*
X5095091Y-656481D1*
X5086643Y-671937D1*
X5076824Y-686561D1*
X5065717Y-700231D1*
X5053412Y-712835D1*
X5040012Y-724267D1*
X5025628Y-734434D1*
X5010379Y-743250D1*
X4994392Y-750644D1*
X4977798Y-756553D1*
X4960736Y-760928D1*
X4943347Y-763734D1*
X4925775Y-764947D1*
X4908165Y-764557D1*
X4890664Y-762567D1*
X4873416Y-758994D1*
X4856564Y-753868D1*
X4840249Y-747230D1*
X4824604Y-739136D1*
X4809761Y-729653D1*
X4795841Y-718859D1*
X4782960Y-706845D1*
X4771226Y-693709D1*
X4760734Y-679560D1*
X4751573Y-664516D1*
X4743818Y-648701D1*
X4737532Y-632246D1*
X4732770Y-615288D1*
X4729569Y-597967D1*
X4727956Y-580427D1*
X4727945Y-562813D1*
X4729536Y-545271D1*
X4732715Y-527946D1*
X4737457Y-510982D1*
X4743722Y-494520D1*
X4751457Y-478695D1*
X4760600Y-463640D1*
X4771074Y-449478D1*
X4782792Y-436327D1*
X4795658Y-424297D1*
X4809564Y-413486D1*
X4813924Y-410693D1*
X3998441Y-410700D1*
X3998450Y-462796D1*
X4010980Y-474922D1*
X4022047Y-488647D1*
X4031344Y-503628D1*
X4038729Y-519638D1*
X4044090Y-536434D1*
X4047347Y-553761D1*
X4048450Y-571500D1*
X4047382Y-588956D1*
X4044160Y-606291D1*
X4038831Y-623097D1*
X4031478Y-639122D1*
X4022211Y-654121D1*
X4011172Y-667868D1*
X3998458Y-680206D1*
X3998450Y-1161284D1*
X4010980Y-1173422D1*
X4022047Y-1187147D1*
X4031344Y-1202128D1*
X4038729Y-1218138D1*
X4044090Y-1234934D1*
X4047347Y-1252261D1*
X4048450Y-1270000D1*
X4047382Y-1287456D1*
X4044160Y-1304791D1*
X4038831Y-1321597D1*
X4031478Y-1337622D1*
X4022211Y-1352621D1*
X4011172Y-1366368D1*
X3998458Y-1378706D1*
X3998450Y-1859784D1*
X4010980Y-1871922D1*
X4022047Y-1885647D1*
X4031344Y-1900628D1*
X4038729Y-1916638D1*
X4044090Y-1933434D1*
X4047347Y-1950761D1*
X4048450Y-1968500D1*
X4047382Y-1985956D1*
X4044160Y-2003291D1*
X4038831Y-2020097D1*
X4031478Y-2036122D1*
X4022211Y-2051121D1*
X4011172Y-2064868D1*
X3998458Y-2077206D1*
X3998450Y-2558284D1*
X4010980Y-2570422D1*
X4022047Y-2584147D1*
X4031344Y-2599128D1*
X4038729Y-2615138D1*
X4044090Y-2631934D1*
X4047347Y-2649261D1*
X4048450Y-2667000D1*
X4047382Y-2684456D1*
X4044160Y-2701791D1*
X4038831Y-2718597D1*
X4031478Y-2734622D1*
X4022211Y-2749621D1*
X4011172Y-2763368D1*
X3998526Y-2775654D1*
X3984467Y-2786293D1*
X3969207Y-2795124D1*
X3952977Y-2802012D1*
X3936024Y-2806854D1*
X3918604Y-2809576D1*
X3900982Y-2810136D1*
X3883425Y-2808527D1*
X3866198Y-2804772D1*
X3849564Y-2798929D1*
X3833773Y-2791086D1*
X3819066Y-2781362D1*
X3805666Y-2769904D1*
X3793775Y-2756886D1*
X3783574Y-2742506D1*
X3775217Y-2726981D1*
X3768832Y-2710547D1*
X3764514Y-2693453D1*
X3762330Y-2675957D1*
X3762313Y-2658326D1*
X3764462Y-2640827D1*
X3768746Y-2623724D1*
X3775098Y-2607277D1*
X3783424Y-2591736D1*
X3793597Y-2577335D1*
X3805462Y-2564294D1*
X3812059Y-2558630D1*
X3812050Y-2077216D1*
X3805666Y-2071404D1*
X3793775Y-2058386D1*
X3783574Y-2044006D1*
X3775217Y-2028481D1*
X3768832Y-2012047D1*
X3764514Y-1994953D1*
X3762330Y-1977457D1*
X3762313Y-1959826D1*
X3764462Y-1942327D1*
X3768746Y-1925224D1*
X3775098Y-1908777D1*
X3783424Y-1893236D1*
X3793597Y-1878835D1*
X3805462Y-1865794D1*
X3812059Y-1860130D1*
X3812050Y-1378716D1*
X3805666Y-1372904D1*
X3793775Y-1359886D1*
X3783574Y-1345506D1*
X3775217Y-1329981D1*
X3768832Y-1313547D1*
X3764514Y-1296453D1*
X3762330Y-1278957D1*
X3762313Y-1261326D1*
X3764462Y-1243827D1*
X3768746Y-1226724D1*
X3775098Y-1210277D1*
X3783424Y-1194736D1*
X3793597Y-1180335D1*
X3805462Y-1167294D1*
X3812059Y-1161630D1*
X3812050Y-680216D1*
X3805666Y-674404D1*
X3793775Y-661386D1*
X3783574Y-647006D1*
X3775217Y-631481D1*
X3768832Y-615047D1*
X3764514Y-597953D1*
X3762330Y-580457D1*
X3762313Y-562826D1*
X3764462Y-545327D1*
X3768746Y-528224D1*
X3775098Y-511777D1*
X3783424Y-496236D1*
X3793597Y-481835D1*
X3805462Y-468794D1*
X3812059Y-463130D1*
X3812050Y-410686D1*
X3572863Y-410700D1*
X3504897D1*
X3515822Y-418585D1*
X3529236Y-430001D1*
X3541556Y-442590D1*
X3552681Y-456246D1*
X3562518Y-470858D1*
X3570985Y-486303D1*
X3578012Y-502455D1*
X3583542Y-519179D1*
X3587528Y-536336D1*
X3589937Y-553784D1*
X3590750Y-571500D1*
X3589959Y-588976D1*
X3587572Y-606428D1*
X3583607Y-623590D1*
X3578098Y-640320D1*
X3571091Y-656481D1*
X3562643Y-671937D1*
X3552824Y-686561D1*
X3541717Y-700231D1*
X3529412Y-712835D1*
X3516012Y-724267D1*
X3501628Y-734434D1*
X3486379Y-743250D1*
X3470392Y-750644D1*
X3453798Y-756553D1*
X3436736Y-760928D1*
X3419347Y-763734D1*
X3401775Y-764947D1*
X3384165Y-764557D1*
X3366664Y-762567D1*
X3349416Y-758994D1*
X3332564Y-753868D1*
X3316249Y-747230D1*
X3300604Y-739136D1*
X3285761Y-729653D1*
X3271841Y-718859D1*
X3258960Y-706845D1*
X3247226Y-693709D1*
X3236734Y-679560D1*
X3227573Y-664516D1*
X3219818Y-648701D1*
X3213532Y-632246D1*
X3208770Y-615288D1*
X3205569Y-597967D1*
X3203956Y-580427D1*
X3203945Y-562813D1*
X3205536Y-545271D1*
X3208715Y-527946D1*
X3213457Y-510982D1*
X3219722Y-494520D1*
X3227457Y-478695D1*
X3236600Y-463640D1*
X3247074Y-449478D1*
X3258792Y-436327D1*
X3271658Y-424297D1*
X3285564Y-413486D1*
X3289924Y-410693D1*
X2838154Y-410700D1*
X2849072Y-418569D1*
X2862486Y-429984D1*
X2874806Y-442573D1*
X2885931Y-456229D1*
X2895768Y-470841D1*
X2904235Y-486287D1*
X2911262Y-502438D1*
X2916792Y-519162D1*
X2920778Y-536319D1*
X2923187Y-553768D1*
X2924000Y-571483D1*
X2923209Y-588959D1*
X2920822Y-606411D1*
X2916857Y-623573D1*
X2911348Y-640304D1*
X2904341Y-656464D1*
X2895893Y-671920D1*
X2886074Y-686544D1*
X2874967Y-700214D1*
X2862662Y-712818D1*
X2849262Y-724250D1*
X2834878Y-734417D1*
X2819629Y-743234D1*
X2803642Y-750627D1*
X2787048Y-756536D1*
X2769986Y-760911D1*
X2752597Y-763717D1*
X2735025Y-764930D1*
X2717415Y-764540D1*
X2699914Y-762551D1*
X2682666Y-758978D1*
X2665814Y-753851D1*
X2649499Y-747213D1*
X2633854Y-739119D1*
X2619011Y-729636D1*
X2605091Y-718843D1*
X2592210Y-706828D1*
X2580476Y-693692D1*
X2569984Y-679543D1*
X2560823Y-664499D1*
X2553068Y-648684D1*
X2546782Y-632229D1*
X2542020Y-615271D1*
X2538819Y-597951D1*
X2537206Y-580410D1*
X2537195Y-562796D1*
X2538786Y-545254D1*
X2541965Y-527929D1*
X2546707Y-510965D1*
X2552972Y-494503D1*
X2560707Y-478678D1*
X2569850Y-463623D1*
X2580324Y-449461D1*
X2592042Y-436310D1*
X2604908Y-424280D1*
X2618814Y-413469D1*
X2623145Y-410695D1*
X1807704Y-410700D1*
X1807700Y-462797D1*
X1820230Y-474927D1*
X1831297Y-488652D1*
X1840594Y-503633D1*
X1847979Y-519643D1*
X1853340Y-536439D1*
X1856597Y-553767D1*
X1857700Y-571506D1*
X1856632Y-588962D1*
X1853410Y-606296D1*
X1848081Y-623103D1*
X1840728Y-639127D1*
X1831461Y-654127D1*
X1820422Y-667874D1*
X1807708Y-680212D1*
X1807700Y-1161290D1*
X1820230Y-1173422D1*
X1831297Y-1187147D1*
X1840594Y-1202128D1*
X1847979Y-1218138D1*
X1853340Y-1234934D1*
X1856597Y-1252261D1*
X1857700Y-1270000D1*
X1856632Y-1287456D1*
X1853410Y-1304791D1*
X1848081Y-1321597D1*
X1840728Y-1337622D1*
X1831461Y-1352621D1*
X1820422Y-1366368D1*
X1807708Y-1378706D1*
X1807700Y-1859786D1*
X1820230Y-1871922D1*
X1831297Y-1885647D1*
X1840594Y-1900628D1*
X1847979Y-1916638D1*
X1853340Y-1933434D1*
X1856597Y-1950761D1*
X1857700Y-1968500D1*
X1856632Y-1985956D1*
X1853410Y-2003291D1*
X1848081Y-2020097D1*
X1840728Y-2036122D1*
X1831461Y-2051121D1*
X1820422Y-2064868D1*
X1807708Y-2077206D1*
X1807700Y-2558284D1*
X1820230Y-2570422D1*
X1831297Y-2584147D1*
X1840594Y-2599128D1*
X1847979Y-2615138D1*
X1853340Y-2631934D1*
X1856597Y-2649261D1*
X1857700Y-2667000D1*
X1856632Y-2684456D1*
X1853410Y-2701791D1*
X1848081Y-2718597D1*
X1840728Y-2734622D1*
X1831461Y-2749621D1*
X1820422Y-2763368D1*
X1807776Y-2775654D1*
X1793717Y-2786293D1*
X1778457Y-2795124D1*
X1762227Y-2802012D1*
X1745274Y-2806854D1*
X1727854Y-2809576D1*
X1710232Y-2810136D1*
X1692675Y-2808527D1*
X1675448Y-2804772D1*
X1658814Y-2798929D1*
X1643023Y-2791086D1*
X1628316Y-2781362D1*
X1614916Y-2769904D1*
X1603025Y-2756886D1*
X1592824Y-2742506D1*
X1584467Y-2726981D1*
X1578082Y-2710547D1*
X1573764Y-2693453D1*
X1571580Y-2675957D1*
X1571563Y-2658326D1*
X1573712Y-2640827D1*
X1577996Y-2623724D1*
X1584348Y-2607277D1*
X1592674Y-2591736D1*
X1602847Y-2577335D1*
X1614712Y-2564294D1*
X1621309Y-2558630D1*
X1621300Y-2077216D1*
X1614916Y-2071404D1*
X1603025Y-2058386D1*
X1592824Y-2044006D1*
X1584467Y-2028481D1*
X1578082Y-2012047D1*
X1573764Y-1994953D1*
X1571580Y-1977457D1*
X1571563Y-1959826D1*
X1573712Y-1942327D1*
X1577996Y-1925224D1*
X1584348Y-1908777D1*
X1592674Y-1893236D1*
X1602847Y-1878835D1*
X1614712Y-1865794D1*
X1621309Y-1860130D1*
X1621300Y-1712446D1*
X549217Y-1712452D1*
X549200Y-1787452D1*
X525668D1*
X526912Y-1789565D1*
X529728Y-1794680D1*
X532366Y-1799889D1*
X534821Y-1805186D1*
X537090Y-1810565D1*
X539172Y-1816020D1*
X541063Y-1821544D1*
X542761Y-1827130D1*
X544264Y-1832772D1*
X545570Y-1838463D1*
X546678Y-1844195D1*
X547587Y-1849962D1*
X548295Y-1855758D1*
X548801Y-1861575D1*
X549105Y-1867405D1*
X549207Y-1873248D1*
X549105Y-1879080D1*
X548802Y-1884911D1*
X548296Y-1890728D1*
X547588Y-1896523D1*
X546680Y-1902291D1*
X545573Y-1908023D1*
X544266Y-1913714D1*
X542764Y-1919356D1*
X541066Y-1924942D1*
X539175Y-1930466D1*
X537094Y-1935921D1*
X534825Y-1941301D1*
X532371Y-1946598D1*
X529734Y-1951807D1*
X526917Y-1956922D1*
X523926Y-1961935D1*
X520761Y-1966842D1*
X517429Y-1971636D1*
X513932Y-1976312D1*
X510275Y-1980863D1*
X506462Y-1985285D1*
X502498Y-1989571D1*
X498388Y-1993718D1*
X494136Y-1997719D1*
X489748Y-2001571D1*
X485228Y-2005267D1*
X480584Y-2008805D1*
X475819Y-2012179D1*
X470940Y-2015386D1*
X465953Y-2018422D1*
X460863Y-2021283D1*
X455677Y-2023965D1*
X450401Y-2026466D1*
X445042Y-2028782D1*
X439605Y-2030911D1*
X434098Y-2032850D1*
X428527Y-2034596D1*
X422898Y-2036148D1*
X417219Y-2037504D1*
X411497Y-2038662D1*
X405737Y-2039620D1*
X399948Y-2040378D1*
X394136Y-2040935D1*
X388308Y-2041290D1*
X382472Y-2041442D1*
X376633Y-2041391D1*
X370800Y-2041138D1*
X364980Y-2040683D1*
X359178Y-2040026D1*
X353403Y-2039168D1*
X347661Y-2038110D1*
X341959Y-2036853D1*
X336305Y-2035399D1*
X330704Y-2033750D1*
X325164Y-2031908D1*
X319691Y-2029874D1*
X314292Y-2027652D1*
X308973Y-2025243D1*
X303741Y-2022652D1*
X298603Y-2019880D1*
X293563Y-2016932D1*
X288629Y-2013810D1*
X283806Y-2010519D1*
X279101Y-2007063D1*
X274518Y-2003446D1*
X270063Y-1999671D1*
X265742Y-1995745D1*
X261560Y-1991670D1*
X257522Y-1987453D1*
X253633Y-1983099D1*
X249897Y-1978612D1*
X246319Y-1973998D1*
X242904Y-1969263D1*
X239654Y-1964412D1*
X236576Y-1959451D1*
X233671Y-1954386D1*
X230943Y-1949224D1*
X228397Y-1943970D1*
X226034Y-1938631D1*
X223859Y-1933213D1*
X221872Y-1927723D1*
X220077Y-1922167D1*
X218476Y-1916552D1*
X217071Y-1910885D1*
X215864Y-1905173D1*
X214856Y-1899422D1*
X214047Y-1893640D1*
X213440Y-1887833D1*
X213035Y-1882008D1*
X212832Y-1876173D1*
Y-1870335D1*
X213034Y-1864500D1*
X213439Y-1858675D1*
X214046Y-1852868D1*
X214854Y-1847086D1*
X215862Y-1841335D1*
X217069Y-1835622D1*
X218474Y-1829955D1*
X220074Y-1824340D1*
X221869Y-1818784D1*
X223855Y-1813294D1*
X226030Y-1807876D1*
X228392Y-1802537D1*
X230939Y-1797282D1*
X233665Y-1792120D1*
X236340Y-1787456D1*
X212800Y-1787452D1*
Y-1451052D1*
X549200D1*
Y-1526059D1*
X1621307Y-1526050D1*
X1621300Y-1378714D1*
X1614916Y-1372904D1*
X1603025Y-1359886D1*
X1592824Y-1345506D1*
X1584467Y-1329981D1*
X1578082Y-1313547D1*
X1573764Y-1296453D1*
X1571580Y-1278957D1*
X1571563Y-1261326D1*
X1573712Y-1243827D1*
X1577996Y-1226724D1*
X1584348Y-1210277D1*
X1592674Y-1194736D1*
X1602847Y-1180335D1*
X1614712Y-1167294D1*
X1621309Y-1161630D1*
X1621300Y-680216D1*
X1614916Y-674410D1*
X1603025Y-661392D1*
X1592824Y-647012D1*
X1584467Y-631487D1*
X1578082Y-615053D1*
X1573764Y-597958D1*
X1571580Y-580463D1*
X1571563Y-562832D1*
X1573712Y-545332D1*
X1577996Y-528230D1*
X1584348Y-511783D1*
X1592674Y-496241D1*
X1602847Y-481841D1*
X1614712Y-468800D1*
X1621309Y-463136D1*
X1621300Y-317552D1*
X1621960Y-306442D1*
X3794447Y-4951119D2*
X3809637Y-4942464D1*
X3826319Y-4937289D1*
X3841750Y-4935800D1*
X4053705Y-4935799D1*
X4049311Y-4934035D1*
X4034404Y-4924861D1*
X4021261Y-4913299D1*
X4010262Y-4899683D1*
X4001722Y-4884404D1*
X3995886Y-4867902D1*
X3992924Y-4850650D1*
X3992920Y-4833146D1*
X3995874Y-4815893D1*
X4001701Y-4799388D1*
X4010234Y-4784105D1*
X4021227Y-4770483D1*
X4030040Y-4762723D1*
X4030053Y-4762287D1*
X4021261Y-4754553D1*
X4010262Y-4740937D1*
X4001722Y-4725658D1*
X3995886Y-4709155D1*
X3992924Y-4691904D1*
X3992920Y-4674400D1*
X3995874Y-4657147D1*
X4001701Y-4640641D1*
X4010234Y-4625358D1*
X4021227Y-4611737D1*
X4034364Y-4600169D1*
X4049267Y-4590988D1*
X4065507Y-4584458D1*
X4082617Y-4580766D1*
X4088543Y-4580513D1*
X4088513Y-4580169D1*
X4081098Y-4566904D1*
X4075263Y-4550402D1*
X4074508Y-4546005D1*
X4074124Y-4545529D1*
X4065551Y-4543684D1*
X4049308Y-4537161D1*
X4034401Y-4527987D1*
X4021258Y-4516426D1*
X4010258Y-4502810D1*
X4001718Y-4487531D1*
X3995883Y-4471028D1*
X3992921Y-4453777D1*
X3992916Y-4436273D1*
X3993912Y-4430460D1*
X3806672Y-4430463D1*
X3812047Y-4442346D1*
X3816461Y-4459284D1*
X3817950Y-4476750D1*
X3816470Y-4494166D1*
X3812063Y-4511106D1*
X3811521Y-4512306D1*
X3832950Y-4512300D1*
Y-4928700D1*
X3500402D1*
X3493436Y-4938436D1*
X3481327Y-4951076D1*
X3467256Y-4961488D1*
X3451629Y-4969372D1*
X3434893Y-4974502D1*
X3423245Y-4975996D1*
X3462433Y-5015179D1*
X3728933Y-5015173D1*
X3784649Y-4959474D1*
X3794447Y-4951119D1*
X6053000Y-5905500D2*
D16*
X5929868D1*
X6053000D2*
Y-6023710D1*
X3556000Y-4805500D2*
Y-4928632D1*
X3714750Y-4805500D2*
Y-4928632D1*
Y-4805500D2*
X3832960D1*
X549138Y-1873244D2*
X212875Y-1873253D1*
X381007Y-1873248D2*
X381011Y-2041380D1*
X6604000Y-5229368D2*
Y-5397500D1*
X6858000Y-5229368D2*
Y-5397500D1*
X7026132D1*
X1000107Y-4079869D2*
X1168238Y-4079864D1*
X1000107Y-4079869D2*
X1000101Y-3911737D1*
X9969500Y-317500D2*
Y-635632D1*
X9651368Y-317500D2*
X9969500D1*
X317500Y-5650868D2*
Y-5969000D1*
X635632D1*
X9969500Y-5650868D2*
Y-5969000D1*
X9651368D2*
X9969500D1*
X317500Y-317500D2*
Y-635632D1*
Y-317500D2*
X635632D1*
D24*
X6223000Y-5905500D3*
X6053000D3*
D23*
X3556000Y-4635500D3*
Y-4805500D3*
X3714750Y-4635500D3*
Y-4805500D3*
D26*
X9144000Y-5619750D3*
D27*
X8890003D3*
X8636000D3*
X8382000D3*
D26*
X381000Y-1619252D3*
D27*
X381007Y-1873248D3*
D26*
X5842000Y-5651500D3*
D27*
Y-5397500D3*
X6096000Y-5651500D3*
Y-5397500D3*
X6350000Y-5651500D3*
Y-5397500D3*
X6604000Y-5651500D3*
Y-5397500D3*
X6858000Y-5651500D3*
Y-5397500D3*
D26*
X1000140Y-5095869D3*
D27*
X746140Y-5095878D3*
X1000132Y-4841869D3*
X746132Y-4841878D3*
X1000123Y-4587869D3*
X746123Y-4587878D3*
X1000115Y-4333869D3*
X746115Y-4333878D3*
X1000107Y-4079869D3*
X746107Y-4079878D3*
D28*
X9969500Y-317500D3*
X317500Y-5969000D3*
X9969500D3*
X317500Y-317500D3*
D24*
X6477000Y-5905500D3*
X6647000D3*
D33*
X1714500Y-571506D3*
X2222500Y-571494D3*
X3905250Y-571500D3*
X4413250D3*
X6127750D3*
X6635750D3*
X8350250D3*
X8858250D3*
X1714500Y-1270000D3*
X2222500D3*
X3905250D3*
X4413250D3*
X6127750D3*
X6635750D3*
X8350250D3*
X8858250D3*
X1714500Y-1968500D3*
X2222500D3*
X3905250D3*
X4413250D3*
X6127750D3*
X6635750D3*
X8350250D3*
X8858250D3*
X1714500Y-2667000D3*
X2222500D3*
X3905250D3*
X4413250D3*
X6127750D3*
X6635750D3*
X8350250D3*
X8858250D3*
D37*
X4000500Y-5794377D3*
X3517900D3*
M02*
