M48
METRIC,0000.00
T01C0.3
T02C0.7
T03C0.8
T04C0.9
T05C2.5
T06C3.1
%
T01
X+004397Y-005286
X+004493Y-005096
X+004635Y-005016
X+004175Y-004921
X+004096Y-004842
X+004175Y-004762
X+004096Y-004683
X+004175Y-004524
X+004096Y-004445
X+003715Y-004477
X+003556Y-004477
X+003254Y-004604
X+003254Y-004762
X+003413Y-004874
X+003556Y-005001
X+003635Y-005286
X+003397Y-005286
X+003318Y-005366
X+003239Y-005461
X+003191Y-005620
X+003556Y-005620
X+003938Y-005096
X+004334Y-005620
X+002937Y-005001
X+002318Y-005191
X+002064Y-004731
X+002143Y-004620
X+002381Y-004461
X+002873Y-004350
X+003096Y-004254
X+003239Y-004064
X+003397Y-004159
X+003635Y-003969
X+003969Y-003556
X+004413Y-003556
X+004572Y-003874
X+004858Y-003556
X+005302Y-003556
X+005017Y-004064
X+005620Y-004524
X+005905Y-003969
X+006191Y-003556
X+006636Y-003556
X+007080Y-003556
X+007525Y-003556
X+008128Y-003699
X+008414Y-003556
X+008572Y-003921
X+009017Y-003921
X+008858Y-003556
X+009303Y-003556
X+009462Y-003699
X+009652Y-003699
X+007445Y-004588
X+007445Y-004762
X+007080Y-004445
X+007239Y-004254
X+006794Y-005016
X+006350Y-004921
X+007747Y-005810
X+007747Y-006001
X+003112Y-003556
X+002667Y-003556
X+002699Y-003874
X+002222Y-003556
X+001778Y-003556
X+001556Y-005128
T02
X+001715Y-000572
X+002222Y-000571
X+002222Y-001270
X+001715Y-001270
X+001715Y-001969
X+002222Y-001969
X+002222Y-002667
X+001715Y-002667
X+003905Y-002667
X+004413Y-002667
X+004413Y-001969
X+003905Y-001969
X+003905Y-001270
X+004413Y-001270
X+004413Y-000572
X+003905Y-000572
X+006128Y-000572
X+006636Y-000572
X+006636Y-001270
X+006128Y-001270
X+006128Y-001969
X+006636Y-001969
X+006636Y-002667
X+006128Y-002667
X+008350Y-002667
X+008858Y-002667
X+008858Y-001969
X+008350Y-001969
X+008350Y-001270
X+008858Y-001270
X+008858Y-000572
X+008350Y-000572
T03
X+004000Y-005794
X+003518Y-005794
T04
X+009144Y-005620
X+008890Y-005620
X+008636Y-005620
X+008382Y-005620
X+006858Y-005651
X+006858Y-005398
X+006604Y-005398
X+006350Y-005398
X+006096Y-005398
X+006096Y-005651
X+006350Y-005651
X+006604Y-005651
X+005842Y-005651
X+005842Y-005398
X+001000Y-005096
X+000746Y-005096
X+000746Y-004842
X+001000Y-004842
X+001000Y-004588
X+000746Y-004588
X+000746Y-004334
X+001000Y-004334
X+001000Y-004080
X+000746Y-004080
X+000381Y-001873
X+000381Y-001619
T05
X+001207Y-000572
X+001206Y-001270
X+001206Y-001969
X+001206Y-002667
X+002730Y-002667
X+003397Y-002667
X+003397Y-001969
X+002730Y-001969
X+002730Y-001270
X+003397Y-001270
X+003397Y-000572
X+002730Y-000571
X+004921Y-000572
X+005620Y-000572
X+005620Y-001270
X+004921Y-001270
X+004921Y-001969
X+004921Y-002667
X+005620Y-002667
X+005620Y-001969
X+007144Y-001969
X+007144Y-002667
X+007842Y-002667
X+007842Y-001969
X+007842Y-001270
X+007144Y-001270
X+007144Y-000572
X+007842Y-000572
X+009366Y-000572
X+009366Y-001270
X+009366Y-001969
X+009366Y-002667
T06
X+009969Y-000317
X+009969Y-005969
X+000317Y-005969
X+000317Y-000317
T00
M30
