G04 DipTrace 4.2.0.0*
G04 Relay.GTL.gbr*
%MOMM*%
G04 #@! TF.FileFunction,Copper,L1,Top*
G04 #@! TF.Part,Single*
G04 #@! TA.AperFunction,Conductor*
%ADD10C,0.25*%
%ADD15C,0.2*%
%ADD16C,0.3*%
%ADD17C,0.5*%
%ADD18C,0.4*%
%ADD23R,1.0X1.1*%
%ADD24R,1.1X1.0*%
%ADD25R,1.4X1.8*%
G04 #@! TA.AperFunction,ComponentPad*
%ADD26R,2.0X2.0*%
%ADD27C,2.0*%
%ADD28C,5.0*%
%ADD29R,0.65X1.05*%
%ADD30R,1.05X0.65*%
%ADD31R,1.3X1.5*%
%ADD32R,1.5X1.3*%
G04 #@! TA.AperFunction,ComponentPad*
%ADD33C,1.5*%
%ADD34R,0.5X1.7*%
%ADD35R,1.7X0.5*%
%ADD36R,1.4X0.3*%
G04 #@! TA.AperFunction,ComponentPad*
%ADD37C,1.2192*%
G04 #@! TA.AperFunction,ViaPad*
%ADD38C,0.7*%
%FSLAX35Y35*%
G04*
G71*
G90*
G75*
G01*
G04 Top*
%LPD*%
X1682747Y-5302250D2*
D15*
X1793877D1*
X1873250Y-5222877D1*
Y-5116257D1*
X1877752Y-5111755D1*
X3556000Y-4476750D2*
D16*
Y-4305961D1*
X3558473Y-4303489D1*
X3714750Y-4476750D2*
Y-4307206D1*
X3718473Y-4303483D1*
X3478501Y-5143491D2*
Y-4938997D1*
X3413127Y-4873623D1*
X1714500Y-571506D2*
D17*
Y-825500D1*
Y-1270000D1*
Y-1524000D1*
Y-1968500D1*
Y-2222500D1*
Y-2667000D1*
Y-2921000D1*
X3905250D2*
Y-2667000D1*
Y-2222500D1*
Y-1968500D1*
Y-1524000D1*
Y-1270000D1*
Y-825500D1*
Y-571500D1*
X6127750D2*
Y-825500D1*
Y-1270000D1*
Y-1524000D1*
Y-1968500D1*
Y-2222500D1*
Y-2667000D1*
Y-2921000D1*
X8350250D2*
Y-2667000D1*
Y-2222500D1*
Y-1968500D1*
Y-1524000D1*
Y-1270000D1*
Y-825500D1*
Y-571500D1*
X3558473Y-4303489D2*
D18*
Y-4114096D1*
X3460750Y-4016373D1*
Y-3079750D1*
X3619500Y-2921000D1*
X3905250D1*
X1682747Y-5302250D2*
D17*
Y-5467433D1*
X1576680Y-5573500D1*
X772817D1*
X142873Y-4943557D1*
Y-1698627D1*
X222248Y-1619252D1*
X381000D1*
X1877750Y-5011755D2*
D15*
X1719245D1*
X1682747Y-5048253D1*
Y-5132250D1*
X2317752Y-5111745D2*
Y-5191127D1*
Y-5254629D1*
X2360750Y-5297627D1*
X2492380D1*
X3190873Y-5619750D2*
D16*
X3079748D1*
Y-5624373D1*
X4445000D2*
X4333877D1*
Y-5619750D1*
X3558501Y-5143489D2*
Y-5617249D1*
X3556000Y-5619750D1*
X9652000Y-3698873D2*
X9651500D1*
Y-3556000D1*
X9302750D2*
X9207000D1*
X8858250D2*
X8762500D1*
X8413750D2*
X8318000D1*
X7524750D2*
X7429000D1*
X7080250D2*
X6984500D1*
X6635750D2*
X6540000D1*
X6191250D2*
X6095500D1*
X5302250D2*
X5206500D1*
X4857750D2*
X4762000D1*
X4413250D2*
X4317500D1*
X3968750D2*
X3873000D1*
X3111500D2*
X3015750D1*
X2667000D2*
X2571250D1*
X2222500D2*
X2126750D1*
X1778000D2*
X1682250D1*
X3478473Y-4303491D2*
Y-4764349D1*
X3558500Y-4844377D1*
Y-5000627D1*
X3558501D1*
Y-5143489D1*
X3556000Y-5000627D2*
X3558500D1*
X2317747Y-5191127D2*
X2317752D1*
X7620000Y-4777877D2*
X7730627D1*
X7747000Y-4794250D1*
Y-5222373D1*
Y-5810250D1*
X8048127D1*
X8048377Y-5810000D1*
X7620000Y-5222377D2*
X7747000Y-5222373D1*
Y-5810250D2*
D3*
X1555750Y-5127623D2*
X1562373D1*
X1567000Y-5132250D1*
X1682747D1*
X7747000Y-6000750D2*
Y-5810250D1*
X8048377Y-5620000D2*
D10*
X8381750D1*
X8382000Y-5619750D1*
X3938485Y-4683476D2*
X4095750D1*
Y-4683127D1*
X7445370Y-4587877D2*
X7620000D1*
X8254500Y-4841877D2*
X8397877D1*
X8890003Y-5334003D1*
Y-5619750D1*
X8254500Y-5127623D2*
X8461373D1*
X8636000Y-5302250D1*
Y-5619750D1*
X3938488Y-4763476D2*
X4175127D1*
Y-4762500D1*
X7445373D2*
Y-4984747D1*
X7493003Y-5032377D1*
X7620000D1*
X4095747Y-4445000D2*
X3940001D1*
X3938477Y-4443476D1*
X7080250Y-4445000D2*
Y-5635627D1*
X7064377Y-5651500D1*
X6858000D1*
X3938480Y-4523476D2*
X4175127D1*
Y-4524373D1*
X5619747D2*
Y-5603873D1*
X5667373Y-5651500D1*
X5842000D1*
X3318473Y-4303497D2*
Y-4016973D1*
X3270250Y-3968750D1*
X2873377D1*
X2825750Y-3921123D1*
Y-3556000D1*
X3238500Y-4064000D2*
Y-4303472D1*
X3238473Y-4303499D1*
X5016500Y-4064000D2*
Y-3556000D1*
X3095623Y-4254500D2*
Y-4440650D1*
X3098477Y-4443504D1*
X7239000Y-4254500D2*
Y-3556000D1*
X3098480Y-4523504D2*
X2920131D1*
X2873373Y-4476747D1*
Y-4349750D1*
X9461500Y-3556000D2*
Y-3698873D1*
X3254377Y-4603750D2*
X3098729D1*
X3098483Y-4603504D1*
X2381250Y-3556000D2*
Y-4460877D1*
X3098485Y-4683504D2*
X2921381D1*
X2698750Y-4460873D1*
Y-3873500D1*
X4572000Y-3556000D2*
Y-3873500D1*
X3098496Y-5003504D2*
X2939754D1*
X2936873Y-5000623D1*
X6794500Y-3556000D2*
Y-5016500D1*
X3238501Y-5143499D2*
Y-5461000D1*
X3238500D1*
X9017000Y-3556000D2*
Y-3921123D1*
X3317873Y-5365750D2*
Y-5143497D1*
X3318501D1*
X1936750Y-3556000D2*
Y-4270373D1*
X2238373Y-4571997D1*
Y-4683127D1*
X2190750Y-4730750D1*
X2063750D1*
X3938496Y-5003476D2*
Y-5095873D1*
X4492623D2*
Y-4351323D1*
X4127500Y-3986200D1*
Y-3556000D1*
X3938493Y-4923476D2*
X4172901D1*
X4175127Y-4921250D1*
X6350000D2*
Y-3556000D1*
X4095750Y-4841873D2*
X3938491D1*
Y-4843476D1*
X8572500Y-3556000D2*
Y-3921127D1*
X3398501Y-5143494D2*
Y-5286373D1*
X3397250D1*
X1492250Y-3556000D2*
Y-3968753D1*
X2143123Y-4619627D1*
X3635373Y-5286377D2*
Y-5146613D1*
X3638501Y-5143486D1*
X3683000Y-3556000D2*
Y-3683000D1*
X4397373Y-4397373D1*
Y-5286377D1*
X3635373Y-3968750D2*
Y-4300387D1*
X3638473Y-4303486D1*
X5905500Y-3556000D2*
Y-3968750D1*
X3397250Y-4159250D2*
Y-4303494D1*
X3398473D1*
X8128000Y-3556000D2*
Y-3698877D1*
X3254373Y-4762500D2*
X3098488D1*
Y-4763504D1*
X4635500Y-5016500D2*
Y-5143500D1*
X5365750Y-5873750D1*
X6302373D1*
X6350000Y-5826123D1*
Y-5651500D1*
X1877748Y-4911755D2*
D15*
X1673255D1*
X1349369Y-4587869D1*
X1000123D1*
X1877749Y-4961755D2*
X1643875D1*
X1523989Y-4841869D1*
X1000132D1*
X3798473Y-4303481D2*
D10*
X4160744D1*
X4302123Y-4444860D1*
Y-5328592D1*
X4355156Y-5381625D1*
X4746625D1*
X5318125Y-5953125D1*
X6492875D1*
X6604000Y-5842000D1*
Y-5651500D1*
X3098491Y-4843504D2*
D15*
X2506623D1*
X2438382Y-4911745D1*
X2317748D1*
X2317749Y-4961745D2*
X2451882D1*
X2492377Y-4921250D1*
X3096239D1*
X3098493Y-4923504D1*
X3718501Y-5143483D2*
D10*
Y-5593776D1*
X3517900Y-5794377D1*
X3079755D1*
X3079752Y-5794373D1*
X3798501Y-5143481D2*
Y-5592377D1*
X4000500Y-5794377D1*
Y-5794373D1*
X4445000D1*
X5111500Y-3326000D2*
D16*
Y-2952500D1*
X5080000Y-2921000D1*
X4746627D1*
X4714873Y-2889247D1*
Y-873123D1*
X4413250Y-571500D1*
X4245250Y-825500D2*
Y-612500D1*
X4286250Y-571500D1*
X4413250D1*
X4667000Y-3326000D2*
Y-3206500D1*
X4635500Y-3175000D1*
Y-1492250D1*
X4413250Y-1270000D1*
X4245250Y-1524000D2*
Y-1311000D1*
X4286250Y-1270000D1*
X4413250D1*
X2476250Y-3326000D2*
Y-3206500D1*
X2444750Y-3175000D1*
Y-1492250D1*
X2222500Y-1270000D1*
X2054500Y-1524000D2*
Y-1311000D1*
X2095500Y-1270000D1*
X2222500D1*
X6889500Y-3326000D2*
Y-3206500D1*
X6858000Y-3175000D1*
Y-1492250D1*
X6635750Y-1270000D1*
X6467750Y-1524000D2*
Y-1311000D1*
X6508750Y-1270000D1*
X6635750D1*
X9556500Y-3326000D2*
Y-2952500D1*
X9525000Y-2921000D1*
X9191627D1*
X9159873Y-2889247D1*
Y-873123D1*
X8858250Y-571500D1*
X8690250Y-825500D2*
Y-612500D1*
X8731250Y-571500D1*
X8858250D1*
X2920750Y-3326000D2*
Y-2952500D1*
X2889250Y-2921000D1*
X2555877D1*
X2524123Y-2889247D1*
Y-873118D1*
X2222500Y-571494D1*
X2054500Y-825500D2*
Y-612500D1*
X2095506Y-571494D1*
X2222500D1*
X7334000Y-3326000D2*
Y-2952500D1*
X7302500Y-2921000D1*
X6969127D1*
X6937373Y-2889247D1*
Y-873123D1*
X6635750Y-571500D1*
X6467750Y-825500D2*
Y-612500D1*
X6508750Y-571500D1*
X6635750D1*
X8690250Y-1524000D2*
Y-1311000D1*
X8731250Y-1270000D1*
X8858250D1*
X9080500Y-1492250D1*
Y-3175000D1*
X9112000Y-3206500D1*
Y-3326000D1*
X1587250D2*
Y-3143500D1*
X1619250Y-3111500D1*
X2190750D1*
X2222500Y-3079750D1*
Y-2667000D1*
X2054500Y-2921000D2*
Y-2708000D1*
X2095500Y-2667000D1*
X2222500D1*
X4222500Y-3326000D2*
Y-3238750D1*
X4254500Y-3206750D1*
X4524377D1*
X4556123Y-3175003D1*
Y-2111373D1*
X4413250Y-1968500D1*
X4245250Y-2222500D2*
Y-2009500D1*
X4286250Y-1968500D1*
X4413250D1*
X7850000Y-4682877D2*
Y-4802000D1*
X7889877Y-4841877D1*
X8064500D1*
X7850000Y-5127377D2*
X8064253D1*
X8064500Y-5127623D1*
X2031750Y-3326000D2*
Y-3238750D1*
X2063750Y-3206750D1*
X2333627D1*
X2365373Y-3175003D1*
Y-2111373D1*
X2222500Y-1968500D1*
X2054500Y-2222500D2*
Y-2009500D1*
X2095500Y-1968500D1*
X2222500D1*
X3778000Y-3326000D2*
Y-3143500D1*
X3810000Y-3111500D1*
X4381500D1*
X4413250Y-3079750D1*
Y-2667000D1*
X4245250Y-2921000D2*
Y-2708000D1*
X4286250Y-2667000D1*
X4413250D1*
X2317751Y-5061745D2*
D15*
X2209012D1*
X2186130Y-5084627D1*
Y-5318123D1*
X2317750Y-5011745D2*
X2471745D1*
X2492380Y-5032380D1*
Y-5127627D1*
X1877751Y-5061755D2*
X1997885D1*
X2016130Y-5080000D1*
Y-5318123D1*
X6000500Y-3326000D2*
D16*
Y-3143500D1*
X6032500Y-3111500D1*
X6635750D1*
Y-2667000D1*
X6467750Y-2921000D2*
Y-2708000D1*
X6508750Y-2667000D1*
X6635750D1*
X8667500Y-3326000D2*
Y-3238750D1*
X8699500Y-3206750D1*
X8969377D1*
X9001123Y-3175003D1*
Y-2111373D1*
X8858250Y-1968500D1*
X8690250Y-2222500D2*
Y-2009500D1*
X8731250Y-1968500D1*
X8858250D1*
X6445000Y-3326000D2*
Y-3238750D1*
X6477000Y-3206750D1*
X6746877D1*
X6778623Y-3175003D1*
Y-2111373D1*
X6635750Y-1968500D1*
X6467750Y-2222500D2*
Y-2009500D1*
X6508750Y-1968500D1*
X6635750D1*
X8223000Y-3326000D2*
Y-3143500D1*
X8255000Y-3111500D1*
X8826500D1*
X8858250Y-3079750D1*
Y-2667000D1*
X8690250Y-2921000D2*
Y-2708000D1*
X8731250Y-2667000D1*
X8858250D1*
D38*
X7445370Y-4587877D3*
X7445373Y-4762500D3*
X7080250Y-4445000D3*
X5619747Y-4524373D3*
X2698750Y-3873500D3*
X3938496Y-5095873D3*
X4492623D3*
X4635500Y-5016500D3*
X4397373Y-5286377D3*
X1778000Y-3556000D3*
X2222500D3*
X2667000D3*
X3111500D3*
X3968750D3*
X4413250D3*
X4857750D3*
X5302250D3*
X6191250D3*
X6635750D3*
X7080250D3*
X3190873Y-5619750D3*
X4333877D3*
X3238500Y-4064000D3*
X3397250Y-4159250D3*
X3556000Y-5000627D3*
Y-4476750D3*
X3635373Y-3968750D3*
X3714750Y-4476750D3*
X7524750Y-3556000D3*
X3095623Y-4254500D3*
X2873373Y-4349750D3*
X3254377Y-4603750D3*
X3254373Y-4762500D3*
X8413750Y-3556000D3*
X8858250D3*
X2936873Y-5000623D3*
X4095747Y-4445000D3*
X4175127Y-4524373D3*
X7747000Y-5810250D3*
X4175127Y-4762500D3*
Y-4921250D3*
X4095750Y-4683127D3*
Y-4841873D3*
X9302750Y-3556000D3*
X3238500Y-5461000D3*
X3317873Y-5365750D3*
X3397250Y-5286373D3*
X2317747Y-5191127D3*
X3556000Y-5619750D3*
X3635373Y-5286377D3*
X2143123Y-4619627D3*
X2063750Y-4730750D3*
X2381250Y-4460877D3*
X7747000Y-6000750D3*
X4572000Y-3873500D3*
X5016500Y-4064000D3*
X5905500Y-3968750D3*
X6350000Y-4921250D3*
X6794500Y-5016500D3*
X7239000Y-4254500D3*
X8128000Y-3698877D3*
X9652000Y-3698873D3*
X8572500Y-3921127D3*
X3413127Y-4873623D3*
X9017000Y-3921123D3*
X1555750Y-5127623D3*
X9461500Y-3698873D3*
D23*
X3079752Y-5794373D3*
X3079748Y-5624373D3*
X4445000Y-5794373D3*
Y-5624373D3*
X2492380Y-5127627D3*
Y-5297627D3*
D24*
X2016130Y-5318123D3*
X2186130D3*
D23*
X1682747Y-5302250D3*
Y-5132250D3*
D25*
X1714500Y-825500D3*
X2054500D3*
X3905250D3*
X4245250D3*
X6127750D3*
X6467750D3*
X8350250D3*
X8690250D3*
X1714500Y-1524000D3*
X2054500D3*
X3905250D3*
X4245250D3*
X6127750D3*
X6467750D3*
X8350250D3*
X8690250D3*
X1714500Y-2222500D3*
X2054500D3*
X3905250D3*
X4245250D3*
X6127750D3*
X6467750D3*
X8350250D3*
X8690250D3*
X1714500Y-2921000D3*
X2054500D3*
X3905250D3*
X4245250D3*
X6127750D3*
X6467750D3*
X8350250D3*
X8690250D3*
D26*
X9144000Y-5619750D3*
D27*
X8890003D3*
X8636000D3*
X8382000D3*
D26*
X381000Y-1619252D3*
D27*
X381007Y-1873248D3*
D26*
X5842000Y-5651500D3*
D27*
Y-5397500D3*
X6096000Y-5651500D3*
Y-5397500D3*
X6350000Y-5651500D3*
Y-5397500D3*
X6604000Y-5651500D3*
Y-5397500D3*
X6858000Y-5651500D3*
Y-5397500D3*
D26*
X1000140Y-5095869D3*
D27*
X746140Y-5095878D3*
X1000132Y-4841869D3*
X746132Y-4841878D3*
X1000123Y-4587869D3*
X746123Y-4587878D3*
X1000115Y-4333869D3*
X746115Y-4333878D3*
X1000107Y-4079869D3*
X746107Y-4079878D3*
D28*
X9969500Y-317500D3*
X317500Y-5969000D3*
X9969500D3*
X317500Y-317500D3*
D29*
X2825750Y-3556000D3*
X3015750D3*
X2920750Y-3326000D3*
X5016500Y-3556000D3*
X5206500D3*
X5111500Y-3326000D3*
X7239000Y-3556000D3*
X7429000D3*
X7334000Y-3326000D3*
X9461500Y-3556000D3*
X9651500D3*
X9556500Y-3326000D3*
X2381250Y-3556000D3*
X2571250D3*
X2476250Y-3326000D3*
X4572000Y-3556000D3*
X4762000D3*
X4667000Y-3326000D3*
X6794500Y-3556000D3*
X6984500D3*
X6889500Y-3326000D3*
X9017000Y-3556000D3*
X9207000D3*
X9112000Y-3326000D3*
X1936750Y-3556000D3*
X2126750D3*
X2031750Y-3326000D3*
X4127500Y-3556000D3*
X4317500D3*
X4222500Y-3326000D3*
X6350000Y-3556000D3*
X6540000D3*
X6445000Y-3326000D3*
X8572500Y-3556000D3*
X8762500D3*
X8667500Y-3326000D3*
X1492250Y-3556000D3*
X1682250D3*
X1587250Y-3326000D3*
X3683000Y-3556000D3*
X3873000D3*
X3778000Y-3326000D3*
X5905500Y-3556000D3*
X6095500D3*
X6000500Y-3326000D3*
X8128000Y-3556000D3*
X8318000D3*
X8223000Y-3326000D3*
D30*
X7620000Y-4587877D3*
Y-4777877D3*
X7850000Y-4682877D3*
X7620000Y-5032377D3*
Y-5222377D3*
X7850000Y-5127377D3*
D31*
X8064500Y-4841877D3*
X8254500D3*
X8064500Y-5127623D3*
X8254500D3*
D32*
X8048377Y-5810000D3*
Y-5620000D3*
D33*
X1714500Y-571506D3*
X2222500Y-571494D3*
X3905250Y-571500D3*
X4413250D3*
X6127750D3*
X6635750D3*
X8350250D3*
X8858250D3*
X1714500Y-1270000D3*
X2222500D3*
X3905250D3*
X4413250D3*
X6127750D3*
X6635750D3*
X8350250D3*
X8858250D3*
X1714500Y-1968500D3*
X2222500D3*
X3905250D3*
X4413250D3*
X6127750D3*
X6635750D3*
X8350250D3*
X8858250D3*
X1714500Y-2667000D3*
X2222500D3*
X3905250D3*
X4413250D3*
X6127750D3*
X6635750D3*
X8350250D3*
X8858250D3*
D34*
X3238501Y-5143499D3*
X3318501Y-5143497D3*
X3398501Y-5143494D3*
X3478501Y-5143491D3*
X3558501Y-5143489D3*
X3638501Y-5143486D3*
X3718501Y-5143483D3*
X3798501Y-5143481D3*
D35*
X3938496Y-5003476D3*
X3938493Y-4923476D3*
X3938491Y-4843476D3*
X3938488Y-4763476D3*
X3938485Y-4683476D3*
X3938483Y-4603476D3*
X3938480Y-4523476D3*
X3938477Y-4443476D3*
D34*
X3798473Y-4303481D3*
X3718473Y-4303483D3*
X3638473Y-4303486D3*
X3558473Y-4303489D3*
X3478473Y-4303491D3*
X3398473Y-4303494D3*
X3318473Y-4303497D3*
X3238473Y-4303499D3*
D35*
X3098477Y-4443504D3*
X3098480Y-4523504D3*
X3098483Y-4603504D3*
X3098485Y-4683504D3*
X3098488Y-4763504D3*
X3098491Y-4843504D3*
X3098493Y-4923504D3*
X3098496Y-5003504D3*
D36*
X2317752Y-5111745D3*
X2317751Y-5061745D3*
X2317750Y-5011745D3*
X2317749Y-4961745D3*
X2317748Y-4911745D3*
X1877748Y-4911755D3*
X1877749Y-4961755D3*
X1877750Y-5011755D3*
X1877751Y-5061755D3*
X1877752Y-5111755D3*
D37*
X4000500Y-5794377D3*
X3517900D3*
M02*
