G04 DipTrace 4.2.0.0*
G04 Relay.GBS.gbr*
%MOMM*%
G04 #@! TF.FileFunction,Soldermask,Bot*
G04 #@! TF.Part,Single*
%ADD39C,2.5*%
%ADD44C,1.3192*%
%ADD52C,1.6*%
%ADD62C,5.1*%
%ADD64C,2.1*%
%ADD66R,2.1X2.1*%
%ADD70R,1.2X1.1*%
%ADD72R,1.1X1.2*%
%FSLAX35Y35*%
G04*
G71*
G90*
G75*
G01*
G04 BotMask*
%LPD*%
D70*
X6223000Y-5905500D3*
X6053000D3*
D72*
X3556000Y-4635500D3*
Y-4805500D3*
X3714750Y-4635500D3*
Y-4805500D3*
D66*
X9144000Y-5619750D3*
D64*
X8890003D3*
X8636000D3*
X8382000D3*
D66*
X381000Y-1619252D3*
D64*
X381007Y-1873248D3*
D66*
X5842000Y-5651500D3*
D64*
Y-5397500D3*
X6096000Y-5651500D3*
Y-5397500D3*
X6350000Y-5651500D3*
Y-5397500D3*
X6604000Y-5651500D3*
Y-5397500D3*
X6858000Y-5651500D3*
Y-5397500D3*
D66*
X1000140Y-5095869D3*
D64*
X746140Y-5095878D3*
X1000132Y-4841869D3*
X746132Y-4841878D3*
X1000123Y-4587869D3*
X746123Y-4587878D3*
X1000115Y-4333869D3*
X746115Y-4333878D3*
X1000107Y-4079869D3*
X746107Y-4079878D3*
D62*
X9969500Y-317500D3*
X317500Y-5969000D3*
X9969500D3*
X317500Y-317500D3*
D70*
X6477000Y-5905500D3*
X6647000D3*
D52*
X1714500Y-571506D3*
X2222500Y-571494D3*
D39*
X1206500Y-571517D3*
X2730500Y-571483D3*
D52*
X3905250Y-571500D3*
X4413250D3*
D39*
X3397250D3*
X4921250D3*
D52*
X6127750D3*
X6635750D3*
D39*
X5619750D3*
X7143750D3*
D52*
X8350250D3*
X8858250D3*
D39*
X7842250D3*
X9366250D3*
D52*
X1714500Y-1270000D3*
X2222500D3*
D39*
X1206500D3*
X2730500D3*
D52*
X3905250D3*
X4413250D3*
D39*
X3397250D3*
X4921250D3*
D52*
X6127750D3*
X6635750D3*
D39*
X5619750D3*
X7143750D3*
D52*
X8350250D3*
X8858250D3*
D39*
X7842250D3*
X9366250D3*
D52*
X1714500Y-1968500D3*
X2222500D3*
D39*
X1206500D3*
X2730500D3*
D52*
X3905250D3*
X4413250D3*
D39*
X3397250D3*
X4921250D3*
D52*
X6127750D3*
X6635750D3*
D39*
X5619750D3*
X7143750D3*
D52*
X8350250D3*
X8858250D3*
D39*
X7842250D3*
X9366250D3*
D52*
X1714500Y-2667000D3*
X2222500D3*
D39*
X1206500D3*
X2730500D3*
D52*
X3905250D3*
X4413250D3*
D39*
X3397250D3*
X4921250D3*
D52*
X6127750D3*
X6635750D3*
D39*
X5619750D3*
X7143750D3*
D52*
X8350250D3*
X8858250D3*
D39*
X7842250D3*
X9366250D3*
D44*
X4000500Y-5794377D3*
X3517900D3*
M02*
